Pliska-Regular.ufo
<glyph name="exclam" format="2">
  <advance width="333"/>
  <unicode hex="0021"/>
  <outline>
    <contour>
      <point x="127" y="43" type="curve" smooth="yes"/>
      <point x="127" y="13"/>
      <point x="151.208" y="-9"/>
      <point x="182.5" y="-9" type="curve" smooth="yes"/>
      <point x="213.792" y="-9"/>
      <point x="237" y="13"/>
      <point x="237" y="43" type="curve" smooth="yes"/>
      <point x="237" y="73"/>
      <point x="212.783" y="98"/>
      <point x="182.5" y="98" type="curve" smooth="yes"/>
      <point x="152.217" y="98"/>
      <point x="127" y="74"/>
    </contour>
    <contour>
      <point x="122" y="610" type="curve" smooth="yes"/>
      <point x="122" y="540.196"/>
      <point x="132.117" y="468.802"/>
      <point x="140.94" y="407.214" type="curve" smooth="yes"/>
      <point x="152.579" y="325.965"/>
      <point x="163.22" y="252.081"/>
      <point x="163.434" y="176" type="curve"/>
      <point x="200.557" y="176" type="line"/>
      <point x="200.722" y="251.764"/>
      <point x="211.258" y="324.681"/>
      <point x="221.664" y="396.908" type="curve" smooth="yes"/>
      <point x="231.837" y="467.523"/>
      <point x="242" y="540.496"/>
      <point x="242" y="610" type="curve" smooth="yes"/>
      <point x="242" y="659.82"/>
      <point x="215.295" y="676"/>
      <point x="181.603" y="676" type="curve" smooth="yes"/>
      <point x="146.084" y="676"/>
      <point x="122" y="656.862"/>
    </contour>
  </outline>
</glyph>
<glyph name="quotedbl" format="2">
  <advance width="408"/>
  <unicode hex="0022"/>
  <outline>
    <contour>
      <point x="78" y="635" type="curve" smooth="yes"/>
      <point x="78" y="615.298"/>
      <point x="90.0503" y="539.647"/>
      <point x="102.839" y="470" type="curve" smooth="yes"/>
      <point x="110" y="431" type="line"/>
      <point x="131" y="431" type="line"/>
      <point x="138" y="470" type="line" smooth="yes"/>
      <point x="150.504" y="539.663"/>
      <point x="163" y="616"/>
      <point x="163" y="634.808" type="curve" smooth="yes"/>
      <point x="163" y="658"/>
      <point x="144" y="676"/>
      <point x="121" y="676" type="curve" smooth="yes"/>
      <point x="97" y="676"/>
      <point x="78" y="658"/>
    </contour>
    <contour>
      <point x="246" y="635" type="curve" smooth="yes"/>
      <point x="246" y="615.298"/>
      <point x="258.05" y="539.647"/>
      <point x="270.839" y="470" type="curve" smooth="yes"/>
      <point x="278" y="431" type="line"/>
      <point x="299" y="431" type="line"/>
      <point x="306" y="470" type="line" smooth="yes"/>
      <point x="318.504" y="539.663"/>
      <point x="331" y="616"/>
      <point x="331" y="634.808" type="curve" smooth="yes"/>
      <point x="331" y="658"/>
      <point x="312" y="676"/>
      <point x="289" y="676" type="curve" smooth="yes"/>
      <point x="265" y="676"/>
      <point x="246" y="658"/>
    </contour>
  </outline>
</glyph>
<glyph name="percent" format="2">
  <advance width="833"/>
  <unicode hex="0025"/>
  <outline>
    <contour>
      <point x="449" y="132.427" type="curve" smooth="yes"/>
      <point x="449" y="51"/>
      <point x="497" y="0"/>
      <point x="570.295" y="0" type="curve" smooth="yes"/>
      <point x="696.951" y="0"/>
      <point x="772" y="152.291"/>
      <point x="772" y="257.287" type="curve" smooth="yes"/>
      <point x="772" y="330.875"/>
      <point x="734" y="371"/>
      <point x="669" y="371" type="curve" smooth="yes"/>
      <point x="556" y="371"/>
      <point x="449" y="254"/>
    </contour>
    <contour>
      <point x="525" y="98.3375" type="curve" smooth="yes"/>
      <point x="525" y="164.515"/>
      <point x="586.081" y="337"/>
      <point x="674.045" y="337" type="curve" smooth="yes"/>
      <point x="714" y="337"/>
      <point x="746" y="303"/>
      <point x="746" y="251.2" type="curve" smooth="yes"/>
      <point x="746" y="178.377"/>
      <point x="682.754" y="30"/>
      <point x="589.173" y="30" type="curve" smooth="yes"/>
      <point x="550" y="30"/>
      <point x="525" y="56"/>
    </contour>
    <contour>
      <point x="61" y="416" type="curve" smooth="yes"/>
      <point x="61" y="344.438"/>
      <point x="114" y="289"/>
      <point x="186.319" y="289" type="curve" smooth="yes"/>
      <point x="303.719" y="289"/>
      <point x="384" y="439.214"/>
      <point x="384" y="546.126" type="curve" smooth="yes"/>
      <point x="384" y="563"/>
      <point x="382" y="575"/>
      <point x="377" y="593" type="curve"/>
      <point x="395" y="586"/>
      <point x="413" y="583"/>
      <point x="442" y="583" type="curve" smooth="yes"/>
      <point x="486" y="583"/>
      <point x="512" y="590"/>
      <point x="552" y="613" type="curve"/>
      <point x="201" y="-13" type="line"/>
      <point x="249" y="-13" type="line"/>
      <point x="634" y="676" type="line"/>
      <point x="595" y="676" type="line"/>
      <point x="541" y="625"/>
      <point x="501" y="608"/>
      <point x="439" y="608" type="curve" smooth="yes"/>
      <point x="399" y="608"/>
      <point x="376" y="615"/>
      <point x="346.47" y="639.805" type="curve" smooth="yes"/>
      <point x="326" y="657"/>
      <point x="313" y="662"/>
      <point x="288.334" y="662" type="curve" smooth="yes"/>
      <point x="168" y="662"/>
      <point x="61" y="543"/>
    </contour>
    <contour>
      <point x="137" y="386.942" type="curve" smooth="yes"/>
      <point x="137" y="450.093"/>
      <point x="200.117" y="632"/>
      <point x="282" y="632" type="curve" smooth="yes"/>
      <point x="287" y="632"/>
      <point x="289.195" y="631.225"/>
      <point x="295" y="626" type="curve" smooth="yes"/>
      <point x="309.201" y="613.219"/>
      <point x="321" y="608"/>
      <point x="350" y="600" type="curve"/>
      <point x="356" y="580"/>
      <point x="359" y="565"/>
      <point x="359" y="544.609" type="curve" smooth="yes"/>
      <point x="359" y="438"/>
      <point x="277" y="323"/>
      <point x="197.887" y="323" type="curve" smooth="yes"/>
      <point x="161" y="323"/>
      <point x="137" y="346.562"/>
    </contour>
  </outline>
</glyph>
<glyph name="ampersand" format="2">
  <advance width="778"/>
  <unicode hex="0026"/>
  <outline>
    <contour>
      <point x="42" y="140.594" type="curve" smooth="yes"/>
      <point x="42" y="44"/>
      <point x="107" y="-13"/>
      <point x="219.497" y="-13" type="curve" smooth="yes"/>
      <point x="294" y="-13"/>
      <point x="354" y="12"/>
      <point x="429" y="78" type="curve"/>
      <point x="492" y="13"/>
      <point x="541" y="-13"/>
      <point x="594.721" y="-13" type="curve" smooth="yes"/>
      <point x="663" y="-13"/>
      <point x="720" y="29"/>
      <point x="750" y="100" type="curve"/>
      <point x="735" y="111" type="line"/>
      <point x="703" y="71"/>
      <point x="681" y="58"/>
      <point x="645" y="58" type="curve" smooth="yes"/>
      <point x="589" y="58"/>
      <point x="537" y="89"/>
      <point x="491" y="150" type="curve"/>
      <point x="535" y="209"/>
      <point x="560" y="246"/>
      <point x="591" y="300" type="curve" smooth="yes"/>
      <point x="617" y="346" type="line" smooth="yes"/>
      <point x="641" y="387"/>
      <point x="661" y="399"/>
      <point x="711" y="405" type="curve"/>
      <point x="711" y="426" type="line"/>
      <point x="495" y="426" type="line"/>
      <point x="495" y="405" type="line"/>
      <point x="545" y="400"/>
      <point x="559" y="390"/>
      <point x="559" y="360" type="curve" smooth="yes"/>
      <point x="559" y="317"/>
      <point x="532" y="263"/>
      <point x="468" y="178" type="curve"/>
      <point x="412" y="247"/>
      <point x="380" y="298"/>
      <point x="336" y="384" type="curve"/>
      <point x="409.397" y="418.54"/>
      <point x="491" y="462.062"/>
      <point x="491" y="551.724" type="curve" smooth="yes"/>
      <point x="491" y="626"/>
      <point x="435" y="676"/>
      <point x="358.829" y="676" type="curve" smooth="yes"/>
      <point x="270" y="676"/>
      <point x="202" y="608"/>
      <point x="202" y="515.669" type="curve" smooth="yes"/>
      <point x="202" y="484"/>
      <point x="210" y="452"/>
      <point x="237" y="377" type="curve"/>
      <point x="143.71" y="322.99"/>
      <point x="42" y="261.424"/>
    </contour>
    <contour>
      <point x="134" y="184.746" type="curve" smooth="yes"/>
      <point x="134" y="244"/>
      <point x="165" y="287"/>
      <point x="252" y="343" type="curve"/>
      <point x="312" y="229"/>
      <point x="347" y="174"/>
      <point x="404" y="104" type="curve"/>
      <point x="345" y="57"/>
      <point x="305" y="39"/>
      <point x="266.187" y="39" type="curve" smooth="yes"/>
      <point x="193" y="39"/>
      <point x="134" y="103"/>
    </contour>
    <contour>
      <point x="281" y="562" type="curve" smooth="yes"/>
      <point x="281" y="610"/>
      <point x="312" y="644"/>
      <point x="358" y="644" type="curve" smooth="yes"/>
      <point x="404" y="644"/>
      <point x="438" y="608"/>
      <point x="438" y="555.88" type="curve" smooth="yes"/>
      <point x="438" y="503"/>
      <point x="403" y="460"/>
      <point x="321" y="416" type="curve"/>
      <point x="291" y="479"/>
      <point x="281" y="517"/>
    </contour>
  </outline>
</glyph>
<glyph name="quotesingle" format="2">
  <advance width="180"/>
  <unicode hex="0027"/>
  <outline>
    <contour>
      <point x="48" y="635" type="curve" smooth="yes"/>
      <point x="48" y="615.298"/>
      <point x="60.0503" y="539.647"/>
      <point x="72.8388" y="470" type="curve" smooth="yes"/>
      <point x="80" y="431" type="line"/>
      <point x="101" y="431" type="line"/>
      <point x="108" y="470" type="line" smooth="yes"/>
      <point x="120.504" y="539.663"/>
      <point x="133" y="616"/>
      <point x="133" y="634.808" type="curve" smooth="yes"/>
      <point x="133" y="658"/>
      <point x="114" y="676"/>
      <point x="91" y="676" type="curve" smooth="yes"/>
      <point x="67" y="676"/>
      <point x="48" y="658"/>
    </contour>
  </outline>
</glyph>
<glyph name="parenright" format="2">
  <advance width="333"/>
  <unicode hex="0029"/>
  <outline>
    <contour>
      <point x="29" y="-161" type="curve"/>
      <point x="38" y="-177" type="line"/>
      <point x="112" y="-129"/>
      <point x="142" y="-103"/>
      <point x="179" y="-57" type="curve" smooth="yes"/>
      <point x="250" y="30"/>
      <point x="285" y="130"/>
      <point x="285" y="247" type="curve" smooth="yes"/>
      <point x="285" y="375"/>
      <point x="248" y="472"/>
      <point x="160" y="574" type="curve" smooth="yes"/>
      <point x="119" y="622"/>
      <point x="93" y="644"/>
      <point x="41" y="676" type="curve"/>
      <point x="29" y="660" type="line"/>
      <point x="109" y="597"/>
      <point x="136" y="562"/>
      <point x="164" y="487" type="curve" smooth="yes"/>
      <point x="188" y="420"/>
      <point x="199" y="344"/>
      <point x="199" y="244" type="curve" smooth="yes"/>
      <point x="199" y="140"/>
      <point x="186" y="57"/>
      <point x="159" y="-4" type="curve" smooth="yes"/>
      <point x="131" y="-67"/>
      <point x="101" y="-103"/>
    </contour>
  </outline>
</glyph>
<glyph name="comma" format="2">
  <advance width="219"/>
  <unicode hex="002C"/>
  <outline>
    <contour>
      <point x="30" y="45" type="curve" smooth="yes"/>
      <point x="30" y="13"/>
      <point x="53" y="-6"/>
      <point x="85.9705" y="-6" type="curve" smooth="yes"/>
      <point x="94.4952" y="-6"/>
      <point x="100.521" y="-4.7298"/>
      <point x="105.777" y="-3.621" type="curve" smooth="yes"/>
      <point x="109.848" y="-2.7621"/>
      <point x="114.089" y="-2"/>
      <point x="116" y="-2" type="curve" smooth="yes"/>
      <point x="124" y="-2"/>
      <point x="130" y="-8"/>
      <point x="130" y="-20.6572" type="curve" smooth="yes"/>
      <point x="130" y="-48"/>
      <point x="102" y="-85"/>
      <point x="48" y="-122" type="curve"/>
      <point x="57" y="-141" type="line"/>
      <point x="124" y="-108"/>
      <point x="169" y="-47"/>
      <point x="169" y="11.451" type="curve" smooth="yes"/>
      <point x="169" y="63"/>
      <point x="134" y="102"/>
      <point x="89" y="102" type="curve" smooth="yes"/>
      <point x="54" y="102"/>
      <point x="30" y="79"/>
    </contour>
  </outline>
</glyph>
<glyph name="zero" format="2">
  <advance width="500"/>
  <unicode hex="0030"/>
  <outline>
    <contour>
      <point x="24" y="329.5" type="curve" smooth="yes"/>
      <point x="24" y="210"/>
      <point x="66" y="-14"/>
      <point x="250" y="-14" type="curve" smooth="yes"/>
      <point x="434" y="-14"/>
      <point x="476" y="210"/>
      <point x="476" y="329.5" type="curve" smooth="yes"/>
      <point x="476" y="449"/>
      <point x="434" y="676"/>
      <point x="250" y="676" type="curve" smooth="yes"/>
      <point x="66" y="676"/>
      <point x="24" y="449"/>
    </contour>
    <contour>
      <point x="120" y="324.5" type="curve" smooth="yes"/>
      <point x="120" y="399"/>
      <point x="122" y="650"/>
      <point x="250" y="650" type="curve" smooth="yes"/>
      <point x="378" y="650"/>
      <point x="380" y="399"/>
      <point x="380" y="325.5" type="curve" smooth="yes"/>
      <point x="380" y="252"/>
      <point x="378" y="12"/>
      <point x="250" y="12" type="curve" smooth="yes"/>
      <point x="122" y="12"/>
      <point x="120" y="250"/>
    </contour>
  </outline>
</glyph>
<glyph name="three" format="2">
  <advance width="500"/>
  <unicode hex="0033"/>
  <outline>
    <contour>
      <point x="42" y="43" type="curve" smooth="yes"/>
      <point x="42" y="-9"/>
      <point x="129" y="-14"/>
      <point x="153" y="-14" type="curve" smooth="yes"/>
      <point x="310" y="-14"/>
      <point x="430" y="74"/>
      <point x="430" y="225.784" type="curve" smooth="yes"/>
      <point x="430" y="317.242"/>
      <point x="386.432" y="365.244"/>
      <point x="303" y="401" type="curve"/>
      <point x="369" y="444"/>
      <point x="396" y="487"/>
      <point x="396" y="534.5" type="curve" smooth="yes"/>
      <point x="396" y="582"/>
      <point x="369" y="676"/>
      <point x="244.498" y="676" type="curve" smooth="yes"/>
      <point x="173" y="676"/>
      <point x="84" y="645"/>
      <point x="44" y="514" type="curve"/>
      <point x="59" y="510" type="line"/>
      <point x="74" y="538"/>
      <point x="116" y="616"/>
      <point x="207" y="616" type="curve" smooth="yes"/>
      <point x="281" y="616"/>
      <point x="317" y="563"/>
      <point x="317" y="504.474" type="curve" smooth="yes"/>
      <point x="317" y="420"/>
      <point x="242" y="372"/>
      <point x="151" y="343" type="curve"/>
      <point x="153" y="330" type="line"/>
      <point x="178" y="330" type="line" smooth="yes"/>
      <point x="272.379" y="330"/>
      <point x="358" y="283.566"/>
      <point x="358" y="176" type="curve" smooth="yes"/>
      <point x="358" y="101"/>
      <point x="317" y="22"/>
      <point x="223.956" y="22" type="curve" smooth="yes"/>
      <point x="192.667" y="22"/>
      <point x="169.228" y="30.9343"/>
      <point x="146.439" y="50.3418" type="curve" smooth="yes"/>
      <point x="120.619" y="72.3305"/>
      <point x="97.3405" y="78"/>
      <point x="82.0217" y="78" type="curve" smooth="yes"/>
      <point x="65" y="78"/>
      <point x="42" y="71"/>
    </contour>
  </outline>
</glyph>
<glyph name="four" format="2">
  <advance width="500"/>
  <unicode hex="0034"/>
  <outline>
    <contour>
      <point x="12" y="167" type="line"/>
      <point x="293" y="167" type="line"/>
      <point x="293" y="0" type="line"/>
      <point x="370" y="0" type="line"/>
      <point x="370" y="167" type="line"/>
      <point x="472" y="167" type="line"/>
      <point x="472" y="231" type="line"/>
      <point x="370" y="231" type="line"/>
      <point x="370" y="676" type="line"/>
      <point x="326" y="676" type="line"/>
      <point x="12" y="231" type="line"/>
    </contour>
    <contour>
      <point x="52" y="231" type="line"/>
      <point x="293" y="574" type="line"/>
      <point x="293" y="231" type="line"/>
    </contour>
  </outline>
</glyph>
<glyph name="six" format="2">
  <advance width="500"/>
  <unicode hex="0036"/>
  <outline>
    <contour>
      <point x="34" y="291" type="curve" smooth="yes"/>
      <point x="34" y="104.205"/>
      <point x="119.262" y="-14"/>
      <point x="254" y="-14" type="curve" smooth="yes"/>
      <point x="376.668" y="-14"/>
      <point x="468" y="85.014"/>
      <point x="468" y="222.853" type="curve" smooth="yes"/>
      <point x="468" y="345.489"/>
      <point x="395.705" y="428"/>
      <point x="278.877" y="428" type="curve" smooth="yes"/>
      <point x="230.431" y="428"/>
      <point x="188.812" y="413.812"/>
      <point x="152" y="383" type="curve"/>
      <point x="174.635" y="528.339"/>
      <point x="294.629" y="643.874"/>
      <point x="448" y="668" type="curve"/>
      <point x="446" y="684" type="line"/>
      <point x="213.91" y="671.815"/>
      <point x="34" y="500.201"/>
    </contour>
    <contour>
      <point x="127" y="256" type="curve" smooth="yes"/>
      <point x="127" y="299.018"/>
      <point x="135.374" y="338.374"/>
      <point x="147" y="350" type="curve"/>
      <point x="170.457" y="369.548"/>
      <point x="207.144" y="382"/>
      <point x="243.015" y="382" type="curve" smooth="yes"/>
      <point x="329.502" y="382"/>
      <point x="378" y="309.61"/>
      <point x="378" y="186.693" type="curve" smooth="yes"/>
      <point x="378" y="74.8165"/>
      <point x="337.824" y="14"/>
      <point x="269" y="14" type="curve" smooth="yes"/>
      <point x="182.211" y="14"/>
      <point x="127" y="108.092"/>
    </contour>
  </outline>
</glyph>
<glyph name="seven" format="2">
  <advance width="500"/>
  <unicode hex="0037"/>
  <outline>
    <contour>
      <point x="20" y="515" type="line"/>
      <point x="37" y="507" type="line"/>
      <point x="80" y="575"/>
      <point x="98" y="588"/>
      <point x="153" y="588" type="curve" smooth="yes"/>
      <point x="370" y="588" type="line"/>
      <point x="172" y="-8" type="line"/>
      <point x="237" y="-8" type="line"/>
      <point x="449" y="646" type="line"/>
      <point x="449" y="662" type="line"/>
      <point x="79" y="662" type="line"/>
    </contour>
  </outline>
</glyph>
<glyph name="nine" format="2">
  <advance width="500"/>
  <unicode hex="0039"/>
  <outline>
    <contour>
      <point x="30" y="435" type="curve" smooth="yes"/>
      <point x="30" y="316.2"/>
      <point x="101.201" y="237"/>
      <point x="208.002" y="237" type="curve" smooth="yes"/>
      <point x="258.158" y="237"/>
      <point x="317.757" y="259"/>
      <point x="357" y="292" type="curve"/>
      <point x="359" y="290" type="line"/>
      <point x="322.725" y="138.854"/>
      <point x="201.525" y="22.0537"/>
      <point x="56" y="-2" type="curve"/>
      <point x="59" y="-22" type="line"/>
      <point x="299" y="-6.88189"/>
      <point x="459" y="159.234"/>
      <point x="459" y="393.29" type="curve" smooth="yes"/>
      <point x="459" y="563"/>
      <point x="363" y="676"/>
      <point x="235.069" y="676" type="curve" smooth="yes"/>
      <point x="112.028" y="676"/>
      <point x="30" y="579.6"/>
    </contour>
    <contour>
      <point x="122" y="475.122" type="curve" smooth="yes"/>
      <point x="122" y="578.849"/>
      <point x="166.657" y="648"/>
      <point x="233.643" y="648" type="curve" smooth="yes"/>
      <point x="310.288" y="648"/>
      <point x="361.384" y="546.4"/>
      <point x="361.384" y="394" type="curve" smooth="yes"/>
      <point x="361.384" y="369.986"/>
      <point x="360.886" y="353.268"/>
      <point x="358.148" y="321.265" type="curve"/>
      <point x="339.969" y="296.506"/>
      <point x="293.177" y="280"/>
      <point x="241.168" y="280" type="curve" smooth="yes"/>
      <point x="169.667" y="280"/>
      <point x="122" y="358.049"/>
    </contour>
  </outline>
</glyph>
<glyph name="colon" format="2">
  <advance width="278"/>
  <unicode hex="003A"/>
  <outline>
    <contour>
      <point x="81" y="43" type="curve" smooth="yes"/>
      <point x="81" y="14"/>
      <point x="106" y="-11"/>
      <point x="135" y="-11" type="curve" smooth="yes"/>
      <point x="166" y="-11"/>
      <point x="192" y="14"/>
      <point x="192" y="43" type="curve" smooth="yes"/>
      <point x="192" y="74"/>
      <point x="166" y="100"/>
      <point x="136" y="100" type="curve" smooth="yes"/>
      <point x="106" y="100"/>
      <point x="81" y="74"/>
    </contour>
    <contour>
      <point x="81" y="402" type="curve" smooth="yes"/>
      <point x="81" y="373"/>
      <point x="106" y="348"/>
      <point x="135" y="348" type="curve" smooth="yes"/>
      <point x="166" y="348"/>
      <point x="192" y="373"/>
      <point x="192" y="402" type="curve" smooth="yes"/>
      <point x="192" y="433"/>
      <point x="166" y="459"/>
      <point x="136" y="459" type="curve" smooth="yes"/>
      <point x="106" y="459"/>
      <point x="81" y="433"/>
    </contour>
  </outline>
</glyph>
<glyph name="semicolon" format="2">
  <advance width="278"/>
  <unicode hex="003B"/>
  <outline>
    <contour>
      <point x="80" y="46" type="curve" smooth="yes"/>
      <point x="80" y="13"/>
      <point x="102" y="-6"/>
      <point x="139" y="-6" type="curve" smooth="yes"/>
      <point x="148.682" y="-6"/>
      <point x="160.198" y="-5"/>
      <point x="166" y="-2" type="curve"/>
      <point x="174" y="-2"/>
      <point x="180" y="-8"/>
      <point x="180" y="-20.6572" type="curve" smooth="yes"/>
      <point x="180" y="-48"/>
      <point x="152" y="-85"/>
      <point x="98" y="-122" type="curve"/>
      <point x="107" y="-141" type="line"/>
      <point x="176" y="-107"/>
      <point x="219" y="-47"/>
      <point x="219" y="10.828" type="curve" smooth="yes"/>
      <point x="219" y="63"/>
      <point x="184" y="102"/>
      <point x="139" y="102" type="curve" smooth="yes"/>
      <point x="104" y="102"/>
      <point x="80" y="80"/>
    </contour>
    <contour>
      <point x="81" y="402" type="curve" smooth="yes"/>
      <point x="81" y="373"/>
      <point x="106" y="348"/>
      <point x="135" y="348" type="curve" smooth="yes"/>
      <point x="166" y="348"/>
      <point x="192" y="373"/>
      <point x="192" y="402" type="curve" smooth="yes"/>
      <point x="192" y="433"/>
      <point x="166" y="459"/>
      <point x="136" y="459" type="curve" smooth="yes"/>
      <point x="106" y="459"/>
      <point x="81" y="433"/>
    </contour>
  </outline>
</glyph>
<glyph name="A" format="2">
  <advance width="719"/>
  <unicode hex="0041"/>
  <anchor x="360" y="735" name="top"/>
  <anchor x="357" y="638" name="t.ring"/>
  <anchor x="583" y="0" name="b.ogonek"/>
  <anchor x="340" y="-50" name="bottom"/>
  <anchor x="200" y="690" name="gr.diacritics"/>
  <anchor x="94" y="690" name="tonos"/>
  <outline>
    <contour>
      <point x="14" y="0" type="line"/>
      <point x="212" y="0" type="line"/>
      <point x="212" y="19" type="line"/>
      <point x="164" y="19"/>
      <point x="144" y="32"/>
      <point x="144" y="60" type="curve" smooth="yes"/>
      <point x="144" y="72"/>
      <point x="147" y="86"/>
      <point x="152" y="99" type="curve" smooth="yes"/>
      <point x="198" y="216" type="line"/>
      <point x="460" y="216" type="line"/>
      <point x="501" y="120" type="line" smooth="yes"/>
      <point x="513" y="93"/>
      <point x="520" y="67"/>
      <point x="520" y="53" type="curve" smooth="yes"/>
      <point x="520" y="31.5612"/>
      <point x="500.765" y="20.9592"/>
      <point x="450" y="19" type="curve"/>
      <point x="450" y="0" type="line"/>
      <point x="705" y="0" type="line"/>
      <point x="705" y="19" type="line"/>
      <point x="660" y="22"/>
      <point x="647.996" y="30.998"/>
      <point x="615" y="106" type="curve" smooth="yes"/>
      <point x="366" y="672" type="line"/>
      <point x="346" y="672" type="line"/>
      <point x="138" y="183" type="line" smooth="yes"/>
      <point x="75.5529" y="36.1894"/>
      <point x="62" y="21"/>
      <point x="14" y="19" type="curve"/>
    </contour>
    <contour>
      <point x="215" y="257" type="line"/>
      <point x="330" y="530" type="line"/>
      <point x="446" y="257" type="line"/>
    </contour>
  </outline>
  <guideline angle="0" x="0" y="735"/>
</glyph>
<glyph name="B" format="2">
  <advance width="622"/>
  <unicode hex="0042"/>
  <anchor x="277" y="735" name="top"/>
  <anchor x="276" y="-50" name="bottom"/>
  <outline>
    <contour>
      <point x="12" y="0" type="line"/>
      <point x="346" y="0" type="line" smooth="yes"/>
      <point x="457" y="0"/>
      <point x="588" y="45"/>
      <point x="588" y="176" type="curve" smooth="yes"/>
      <point x="588" y="266.438"/>
      <point x="521.361" y="333.992"/>
      <point x="419.315" y="347" type="curve"/>
      <point x="421.146" y="343.452" type="line"/>
      <point x="420.862" y="353.198" type="line"/>
      <point x="419.315" y="349" type="line"/>
      <point x="506.732" y="359.72"/>
      <point x="554" y="410.257"/>
      <point x="554" y="493" type="curve" smooth="yes"/>
      <point x="554" y="636"/>
      <point x="405" y="662"/>
      <point x="292" y="662" type="curve" smooth="yes"/>
      <point x="12" y="662" type="line"/>
      <point x="12" y="643" type="line"/>
      <point x="88" y="640"/>
      <point x="108" y="631"/>
      <point x="108" y="553" type="curve" smooth="yes"/>
      <point x="108" y="109" type="line" smooth="yes"/>
      <point x="108" y="32"/>
      <point x="88" y="19"/>
      <point x="12" y="19" type="curve"/>
    </contour>
    <contour>
      <point x="211" y="78" type="curve" smooth="yes"/>
      <point x="211" y="326" type="line"/>
      <point x="216" y="326" type="line" smooth="yes"/>
      <point x="322" y="326"/>
      <point x="474" y="325"/>
      <point x="474" y="180" type="curve" smooth="yes"/>
      <point x="474" y="67"/>
      <point x="384.958" y="37"/>
      <point x="286" y="37" type="curve" smooth="yes"/>
      <point x="248.747" y="37"/>
      <point x="211" y="43.1135"/>
    </contour>
    <contour>
      <point x="211" y="365" type="line"/>
      <point x="211" y="575" type="line" smooth="yes"/>
      <point x="211" y="614.72"/>
      <point x="237.922" y="625"/>
      <point x="277" y="625" type="curve" smooth="yes"/>
      <point x="369" y="625"/>
      <point x="452" y="593"/>
      <point x="452" y="487" type="curve" smooth="yes"/>
      <point x="452" y="374"/>
      <point x="326.514" y="365"/>
      <point x="216" y="365" type="curve" smooth="yes"/>
    </contour>
  </outline>
  <guideline angle="90" x="421" y="0"/>
  <guideline angle="0" x="0" y="349"/>
  <guideline angle="0" x="0" y="347"/>
</glyph>
<glyph name="C" format="2">
  <advance width="667"/>
  <unicode hex="0043"/>
  <anchor x="348" y="735" name="top"/>
  <anchor x="364" y="0" name="b.cedilla"/>
  <outline>
    <contour>
      <point x="28" y="331.994" type="curve" smooth="yes"/>
      <point x="28" y="127.592"/>
      <point x="155" y="-12"/>
      <point x="362" y="-12" type="curve" smooth="yes"/>
      <point x="458" y="-12"/>
      <point x="577" y="32"/>
      <point x="633" y="115" type="curve"/>
      <point x="615" y="133" type="line"/>
      <point x="551" y="70"/>
      <point x="482" y="32"/>
      <point x="389" y="32" type="curve" smooth="yes"/>
      <point x="217" y="32"/>
      <point x="144" y="175.522"/>
      <point x="144" y="330.007" type="curve" smooth="yes"/>
      <point x="144" y="476.928"/>
      <point x="213.735" y="632"/>
      <point x="377" y="632" type="curve" smooth="yes"/>
      <point x="494" y="632"/>
      <point x="571" y="558"/>
      <point x="597" y="447" type="curve"/>
      <point x="620" y="447" type="line"/>
      <point x="620" y="672" type="line"/>
      <point x="599" y="672" type="line"/>
      <point x="592" y="649"/>
      <point x="576" y="639"/>
      <point x="553" y="639" type="curve" smooth="yes"/>
      <point x="519" y="639"/>
      <point x="466" y="672"/>
      <point x="369" y="672" type="curve" smooth="yes"/>
      <point x="169.306" y="672"/>
      <point x="28" y="530.026"/>
    </contour>
  </outline>
</glyph>
<glyph name="D" format="2">
  <advance width="718"/>
  <unicode hex="0044"/>
  <anchor x="175" y="337" name="middle"/>
  <anchor x="300" y="735" name="top"/>
  <anchor x="300" y="-50" name="bottom"/>
  <anchor x="300" y="0" name="b.cedilla"/>
  <outline>
    <contour>
      <point x="16" y="0" type="line"/>
      <point x="300" y="0" type="line" smooth="yes"/>
      <point x="508" y="0"/>
      <point x="685" y="105"/>
      <point x="685" y="336.201" type="curve" smooth="yes"/>
      <point x="685" y="570"/>
      <point x="504" y="662"/>
      <point x="286" y="662" type="curve" smooth="yes"/>
      <point x="16" y="662" type="line"/>
      <point x="16" y="643" type="line"/>
      <point x="90" y="639"/>
      <point x="104" y="627"/>
      <point x="104" y="553" type="curve" smooth="yes"/>
      <point x="104" y="109" type="line" smooth="yes"/>
      <point x="104" y="38"/>
      <point x="88" y="19"/>
      <point x="16" y="19" type="curve"/>
    </contour>
    <contour>
      <point x="204" y="78" type="curve" smooth="yes"/>
      <point x="204" y="586" type="line" smooth="yes"/>
      <point x="204" y="619"/>
      <point x="218" y="625"/>
      <point x="251" y="625" type="curve" smooth="yes"/>
      <point x="442.125" y="625"/>
      <point x="574" y="531.398"/>
      <point x="574" y="324.056" type="curve" smooth="yes"/>
      <point x="574" y="123"/>
      <point x="450" y="37"/>
      <point x="260" y="37" type="curve" smooth="yes"/>
      <point x="227" y="37"/>
      <point x="204" y="38"/>
    </contour>
  </outline>
</glyph>
<glyph name="E" format="2">
  <advance width="611"/>
  <unicode hex="0045"/>
  <anchor x="304" y="735" name="top"/>
  <anchor x="344" y="0" name="b.ogonek"/>
  <anchor x="323" y="-50" name="bottom"/>
  <anchor x="0" y="690" name="gr.diacritics"/>
  <anchor x="-120" y="690" name="tonos"/>
  <outline>
    <contour>
      <point x="12" y="0" type="line"/>
      <point x="552" y="0" type="line"/>
      <point x="597" y="169" type="line"/>
      <point x="569" y="169" type="line"/>
      <point x="519" y="61"/>
      <point x="476" y="38"/>
      <point x="333" y="38" type="curve" smooth="yes"/>
      <point x="247.727" y="38" type="line" smooth="yes"/>
      <point x="214.851" y="38"/>
      <point x="201" y="47.9799"/>
      <point x="201" y="80" type="curve" smooth="yes"/>
      <point x="201" y="326" type="line"/>
      <point x="355" y="326" type="line" smooth="yes"/>
      <point x="437" y="326"/>
      <point x="452" y="313"/>
      <point x="465" y="230" type="curve"/>
      <point x="488" y="230" type="line"/>
      <point x="488" y="462" type="line"/>
      <point x="465" y="462" type="line"/>
      <point x="454" y="396"/>
      <point x="449" y="368"/>
      <point x="355" y="368" type="curve" smooth="yes"/>
      <point x="201" y="368" type="line"/>
      <point x="201" y="587" type="line" smooth="yes"/>
      <point x="201" y="615"/>
      <point x="207" y="624"/>
      <point x="234" y="624" type="curve" smooth="yes"/>
      <point x="369" y="624" type="line" smooth="yes"/>
      <point x="482" y="624"/>
      <point x="504" y="606"/>
      <point x="521" y="516" type="curve"/>
      <point x="546" y="516" type="line"/>
      <point x="543" y="662" type="line"/>
      <point x="12" y="662" type="line"/>
      <point x="12" y="643" type="line"/>
      <point x="86" y="637"/>
      <point x="99" y="623"/>
      <point x="99" y="553" type="curve" smooth="yes"/>
      <point x="99" y="109" type="line" smooth="yes"/>
      <point x="99" y="39"/>
      <point x="85" y="24"/>
      <point x="12" y="19" type="curve"/>
    </contour>
  </outline>
</glyph>
<glyph name="G" format="2">
  <advance width="722"/>
  <unicode hex="0047"/>
  <anchor x="364" y="735" name="top"/>
  <anchor x="371" y="-50" name="bottom"/>
  <outline>
    <contour>
      <point x="32" y="323.035" type="curve" smooth="yes"/>
      <point x="32" y="119.441"/>
      <point x="172.95" y="-14"/>
      <point x="388" y="-14" type="curve" smooth="yes"/>
      <point x="473.75" y="-14"/>
      <point x="598.883" y="20.8977"/>
      <point x="639" y="56" type="curve"/>
      <point x="639" y="259" type="line" smooth="yes"/>
      <point x="639" y="317.9"/>
      <point x="650.901" y="330.991"/>
      <point x="709" y="336" type="curve"/>
      <point x="709" y="354" type="line"/>
      <point x="454" y="354" type="line"/>
      <point x="454" y="336" type="line"/>
      <point x="531.333" y="330.703"/>
      <point x="542" y="319.915"/>
      <point x="542" y="247" type="curve" smooth="yes"/>
      <point x="542" y="85" type="line" smooth="yes"/>
      <point x="542" y="53.0301"/>
      <point x="481.068" y="26"/>
      <point x="409" y="26" type="curve" smooth="yes"/>
      <point x="245.97" y="26"/>
      <point x="146" y="139.286"/>
      <point x="146" y="324.033" type="curve" smooth="yes"/>
      <point x="146" y="511.25"/>
      <point x="242.454" y="632"/>
      <point x="392" y="632" type="curve" smooth="yes"/>
      <point x="493.243" y="632"/>
      <point x="558.039" y="580.465"/>
      <point x="607" y="461" type="curve"/>
      <point x="630" y="461" type="line"/>
      <point x="630" y="672" type="line"/>
      <point x="608" y="672" type="line"/>
      <point x="601.836" y="652.479"/>
      <point x="583.455" y="639"/>
      <point x="563" y="639" type="curve" smooth="yes"/>
      <point x="528" y="639"/>
      <point x="475" y="672"/>
      <point x="375" y="672" type="curve" smooth="yes"/>
      <point x="175.325" y="672"/>
      <point x="32" y="526.183"/>
    </contour>
  </outline>
</glyph>
<glyph name="H" format="2">
  <advance width="715"/>
  <unicode hex="0048"/>
  <anchor x="353" y="735" name="top"/>
  <anchor x="353" y="-50" name="bottom"/>
  <anchor x="146" y="0" name="b.cedilla"/>
  <anchor x="0" y="690" name="gr.diacritics"/>
  <anchor x="310" y="-50" name="b.ypogegrammeni"/>
  <anchor x="-120" y="690" name="tonos"/>
  <outline>
    <contour>
      <point x="100" y="108.5" type="line" smooth="yes" name=".sk1"/>
      <point x="100" y="33.5"/>
      <point x="86" y="21.5"/>
      <point x="2" y="18.5" type="curve"/>
      <point x="2" y="-0.5" type="line"/>
      <point x="300" y="-0.5" type="line"/>
      <point x="300" y="18.5" type="line"/>
      <point x="218" y="21.5"/>
      <point x="202" y="35.5"/>
      <point x="202" y="108.5" type="curve" smooth="yes"/>
      <point x="202" y="553" type="line" smooth="yes" name=".sk4"/>
      <point x="202" y="626"/>
      <point x="216" y="639"/>
      <point x="300" y="643" type="curve"/>
      <point x="300" y="662" type="line"/>
      <point x="3" y="662" type="line"/>
      <point x="3" y="643" type="line"/>
      <point x="88" y="638"/>
      <point x="100" y="627"/>
      <point x="100" y="553" type="curve" smooth="yes"/>
    </contour>
    <contour>
      <point x="505" y="108.5" type="line" smooth="yes" name=".sk2"/>
      <point x="505" y="33.5"/>
      <point x="492" y="21.5"/>
      <point x="408" y="18.5" type="curve"/>
      <point x="408" y="-0.5" type="line"/>
      <point x="556" y="-0.5" type="line" name=".sk3"/>
      <point x="556" y="-0.5" type="line"/>
      <point x="705" y="-0.5" type="line"/>
      <point x="705" y="18.5" type="line"/>
      <point x="623" y="21.5"/>
      <point x="607" y="35.5"/>
      <point x="607" y="108.5" type="curve" smooth="yes"/>
      <point x="607" y="553" type="line" smooth="yes" name=".sk5"/>
      <point x="607" y="626"/>
      <point x="621" y="639"/>
      <point x="705" y="643" type="curve"/>
      <point x="705" y="662" type="line"/>
      <point x="408" y="662" type="line"/>
      <point x="408" y="643" type="line"/>
      <point x="493" y="638"/>
      <point x="505" y="627"/>
      <point x="505" y="553" type="curve" smooth="yes"/>
    </contour>
    <contour>
      <point x="182" y="318" type="line"/>
      <point x="525" y="318" type="line"/>
      <point x="525" y="359" type="line"/>
      <point x="182" y="359" type="line"/>
    </contour>
  </outline>
  <guideline angle="90" name="gh" x="353" y="0"/>
</glyph>
<glyph name="I" format="2">
  <advance width="322"/>
  <unicode hex="0049"/>
  <anchor x="161" y="735" name="top"/>
  <anchor x="161" y="0" name="b.ogonek"/>
  <anchor x="169" y="-50" name="bottom"/>
  <anchor x="0" y="690" name="gr.diacritics"/>
  <anchor x="-120" y="690" name="tonos"/>
  <outline>
    <contour>
      <point x="110" y="109" type="line" smooth="yes" name=".sk1"/>
      <point x="110" y="34"/>
      <point x="96" y="22"/>
      <point x="12" y="19" type="curve"/>
      <point x="12" y="0" type="line"/>
      <point x="310" y="0" type="line"/>
      <point x="310" y="19" type="line"/>
      <point x="228" y="22"/>
      <point x="212" y="36"/>
      <point x="212" y="109" type="curve" smooth="yes"/>
      <point x="212" y="553" type="line" smooth="yes" name=".sk2"/>
      <point x="212" y="626"/>
      <point x="226" y="639"/>
      <point x="310" y="643" type="curve"/>
      <point x="310" y="662" type="line"/>
      <point x="13" y="662" type="line"/>
      <point x="13" y="643" type="line"/>
      <point x="98" y="638"/>
      <point x="110" y="627"/>
      <point x="110" y="553" type="curve" smooth="yes"/>
    </contour>
  </outline>
</glyph>
<glyph name="J" format="2">
  <advance width="351"/>
  <unicode hex="004A"/>
  <anchor x="189" y="735" name="top"/>
  <outline>
    <contour>
      <point x="12" y="50.0988" type="curve" smooth="yes"/>
      <point x="12" y="11.9729"/>
      <point x="46.8953" y="-14"/>
      <point x="98.1186" y="-14" type="curve" smooth="yes"/>
      <point x="199" y="-14"/>
      <point x="240" y="58"/>
      <point x="240" y="183" type="curve" smooth="yes"/>
      <point x="240" y="553" type="line" smooth="yes"/>
      <point x="240" y="626"/>
      <point x="251" y="637"/>
      <point x="332" y="643" type="curve"/>
      <point x="332" y="662" type="line"/>
      <point x="45" y="662" type="line"/>
      <point x="45" y="643" type="line"/>
      <point x="127" y="636.912"/>
      <point x="138" y="625.75"/>
      <point x="138" y="551.675" type="curve" smooth="yes"/>
      <point x="138" y="81.8575" type="line" smooth="yes"/>
      <point x="138" y="36.1949"/>
      <point x="125.518" y="9.94442"/>
      <point x="103.279" y="9.94442" type="curve" smooth="yes"/>
      <point x="98.9594" y="9.94442"/>
      <point x="95.9736" y="12.9484"/>
      <point x="95.9736" y="17.4067" type="curve" smooth="yes"/>
      <point x="95.9736" y="22.2795"/>
      <point x="98.9594" y="25.6137"/>
      <point x="102.111" y="29.197" type="curve" smooth="yes"/>
      <point x="104.86" y="32.3234"/>
      <point x="113" y="41.3316"/>
      <point x="113" y="60.722" type="curve" smooth="yes"/>
      <point x="113" y="92.8509"/>
      <point x="87" y="108"/>
      <point x="63.4982" y="108" type="curve" smooth="yes"/>
      <point x="34" y="108"/>
      <point x="12" y="85"/>
    </contour>
  </outline>
  <guideline angle="90" name="gh" x="189" y="0"/>
</glyph>
<glyph name="K" format="2">
  <advance width="700"/>
  <unicode hex="004B"/>
  <anchor x="346" y="-50" name="bottom"/>
  <anchor x="331" y="735" name="top"/>
  <outline>
    <contour>
      <point x="12" y="0" type="line"/>
      <point x="294" y="0" type="line"/>
      <point x="294" y="19" type="line"/>
      <point x="216" y="24"/>
      <point x="204" y="36"/>
      <point x="204" y="109" type="curve" smooth="yes"/>
      <point x="204" y="271.126" type="line"/>
      <point x="501" y="565" type="line" smooth="yes"/>
      <point x="568" y="631"/>
      <point x="585" y="638"/>
      <point x="653" y="643" type="curve"/>
      <point x="653" y="662" type="line"/>
      <point x="391" y="662" type="line"/>
      <point x="391" y="643" type="line"/>
      <point x="417" y="643" type="line" smooth="yes"/>
      <point x="447.067" y="643"/>
      <point x="459" y="632"/>
      <point x="459" y="612" type="curve" smooth="yes"/>
      <point x="459" y="590"/>
      <point x="434.159" y="561.916"/>
      <point x="381" y="509" type="curve" smooth="yes"/>
      <point x="204" y="332.811" type="line"/>
      <point x="204" y="553" type="line" smooth="yes"/>
      <point x="204" y="626"/>
      <point x="215" y="637"/>
      <point x="296" y="643" type="curve"/>
      <point x="296" y="662" type="line"/>
      <point x="12" y="662" type="line"/>
      <point x="12" y="643" type="line"/>
      <point x="90" y="637"/>
      <point x="102" y="624"/>
      <point x="102" y="553" type="curve" smooth="yes"/>
      <point x="102" y="120" type="line" smooth="yes"/>
      <point x="102" y="37"/>
      <point x="91" y="24"/>
      <point x="12" y="19" type="curve"/>
    </contour>
    <contour>
      <point x="237.412" y="347.409" type="line"/>
      <point x="338.08" y="231.066" type="line" smooth="yes"/>
      <point x="405.944" y="152.636"/>
      <point x="484.134" y="50.4128"/>
      <point x="484.134" y="35.9074" type="curve" smooth="yes"/>
      <point x="484.134" y="25.2972"/>
      <point x="482.884" y="19"/>
      <point x="462.149" y="19" type="curve" smooth="yes"/>
      <point x="441.427" y="19" type="line"/>
      <point x="441.427" y="0" type="line"/>
      <point x="700" y="0" type="line"/>
      <point x="700" y="19" type="line"/>
      <point x="654.489" y="20.7504"/>
      <point x="631.385" y="45.572"/>
      <point x="544.259" y="146.066" type="curve" smooth="yes"/>
      <point x="318" y="407.039" type="line"/>
    </contour>
  </outline>
  <guideline angle="44.6969" x="311" y="438.684"/>
  <guideline angle="44.6969" x="311" y="377"/>
</glyph>
<glyph name="O" format="2">
  <advance width="722"/>
  <unicode hex="004F"/>
  <anchor x="348" y="735" name="top"/>
  <anchor x="381" y="0" name="b.ogonek"/>
  <anchor x="361" y="-50" name="bottom"/>
  <anchor x="80" y="690" name="gr.diacritics"/>
  <anchor x="-46" y="690" name="tonos"/>
  <outline>
    <contour>
      <point x="34" y="330.012" type="curve" smooth="yes"/>
      <point x="34" y="138.261"/>
      <point x="162" y="-10"/>
      <point x="361" y="-10" type="curve" smooth="yes"/>
      <point x="560" y="-10"/>
      <point x="688" y="138.261"/>
      <point x="688" y="330.012" type="curve" smooth="yes"/>
      <point x="688" y="521.762"/>
      <point x="560" y="672"/>
      <point x="361" y="672" type="curve" smooth="yes"/>
      <point x="162" y="672"/>
      <point x="34" y="521.762"/>
    </contour>
    <contour>
      <point x="148" y="331" type="curve" smooth="yes"/>
      <point x="148" y="463.265"/>
      <point x="197" y="636"/>
      <point x="361" y="636" type="curve" smooth="yes"/>
      <point x="525" y="636"/>
      <point x="574" y="463.265"/>
      <point x="574" y="331" type="curve" smooth="yes"/>
      <point x="574" y="196.761"/>
      <point x="527" y="26"/>
      <point x="361" y="26" type="curve" smooth="yes"/>
      <point x="195" y="26"/>
      <point x="148" y="196.761"/>
    </contour>
  </outline>
</glyph>
<glyph name="P" format="2">
  <advance width="552"/>
  <unicode hex="0050"/>
  <anchor x="282" y="735" name="top"/>
  <anchor x="0" y="690" name="gr.diacritics"/>
  <anchor x="-120" y="690" name="tonos"/>
  <anchor x="276" y="-50" name="bottom"/>
  <anchor x="102" y="-50" name="b.ypogegrammeni"/>
  <outline>
    <contour>
      <point x="12" y="0" type="line"/>
      <point x="292" y="0" type="line"/>
      <point x="292" y="19" type="line"/>
      <point x="213" y="22"/>
      <point x="198" y="37"/>
      <point x="198" y="110" type="curve" smooth="yes"/>
      <point x="198" y="591" type="line" smooth="yes"/>
      <point x="198" y="618"/>
      <point x="205" y="625.024"/>
      <point x="232" y="625" type="curve" smooth="yes"/>
      <point x="257.112" y="624.977" type="line"/>
      <point x="381.176" y="624.865"/>
      <point x="429" y="583.137"/>
      <point x="429" y="475" type="curve" smooth="yes"/>
      <point x="429" y="379.404"/>
      <point x="371.569" y="328"/>
      <point x="264.765" y="328" type="curve" smooth="yes"/>
      <point x="235" y="328"/>
      <point x="191" y="332"/>
      <point x="168" y="336" type="curve"/>
      <point x="168" y="296" type="line"/>
      <point x="194" y="292"/>
      <point x="241" y="288"/>
      <point x="267" y="288" type="curve" smooth="yes"/>
      <point x="436.215" y="288"/>
      <point x="538" y="358.642"/>
      <point x="538" y="471.216" type="curve" smooth="yes"/>
      <point x="538" y="585.403"/>
      <point x="432.811" y="662"/>
      <point x="276" y="662" type="curve" smooth="yes"/>
      <point x="12" y="662" type="line"/>
      <point x="12" y="643" type="line"/>
      <point x="86" y="635"/>
      <point x="96" y="625"/>
      <point x="96" y="553" type="curve" smooth="yes"/>
      <point x="96" y="110" type="line" smooth="yes"/>
      <point x="96" y="37"/>
      <point x="88" y="26"/>
      <point x="12" y="19" type="curve"/>
    </contour>
  </outline>
</glyph>
<glyph name="Q" format="2">
  <advance width="722"/>
  <unicode hex="0051"/>
  <outline>
    <component base="O"/>
    <contour>
      <point x="310.189" y="-5.63196" type="line"/>
      <point x="441.08" y="-15.7152"/>
      <point x="417.072" y="-170"/>
      <point x="582.492" y="-170" type="curve" smooth="yes"/>
      <point x="639.877" y="-170"/>
      <point x="673.11" y="-156.385"/>
      <point x="696" y="-136.827" type="curve"/>
      <point x="688.034" y="-121.047" type="line"/>
      <point x="667.578" y="-133.472"/>
      <point x="639.394" y="-142.057"/>
      <point x="612.955" y="-142.047" type="curve" smooth="yes"/>
      <point x="558.018" y="-142.025"/>
      <point x="572.333" y="-22.9239"/>
      <point x="395.043" y="-10.0134" type="curve"/>
      <point x="395.043" y="17.1686" type="line"/>
      <point x="310.189" y="13.0157" type="line"/>
    </contour>
  </outline>
</glyph>
<glyph name="S" format="2">
  <advance width="556"/>
  <unicode hex="0053"/>
  <anchor x="278" y="735" name="top"/>
  <anchor x="304" y="0" name="b.cedilla"/>
  <anchor x="284" y="-50" name="bottom"/>
  <outline>
    <contour>
      <point x="42" y="-10" type="line"/>
      <point x="64" y="-10" type="line"/>
      <point x="64" y="9.90495"/>
      <point x="71.7308" y="24"/>
      <point x="101.023" y="24" type="curve" smooth="yes"/>
      <point x="120.548" y="24"/>
      <point x="138.752" y="17.7379"/>
      <point x="159.51" y="10.5886" type="curve" smooth="yes"/>
      <point x="187.121" y="1.07912"/>
      <point x="219.253" y="-10"/>
      <point x="285.063" y="-10" type="curve" smooth="yes"/>
      <point x="387" y="-10"/>
      <point x="491" y="54.2978"/>
      <point x="491" y="168.056" type="curve" smooth="yes"/>
      <point x="491" y="270.855"/>
      <point x="405.27" y="326.543"/>
      <point x="320.528" y="375.584" type="curve" smooth="yes"/>
      <point x="304.928" y="384.612" type="line" smooth="yes"/>
      <point x="228.292" y="428.962"/>
      <point x="157" y="470.017"/>
      <point x="157" y="540.081" type="curve" smooth="yes"/>
      <point x="157" y="596.378"/>
      <point x="203" y="631"/>
      <point x="263.684" y="631" type="curve" smooth="yes"/>
      <point x="356" y="631"/>
      <point x="425" y="550"/>
      <point x="444" y="459" type="curve"/>
      <point x="469" y="459" type="line"/>
      <point x="469" y="672" type="line"/>
      <point x="448" y="672" type="line"/>
      <point x="447" y="653"/>
      <point x="433" y="638"/>
      <point x="410.687" y="638" type="curve" smooth="yes"/>
      <point x="398.543" y="638"/>
      <point x="387.546" y="642.145"/>
      <point x="372.183" y="648.723" type="curve" smooth="yes"/>
      <point x="347.956" y="659.095"/>
      <point x="314.542" y="672"/>
      <point x="246.287" y="672" type="curve" smooth="yes"/>
      <point x="151" y="672"/>
      <point x="71" y="607.696"/>
      <point x="71" y="506.918" type="curve" smooth="yes"/>
      <point x="71" y="401.931"/>
      <point x="157.92" y="348.213"/>
      <point x="240.874" y="301.217" type="curve" smooth="yes"/>
      <point x="260.728" y="289.969" type="line" smooth="yes"/>
      <point x="329.391" y="251.07"/>
      <point x="390" y="209.948"/>
      <point x="390" y="136.966" type="curve" smooth="yes"/>
      <point x="390" y="67.5398"/>
      <point x="335" y="25"/>
      <point x="261.849" y="25" type="curve" smooth="yes"/>
      <point x="159" y="25"/>
      <point x="102" y="110"/>
      <point x="65" y="202" type="curve"/>
      <point x="42" y="202" type="line"/>
    </contour>
  </outline>
</glyph>
<glyph name="T" format="2">
  <advance width="611"/>
  <unicode hex="0054"/>
  <anchor x="314" y="0" name="b.cedilla"/>
  <anchor x="305" y="735" name="top"/>
  <anchor x="305" y="-50" name="bottom"/>
  <outline>
    <contour>
      <point x="254" y="108.5" type="line" smooth="yes" name=".sk1"/>
      <point x="254" y="33.5"/>
      <point x="241" y="21.5"/>
      <point x="157" y="18.5" type="curve"/>
      <point x="157" y="-0.5" type="line"/>
      <point x="305" y="-0.5" type="line" name=".sk2"/>
      <point x="305" y="-0.5" type="line"/>
      <point x="454" y="-0.5" type="line"/>
      <point x="454" y="18.5" type="line"/>
      <point x="372" y="21.5"/>
      <point x="356" y="35.5"/>
      <point x="356" y="108.5" type="curve" smooth="yes"/>
      <point x="356" y="635" type="line"/>
      <point x="254" y="635" type="line"/>
    </contour>
    <contour>
      <point x="17" y="492" type="line"/>
      <point x="41" y="492" type="line"/>
      <point x="65" y="601"/>
      <point x="88" y="620"/>
      <point x="200" y="620" type="curve" smooth="yes"/>
      <point x="410" y="620" type="line" smooth="yes"/>
      <point x="524" y="620"/>
      <point x="546" y="602"/>
      <point x="569" y="492" type="curve"/>
      <point x="593" y="492" type="line"/>
      <point x="593" y="662" type="line"/>
      <point x="17" y="662" type="line"/>
    </contour>
  </outline>
</glyph>
<glyph name="U" format="2">
  <advance width="722"/>
  <unicode hex="0055"/>
  <anchor x="358" y="735" name="top"/>
  <anchor x="358" y="715" name="t.ring"/>
  <anchor x="401" y="0" name="b.ogonek"/>
  <anchor x="361" y="-50" name="bottom"/>
  <outline>
    <contour>
      <point x="14" y="643" type="line"/>
      <point x="93" y="637.037"/>
      <point x="104" y="626.104"/>
      <point x="104" y="553.548" type="curve" smooth="yes"/>
      <point x="104" y="243.447" type="line" smooth="yes"/>
      <point x="104" y="71.5007"/>
      <point x="185" y="-10"/>
      <point x="355" y="-10" type="curve" smooth="yes"/>
      <point x="542.968" y="-10"/>
      <point x="611" y="84.3636"/>
      <point x="611" y="256.368" type="curve" smooth="yes"/>
      <point x="611" y="515.779" type="line" smooth="yes"/>
      <point x="611" y="617.158"/>
      <point x="623" y="633.061"/>
      <point x="705" y="643" type="curve"/>
      <point x="705" y="662" type="line"/>
      <point x="473" y="662" type="line"/>
      <point x="473" y="643" type="line"/>
      <point x="551" y="637.039"/>
      <point x="567" y="615.183"/>
      <point x="567" y="515.835" type="curve" smooth="yes"/>
      <point x="567" y="247.597" type="line" smooth="yes"/>
      <point x="567" y="118.187"/>
      <point x="528.815" y="34"/>
      <point x="378" y="34" type="curve" smooth="yes"/>
      <point x="240.556" y="34"/>
      <point x="206" y="116.583"/>
      <point x="206" y="235.675" type="curve" smooth="yes"/>
      <point x="206" y="553.587" type="line" smooth="yes"/>
      <point x="206" y="625.117"/>
      <point x="217" y="636.046"/>
      <point x="297" y="643" type="curve"/>
      <point x="297" y="662" type="line"/>
      <point x="14" y="662" type="line"/>
    </contour>
  </outline>
</glyph>
<glyph name="V" format="2">
  <advance width="722"/>
  <unicode hex="0056"/>
  <anchor x="371" y="735" name="top"/>
  <anchor x="374" y="-50" name="bottom"/>
  <outline>
    <contour>
      <point x="16" y="643" type="line"/>
      <point x="65" y="641"/>
      <point x="82" y="628"/>
      <point x="122" y="538" type="curve" smooth="yes"/>
      <point x="368" y="-11" type="line"/>
      <point x="383" y="-11" type="line"/>
      <point x="605" y="550" type="line" smooth="yes"/>
      <point x="637" y="630"/>
      <point x="649" y="640"/>
      <point x="697" y="643" type="curve"/>
      <point x="697" y="662" type="line"/>
      <point x="492" y="662" type="line"/>
      <point x="492" y="643" type="line"/>
      <point x="547" y="640"/>
      <point x="565" y="629"/>
      <point x="565" y="601" type="curve" smooth="yes"/>
      <point x="565" y="585"/>
      <point x="558" y="558"/>
      <point x="546" y="528" type="curve" smooth="yes"/>
      <point x="399" y="161" type="line"/>
      <point x="248" y="499" type="line" smooth="yes"/>
      <point x="215" y="572"/>
      <point x="207" y="595"/>
      <point x="207" y="610" type="curve" smooth="yes"/>
      <point x="207" y="629"/>
      <point x="221.014" y="638.794"/>
      <point x="253" y="641" type="curve" smooth="yes"/>
      <point x="282" y="643" type="line"/>
      <point x="282" y="662" type="line"/>
      <point x="16" y="662" type="line"/>
    </contour>
  </outline>
</glyph>
<glyph name="X" format="2">
  <advance width="722"/>
  <unicode hex="0058"/>
  <anchor x="371" y="735" name="top"/>
  <anchor x="374" y="-50" name="bottom"/>
  <outline>
    <contour>
      <point x="325.909" y="309.128" type="line"/>
      <point x="433" y="148" type="line" smooth="yes"/>
      <point x="465.7" y="98.7995"/>
      <point x="484" y="65"/>
      <point x="484" y="51.6199" type="curve" smooth="yes"/>
      <point x="484" y="34.1825"/>
      <point x="453.429" y="21.8028"/>
      <point x="407" y="19" type="curve"/>
      <point x="407" y="0" type="line"/>
      <point x="704" y="0" type="line"/>
      <point x="704" y="19" type="line"/>
      <point x="651" y="25"/>
      <point x="634.488" y="34.342"/>
      <point x="593" y="93" type="curve" smooth="yes"/>
      <point x="388.084" y="382.723" type="line"/>
      <point x="270.036" y="557.412" type="line" smooth="yes"/>
      <point x="255.379" y="579.1"/>
      <point x="248" y="598.085"/>
      <point x="248" y="613" type="curve" smooth="yes"/>
      <point x="248" y="638.268"/>
      <point x="267.976" y="639.515"/>
      <point x="324" y="643" type="curve"/>
      <point x="324" y="662" type="line"/>
      <point x="22" y="662" type="line"/>
      <point x="22" y="643" type="line"/>
      <point x="87" y="640"/>
      <point x="113.782" y="612.779"/>
      <point x="150.142" y="560.732" type="curve" smooth="yes"/>
    </contour>
    <contour>
      <point x="10" y="0" type="line"/>
      <point x="243" y="0" type="line"/>
      <point x="243" y="19" type="line"/>
      <point x="185" y="23"/>
      <point x="167" y="31"/>
      <point x="167" y="50.8654" type="curve" smooth="yes"/>
      <point x="167" y="69"/>
      <point x="182" y="94"/>
      <point x="219" y="140" type="curve" smooth="yes"/>
      <point x="347.399" y="299.69" type="line"/>
      <point x="321.466" y="337.636" type="line"/>
      <point x="155" y="133" type="line" smooth="yes"/>
      <point x="68" y="26"/>
      <point x="61" y="23"/>
      <point x="10" y="19" type="curve"/>
    </contour>
    <contour>
      <point x="391.532" y="355.366" type="line"/>
      <point x="584.776" y="592.825" type="line" smooth="yes"/>
      <point x="604.09" y="616.559"/>
      <point x="635.81" y="638.314"/>
      <point x="696" y="643" type="curve"/>
      <point x="696" y="662" type="line"/>
      <point x="458" y="662" type="line"/>
      <point x="458" y="643" type="line"/>
      <point x="512" y="641"/>
      <point x="528" y="634"/>
      <point x="528" y="611" type="curve" smooth="yes"/>
      <point x="528" y="596"/>
      <point x="520.849" y="583.292"/>
      <point x="511.549" y="571.86" type="curve" smooth="yes"/>
      <point x="365.534" y="392.364" type="line"/>
    </contour>
  </outline>
</glyph>
<glyph name="Y" format="2">
  <advance width="722"/>
  <unicode hex="0059"/>
  <anchor x="375" y="735" name="top"/>
  <anchor x="374" y="-50" name="bottom"/>
  <outline>
    <contour>
      <point x="214" y="0" type="line"/>
      <point x="520" y="0" type="line"/>
      <point x="520" y="19" type="line"/>
      <point x="431" y="19"/>
      <point x="417" y="33"/>
      <point x="417" y="109" type="curve" smooth="yes"/>
      <point x="417" y="303" type="line"/>
      <point x="565" y="529" type="line" smooth="yes"/>
      <point x="624" y="619"/>
      <point x="652" y="639"/>
      <point x="703" y="643" type="curve"/>
      <point x="703" y="662" type="line"/>
      <point x="484" y="662" type="line"/>
      <point x="484" y="643" type="line"/>
      <point x="536" y="641"/>
      <point x="553" y="633"/>
      <point x="553" y="609" type="curve" smooth="yes"/>
      <point x="553" y="599"/>
      <point x="548" y="588"/>
      <point x="539" y="573" type="curve" smooth="yes"/>
      <point x="396" y="347" type="line"/>
      <point x="248" y="569" type="line" smooth="yes"/>
      <point x="237" y="585"/>
      <point x="231" y="601"/>
      <point x="231" y="612" type="curve" smooth="yes"/>
      <point x="231" y="630"/>
      <point x="245.04" y="638.443"/>
      <point x="277" y="641" type="curve" smooth="yes"/>
      <point x="302" y="643" type="line"/>
      <point x="302" y="662" type="line"/>
      <point x="22" y="662" type="line"/>
      <point x="22" y="643" type="line"/>
      <point x="70" y="641"/>
      <point x="87" y="629"/>
      <point x="184" y="486" type="curve" smooth="yes"/>
      <point x="315" y="294" type="line"/>
      <point x="315" y="120" type="line" smooth="yes"/>
      <point x="315" y="33"/>
      <point x="305" y="23"/>
      <point x="214" y="19" type="curve"/>
    </contour>
  </outline>
</glyph>
<glyph name="Z" format="2">
  <advance width="611"/>
  <unicode hex="005A"/>
  <anchor x="303" y="735" name="top"/>
  <anchor x="303" y="-50" name="bottom"/>
  <outline>
    <contour>
      <point x="9" y="0" type="line"/>
      <point x="573" y="0" type="line"/>
      <point x="597" y="176" type="line"/>
      <point x="574" y="176" type="line"/>
      <point x="554.846" y="93.2"/>
      <point x="486.446" y="38"/>
      <point x="403" y="38" type="curve" smooth="yes"/>
      <point x="145" y="38" type="line"/>
      <point x="577" y="647" type="line"/>
      <point x="577" y="662" type="line"/>
      <point x="51" y="662" type="line"/>
      <point x="31" y="491" type="line"/>
      <point x="57" y="491" type="line"/>
      <point x="71.0824" y="570.8"/>
      <point x="138.282" y="624"/>
      <point x="225" y="624" type="curve" smooth="yes"/>
      <point x="446" y="624" type="line"/>
      <point x="9" y="15" type="line"/>
    </contour>
  </outline>
</glyph>
<glyph name="backslash" format="2">
  <advance width="278"/>
  <unicode hex="005C"/>
  <outline>
    <contour>
      <point x="-9" y="676" type="line"/>
      <point x="219" y="-14" type="line"/>
      <point x="287" y="-14" type="line"/>
      <point x="58" y="676" type="line"/>
    </contour>
  </outline>
</glyph>
<glyph name="bracketright" format="2">
  <advance width="333"/>
  <unicode hex="005D"/>
  <outline>
    <contour>
      <point x="34" y="-131" type="line"/>
      <point x="34" y="-156" type="line"/>
      <point x="245" y="-156" type="line"/>
      <point x="245" y="662" type="line"/>
      <point x="34" y="662" type="line"/>
      <point x="34" y="637" type="line"/>
      <point x="120" y="637" type="line" smooth="yes"/>
      <point x="153" y="637"/>
      <point x="169" y="620"/>
      <point x="169" y="585" type="curve" smooth="yes"/>
      <point x="169" y="-87" type="line" smooth="yes"/>
      <point x="169" y="-118"/>
      <point x="155" y="-131"/>
      <point x="124" y="-131" type="curve" smooth="yes"/>
    </contour>
  </outline>
</glyph>
<glyph name="grave" format="2">
  <advance width="303"/>
  <unicode hex="0060"/>
  <outline>
    <contour>
      <point x="40" y="663" type="curve" smooth="yes"/>
      <point x="40" y="647"/>
      <point x="50.6952" y="631.53"/>
      <point x="69" y="620" type="curve" smooth="yes"/>
      <point x="223" y="523" type="line"/>
      <point x="263" y="523" type="line"/>
      <point x="116" y="671" type="line" smooth="yes"/>
      <point x="98.0611" y="689.061"/>
      <point x="89" y="694"/>
      <point x="74" y="694" type="curve" smooth="yes"/>
      <point x="53" y="694"/>
      <point x="40" y="682"/>
    </contour>
  </outline>
  <guideline angle="0" x="0" y="523"/>
  <guideline angle="0" x="0" y="691"/>
</glyph>
<glyph name="a" format="2">
  <advance width="437"/>
  <unicode hex="0061"/>
  <anchor x="211" y="523" name="top"/>
  <anchor x="211" y="503" name="t.ring"/>
  <anchor x="345" y="0" name="b.ogonek"/>
  <anchor x="203" y="-50" name="bottom"/>
  <outline>
    <contour>
      <point x="30" y="97.1761" type="curve" smooth="yes"/>
      <point x="30" y="34"/>
      <point x="76" y="-9"/>
      <point x="136" y="-9" type="curve" smooth="yes"/>
      <point x="191" y="-9"/>
      <point x="242" y="29"/>
      <point x="281" y="64" type="curve"/>
      <point x="284" y="20"/>
      <point x="300" y="-9"/>
      <point x="344.896" y="-9" type="curve" smooth="yes"/>
      <point x="384" y="-9"/>
      <point x="411" y="13"/>
      <point x="435" y="41" type="curve"/>
      <point x="423.859" y="57.6273" type="line"/>
      <point x="413.894" y="48.8309"/>
      <point x="408" y="47"/>
      <point x="398.836" y="47" type="curve" smooth="yes"/>
      <point x="363" y="47"/>
      <point x="361" y="75"/>
      <point x="361" y="97" type="curve" smooth="yes"/>
      <point x="361" y="301" type="line" smooth="yes"/>
      <point x="361" y="407"/>
      <point x="329" y="461"/>
      <point x="212" y="461" type="curve" smooth="yes"/>
      <point x="150" y="461"/>
      <point x="49" y="427"/>
      <point x="49" y="356.554" type="curve" smooth="yes"/>
      <point x="49" y="326"/>
      <point x="68" y="306"/>
      <point x="94.0211" y="306" type="curve" smooth="yes"/>
      <point x="115" y="306"/>
      <point x="140" y="319"/>
      <point x="140" y="344.659" type="curve" smooth="yes"/>
      <point x="140" y="352.863"/>
      <point x="137.444" y="361.923"/>
      <point x="133.159" y="370.207" type="curve" smooth="yes"/>
      <point x="132.445" y="371.587"/>
      <point x="130" y="376.199"/>
      <point x="130" y="384.856" type="curve" smooth="yes"/>
      <point x="130" y="422"/>
      <point x="175" y="437"/>
      <point x="207.512" y="437" type="curve" smooth="yes"/>
      <point x="255" y="437"/>
      <point x="280" y="405"/>
      <point x="280" y="354" type="curve" smooth="yes"/>
      <point x="280" y="293" type="line"/>
      <point x="246.038" y="280.328" type="line" smooth="yes"/>
      <point x="154.872" y="246.958"/>
      <point x="30" y="201.266"/>
    </contour>
    <contour>
      <point x="118" y="128.092" type="curve" smooth="yes"/>
      <point x="118" y="210"/>
      <point x="214" y="247"/>
      <point x="280" y="269" type="curve"/>
      <point x="280" y="100.001" type="line"/>
      <point x="258.887" y="77.6865"/>
      <point x="212.686" y="49"/>
      <point x="179.59" y="49" type="curve" smooth="yes"/>
      <point x="141" y="49"/>
      <point x="118" y="88"/>
    </contour>
  </outline>
</glyph>
<glyph name="b" format="2">
  <advance width="498"/>
  <unicode hex="0062"/>
  <anchor x="260" y="735" name="top"/>
  <anchor x="259" y="-50" name="bottom"/>
  <outline>
    <contour>
      <point x="69" y="-10" type="line"/>
      <point x="79.4112" y="-10.3665" type="line"/>
      <point x="153" y="47.1413" type="line"/>
      <point x="153" y="680" type="line"/>
      <point x="3" y="680" type="line"/>
      <point x="3" y="664" type="line"/>
      <point x="46.1135" y="659.352"/>
      <point x="69" y="641.135"/>
      <point x="69" y="614" type="curve" smooth="yes"/>
    </contour>
    <contour>
      <point x="124.828" y="38.5545" type="line"/>
      <point x="140.861" y="15.8539"/>
      <point x="186.49" y="-10"/>
      <point x="234" y="-10" type="curve" smooth="yes"/>
      <point x="366" y="-10"/>
      <point x="468" y="100"/>
      <point x="468" y="243" type="curve" smooth="yes"/>
      <point x="468" y="366"/>
      <point x="392" y="460"/>
      <point x="292" y="460" type="curve" smooth="yes"/>
      <point x="231" y="460"/>
      <point x="173" y="424"/>
      <point x="153" y="375" type="curve"/>
      <point x="125" y="375.108" type="line"/>
      <point x="125" y="322.149" type="line"/>
      <point x="153" y="322" type="line"/>
      <point x="153" y="361"/>
      <point x="200" y="397"/>
      <point x="252" y="397" type="curve" smooth="yes"/>
      <point x="330" y="397"/>
      <point x="380" y="319"/>
      <point x="380" y="201.311" type="curve" smooth="yes"/>
      <point x="380" y="86"/>
      <point x="332" y="22"/>
      <point x="248.223" y="22" type="curve" smooth="yes"/>
      <point x="198" y="22"/>
      <point x="153" y="45"/>
      <point x="153" y="70" type="curve" smooth="yes"/>
      <point x="153" y="76.6196" type="line"/>
      <point x="125" y="76.6196" type="line"/>
    </contour>
  </outline>
</glyph>
<glyph name="c" format="2">
  <advance width="444"/>
  <unicode hex="0063"/>
  <anchor x="246" y="523" name="top"/>
  <anchor x="219" y="0" name="b.cedilla"/>
  <outline>
    <contour>
      <point x="25" y="213" type="curve" smooth="yes"/>
      <point x="25" y="82.8605"/>
      <point x="104.119" y="-10"/>
      <point x="215" y="-10" type="curve" smooth="yes"/>
      <point x="296.779" y="-10"/>
      <point x="371.95" y="49.9079"/>
      <point x="412" y="147" type="curve"/>
      <point x="398" y="156" type="line"/>
      <point x="350" y="86"/>
      <point x="314" y="62"/>
      <point x="257" y="62" type="curve" smooth="yes"/>
      <point x="165.795" y="62"/>
      <point x="102" y="142.258"/>
      <point x="102" y="257" type="curve" smooth="yes"/>
      <point x="102" y="360.316"/>
      <point x="157.247" y="431"/>
      <point x="238" y="431" type="curve" smooth="yes"/>
      <point x="280.767" y="431"/>
      <point x="303" y="406.639"/>
      <point x="303" y="370" type="curve" smooth="yes"/>
      <point x="303" y="331.906"/>
      <point x="324.677" y="315"/>
      <point x="350.5" y="315" type="curve" smooth="yes"/>
      <point x="377.959" y="315"/>
      <point x="398" y="331.095"/>
      <point x="398" y="359.779" type="curve" smooth="yes"/>
      <point x="398" y="413.091"/>
      <point x="327.864" y="460"/>
      <point x="244" y="460" type="curve" smooth="yes"/>
      <point x="120.229" y="460"/>
      <point x="25" y="352.596"/>
    </contour>
  </outline>
</glyph>
<glyph name="d" format="2">
  <advance width="509"/>
  <unicode hex="0064"/>
  <anchor x="362" y="536" name="middle"/>
  <anchor x="240" y="735" name="top"/>
  <anchor x="240" y="-50" name="bottom"/>
  <anchor x="203" y="0" name="b.cedilla"/>
  <outline>
    <contour>
      <point x="349" y="-7" type="line"/>
      <point x="353" y="-10" type="line"/>
      <point x="394.389" y="5.6411"/>
      <point x="436.192" y="18.3704"/>
      <point x="479.126" y="27.5413" type="curve" smooth="yes"/>
      <point x="500" y="32" type="line"/>
      <point x="500" y="48" type="line"/>
      <point x="451.897" y="52.3276"/>
      <point x="433" y="67.8123"/>
      <point x="433" y="104" type="curve" smooth="yes"/>
      <point x="433" y="680" type="line"/>
      <point x="280.401" y="680" type="line"/>
      <point x="280.401" y="664" type="line"/>
      <point x="317.773" y="659.506"/>
      <point x="349" y="643.711"/>
      <point x="349" y="614" type="curve" smooth="yes"/>
    </contour>
    <contour>
      <point x="30.8773" y="195" type="curve" smooth="yes"/>
      <point x="30.8773" y="72.2845"/>
      <point x="97.9584" y="-10"/>
      <point x="198" y="-10" type="curve" smooth="yes"/>
      <point x="257.58" y="-10"/>
      <point x="322.219" y="21.4051"/>
      <point x="359.194" y="79.1372" type="curve"/>
      <point x="359.194" y="119.793" type="line"/>
      <point x="351.749" y="119.793" type="line"/>
      <point x="350.329" y="91.2351"/>
      <point x="292.024" y="49.1992"/>
      <point x="242.078" y="49.1992" type="curve" smooth="yes"/>
      <point x="170.767" y="49.1992"/>
      <point x="114" y="127.801"/>
      <point x="114" y="226.541" type="curve" smooth="yes"/>
      <point x="114" y="342.027"/>
      <point x="169.988" y="432"/>
      <point x="241.852" y="432" type="curve" smooth="yes"/>
      <point x="299.568" y="432"/>
      <point x="349" y="385"/>
      <point x="349" y="332" type="curve"/>
      <point x="359" y="331.98" type="line"/>
      <point x="359" y="417.059" type="line"/>
      <point x="349" y="417" type="line"/>
      <point x="310.665" y="449"/>
      <point x="283.427" y="460"/>
      <point x="246.243" y="460" type="curve" smooth="yes"/>
      <point x="118.695" y="460"/>
      <point x="30.8773" y="351.944"/>
    </contour>
  </outline>
</glyph>
<glyph name="e" format="2">
  <advance width="444"/>
  <unicode hex="0065"/>
  <anchor x="225" y="523" name="top"/>
  <anchor x="236" y="0" name="b.ogonek"/>
  <anchor x="219" y="-50" name="bottom"/>
  <outline>
    <contour>
      <point x="25" y="212.307" type="curve" smooth="yes"/>
      <point x="25" y="75.7971"/>
      <point x="97.1707" y="-10"/>
      <point x="212" y="-10" type="curve" smooth="yes"/>
      <point x="307.051" y="-10"/>
      <point x="382.022" y="49.0578"/>
      <point x="424" y="157" type="curve"/>
      <point x="408" y="164" type="line"/>
      <point x="360.449" y="88.7112"/>
      <point x="317.577" y="59"/>
      <point x="256.489" y="59" type="curve" smooth="yes"/>
      <point x="159.517" y="59"/>
      <point x="97.0453" y="143.414"/>
      <point x="97.0453" y="274.447" type="curve" smooth="yes"/>
      <point x="97.0453" y="363.83"/>
      <point x="141.495" y="422"/>
      <point x="209.794" y="422" type="curve" smooth="yes"/>
      <point x="266.866" y="422"/>
      <point x="303" y="382.653"/>
      <point x="303" y="304.094" type="curve" smooth="yes"/>
      <point x="303" y="279" type="line"/>
      <point x="84" y="279" type="line"/>
      <point x="82" y="247" type="line"/>
      <point x="405" y="247" type="line"/>
      <point x="405" y="270" type="line" smooth="yes"/>
      <point x="405" y="383.111"/>
      <point x="337.094" y="460"/>
      <point x="237.198" y="460" type="curve" smooth="yes"/>
      <point x="110.55" y="460"/>
      <point x="25" y="360.14"/>
    </contour>
  </outline>
</glyph>
<glyph name="g" format="2">
  <advance width="479"/>
  <unicode hex="0067"/>
  <anchor x="246" y="523" name="top"/>
  <outline>
    <contour>
      <point x="27" y="-122.114" type="curve" smooth="yes"/>
      <point x="27" y="-197.799"/>
      <point x="149" y="-220"/>
      <point x="204" y="-220" type="curve" smooth="yes"/>
      <point x="296" y="-220"/>
      <point x="460" y="-162.694"/>
      <point x="460" y="-50.0914" type="curve" smooth="yes"/>
      <point x="460" y="20.2849"/>
      <point x="403.001" y="54.4911"/>
      <point x="339" y="57.4839" type="curve" smooth="yes"/>
      <point x="210" y="63.5161" type="line" smooth="yes"/>
      <point x="192.989" y="64.3116"/>
      <point x="132" y="72.5449"/>
      <point x="132" y="90.6613" type="curve" smooth="yes"/>
      <point x="132" y="112.955"/>
      <point x="175.938" y="147.1"/>
      <point x="200.497" y="156.478" type="curve"/>
      <point x="167.805" y="168.534" type="line"/>
      <point x="141.969" y="153.978"/>
      <point x="72" y="94.8526"/>
      <point x="72" y="54" type="curve" smooth="yes"/>
      <point x="72" y="25"/>
      <point x="92.2177" y="8.2259"/>
      <point x="125" y="1" type="curve"/>
      <point x="88" y="-25.2374"/>
      <point x="27" y="-70.6484"/>
    </contour>
    <contour>
      <point x="68" y="293" type="curve" smooth="yes"/>
      <point x="68" y="193.099"/>
      <point x="158.955" y="149"/>
      <point x="246" y="149" type="curve" smooth="yes"/>
      <point x="329" y="149"/>
      <point x="405" y="209"/>
      <point x="405" y="296" type="curve" smooth="yes"/>
      <point x="405" y="342.148"/>
      <point x="392.655" y="377.934"/>
      <point x="364.372" y="414.226" type="curve"/>
      <point x="296" y="439.87" type="line"/>
      <point x="345.748" y="403.008"/>
      <point x="402.99" y="388"/>
      <point x="455.686" y="388" type="curve" smooth="yes"/>
      <point x="470" y="388" type="line"/>
      <point x="470" y="427" type="line"/>
      <point x="416" y="427" type="line" smooth="yes"/>
      <point x="389" y="427"/>
      <point x="362" y="428"/>
      <point x="337" y="437" type="curve" smooth="yes"/>
      <point x="321.505" y="442.442" type="line" smooth="yes"/>
      <point x="294.267" y="452.13"/>
      <point x="263.537" y="460"/>
      <point x="240" y="460" type="curve" smooth="yes"/>
      <point x="142" y="460"/>
      <point x="68" y="393"/>
    </contour>
    <contour>
      <point x="97" y="-89.0818" type="curve" smooth="yes"/>
      <point x="97" y="-65.7925"/>
      <point x="104" y="-52.6289"/>
      <point x="146" y="-2" type="curve"/>
      <point x="179" y="-9"/>
      <point x="259" y="-15"/>
      <point x="308" y="-15" type="curve" smooth="yes"/>
      <point x="399" y="-15"/>
      <point x="432" y="-28.1781"/>
      <point x="432" y="-64.6712" type="curve" smooth="yes"/>
      <point x="432" y="-123.466"/>
      <point x="356" y="-163"/>
      <point x="243" y="-163" type="curve" smooth="yes"/>
      <point x="155" y="-163"/>
      <point x="97" y="-133.635"/>
    </contour>
    <contour>
      <point x="151" y="302" type="curve" smooth="yes"/>
      <point x="151" y="383.722"/>
      <point x="184" y="432"/>
      <point x="236" y="432" type="curve" smooth="yes"/>
      <point x="304.585" y="432"/>
      <point x="328" y="372"/>
      <point x="328" y="290" type="curve" smooth="yes"/>
      <point x="328" y="243"/>
      <point x="300" y="174"/>
      <point x="245" y="174" type="curve" smooth="yes"/>
      <point x="179.734" y="174"/>
      <point x="151" y="236"/>
    </contour>
  </outline>
</glyph>
<glyph name="h" format="2">
  <advance width="550"/>
  <unicode hex="0068"/>
  <anchor x="166" y="536" name="middle"/>
  <anchor x="250" y="735" name="top"/>
  <anchor x="284" y="-50" name="bottom"/>
  <anchor x="141" y="0" name="b.cedilla"/>
  <outline>
    <component base="l"/>
    <contour>
      <point x="386" y="90" type="line" smooth="yes" name=".sk2"/>
      <point x="386" y="26.5295"/>
      <point x="367.996" y="19.5251"/>
      <point x="316" y="15" type="curve"/>
      <point x="316" y="0" type="line"/>
      <point x="540" y="0" type="line"/>
      <point x="540" y="15" type="line"/>
      <point x="487.756" y="19.5358"/>
      <point x="470" y="26.7313"/>
      <point x="470" y="90" type="curve" smooth="yes"/>
      <point x="470" y="310" type="line" smooth="yes"/>
      <point x="470" y="404"/>
      <point x="426" y="460"/>
      <point x="349.502" y="460" type="curve" smooth="yes"/>
      <point x="306" y="460"/>
      <point x="259.874" y="446.221"/>
      <point x="197.238" y="376.963" type="curve" smooth="yes"/>
      <point x="162" y="338" type="line"/>
      <point x="162.272" y="296.919" type="line"/>
      <point x="200.238" y="345.963" type="line" smooth="yes"/>
      <point x="230.812" y="385.459"/>
      <point x="266.691" y="405"/>
      <point x="308.634" y="405" type="curve" smooth="yes"/>
      <point x="362" y="405"/>
      <point x="386" y="374"/>
      <point x="386" y="308" type="curve" smooth="yes"/>
    </contour>
  </outline>
</glyph>
<glyph name="k" format="2">
  <advance width="500"/>
  <unicode hex="006B"/>
  <anchor x="260" y="735" name="top"/>
  <anchor x="258" y="-50" name="bottom"/>
  <outline>
    <component base="l" xOffset="-16"/>
    <contour>
      <point x="139.995" y="227.281" type="line"/>
      <point x="166" y="251" type="line"/>
      <point x="306" y="64" type="line" smooth="yes"/>
      <point x="314.643" y="52.4548"/>
      <point x="327" y="36"/>
      <point x="327" y="28.4465" type="curve" smooth="yes"/>
      <point x="327" y="22"/>
      <point x="318" y="16"/>
      <point x="306" y="16" type="curve" smooth="yes"/>
      <point x="287" y="16" type="line"/>
      <point x="287" y="1" type="line"/>
      <point x="505" y="1" type="line"/>
      <point x="505" y="16" type="line"/>
      <point x="461" y="19"/>
      <point x="430" y="38"/>
      <point x="388" y="89" type="curve"/>
      <point x="235" y="283" type="line"/>
      <point x="322.498" y="362.066" type="line" smooth="yes"/>
      <point x="388.883" y="422.054"/>
      <point x="405.383" y="429.211"/>
      <point x="480" y="436" type="curve"/>
      <point x="480" y="451" type="line"/>
      <point x="276" y="451" type="line"/>
      <point x="276" y="437" type="line"/>
      <point x="311.991" y="435.039"/>
      <point x="326" y="429"/>
      <point x="326" y="418" type="curve" smooth="yes"/>
      <point x="326" y="410"/>
      <point x="316.769" y="396.264"/>
      <point x="303" y="384" type="curve" smooth="yes"/>
      <point x="140.184" y="238.983" type="line"/>
    </contour>
  </outline>
</glyph>
<glyph name="l" format="2">
  <advance width="278"/>
  <unicode hex="006C"/>
  <anchor x="110" y="735" name="top"/>
  <anchor x="138" y="-50" name="bottom"/>
  <anchor x="318" y="336" name="m.periodcentered"/>
  <outline>
    <contour>
      <point x="98" y="89.9975" type="line" smooth="yes" name=".sk1"/>
      <point x="98" y="26.527"/>
      <point x="79.9956" y="19.5226"/>
      <point x="28" y="14.9975" type="curve"/>
      <point x="28" y="-0.00250244" type="line"/>
      <point x="252" y="-0.00250244" type="line"/>
      <point x="252" y="14.9975" type="line"/>
      <point x="199.756" y="19.5333"/>
      <point x="182" y="26.7288"/>
      <point x="182" y="89.9975" type="curve" smooth="yes"/>
      <point x="182" y="680" type="line"/>
      <point x="140" y="680.042" type="line" name=".sk2"/>
      <point x="28" y="680.042" type="line"/>
      <point x="28" y="665.042" type="line"/>
      <point x="79.9956" y="660.517"/>
      <point x="98" y="653.512"/>
      <point x="98" y="590.042" type="curve" smooth="yes"/>
    </contour>
  </outline>
</glyph>
<glyph name="m" format="2">
  <advance width="786"/>
  <unicode hex="006D"/>
  <anchor x="397" y="523" name="top"/>
  <anchor x="397" y="-50" name="bottom"/>
  <outline>
    <contour>
      <point x="86" y="89.8952" type="line" smooth="yes" name=".sk3"/>
      <point x="86" y="26.4247"/>
      <point x="67.9956" y="19.4203"/>
      <point x="16" y="14.8952" type="curve"/>
      <point x="16" y="-0.104797" type="line"/>
      <point x="240" y="-0.104797" type="line"/>
      <point x="240" y="14.8952" type="line"/>
      <point x="187.756" y="19.431"/>
      <point x="170.002" y="26.6265"/>
      <point x="170.008" y="89.8952" type="curve" smooth="yes"/>
      <point x="170.032" y="386.82" type="line"/>
      <point x="165.936" y="386.809" type="line"/>
      <point x="166" y="450" type="line"/>
      <point x="128" y="450" type="line" name=".sk4"/>
      <point x="16" y="450" type="line"/>
      <point x="16" y="435" type="line"/>
      <point x="67.9956" y="430.475"/>
      <point x="86" y="423.471"/>
      <point x="86" y="360" type="curve" smooth="yes"/>
    </contour>
    <contour>
      <point x="354" y="89.8952" type="line" smooth="yes" name=".sk2"/>
      <point x="354" y="26.4247"/>
      <point x="335.996" y="19.4203"/>
      <point x="284" y="14.8952" type="curve"/>
      <point x="284" y="-0.104797" type="line"/>
      <point x="508" y="-0.104797" type="line"/>
      <point x="508" y="14.8952" type="line"/>
      <point x="455.756" y="19.431"/>
      <point x="438" y="26.6265"/>
      <point x="438" y="89.8952" type="curve" smooth="yes"/>
      <point x="438" y="347" type="line" smooth="yes"/>
      <point x="438" y="406.963"/>
      <point x="399.925" y="460"/>
      <point x="321" y="460" type="curve" smooth="yes"/>
      <point x="265.726" y="460"/>
      <point x="200.963" y="434.642"/>
      <point x="155.017" y="368.348" type="curve"/>
      <point x="159.244" y="334.975" type="line"/>
      <point x="194.094" y="384.727"/>
      <point x="242.586" y="408"/>
      <point x="288" y="408" type="curve" smooth="yes"/>
      <point x="332" y="408"/>
      <point x="354" y="373"/>
      <point x="354" y="303" type="curve" smooth="yes"/>
    </contour>
    <contour>
      <point x="622" y="89.8952" type="line" smooth="yes" name=".sk1"/>
      <point x="622" y="26.4247"/>
      <point x="603.996" y="19.4203"/>
      <point x="552" y="14.8952" type="curve"/>
      <point x="552" y="-0.104797" type="line"/>
      <point x="776" y="-0.104797" type="line"/>
      <point x="776" y="14.8952" type="line"/>
      <point x="723.756" y="19.431"/>
      <point x="706" y="26.6265"/>
      <point x="706" y="89.8952" type="curve" smooth="yes"/>
      <point x="706" y="344.488" type="line" smooth="yes"/>
      <point x="706" y="418.306"/>
      <point x="667" y="460"/>
      <point x="590" y="460" type="curve" smooth="yes"/>
      <point x="527.399" y="460"/>
      <point x="472.952" y="429.711"/>
      <point x="414.086" y="361.589" type="curve"/>
      <point x="427.778" y="331.203" type="line"/>
      <point x="460.472" y="385.422"/>
      <point x="495.523" y="408"/>
      <point x="547" y="408" type="curve" smooth="yes"/>
      <point x="604" y="408"/>
      <point x="622" y="381"/>
      <point x="622" y="298" type="curve" smooth="yes"/>
    </contour>
  </outline>
  <guideline angle="90" x="397" y="0"/>
</glyph>
<glyph name="n" format="2">
  <advance width="532"/>
  <unicode hex="006E"/>
  <anchor x="263" y="523" name="top"/>
  <anchor x="262" y="-50" name="bottom"/>
  <outline>
    <component base="dotlessi"/>
    <contour>
      <point x="368" y="90" type="line" smooth="yes" name=".sk2"/>
      <point x="368" y="26.5295"/>
      <point x="349.996" y="19.5251"/>
      <point x="298" y="15" type="curve"/>
      <point x="298" y="0" type="line"/>
      <point x="522" y="0" type="line"/>
      <point x="522" y="15" type="line"/>
      <point x="469.756" y="19.5358"/>
      <point x="452" y="26.7313"/>
      <point x="452" y="90" type="curve" smooth="yes"/>
      <point x="452" y="310" type="line" smooth="yes"/>
      <point x="452" y="404"/>
      <point x="408" y="460"/>
      <point x="331.502" y="460" type="curve" smooth="yes"/>
      <point x="288" y="460"/>
      <point x="241.874" y="446.221"/>
      <point x="179.238" y="376.963" type="curve" smooth="yes"/>
      <point x="144" y="338" type="line"/>
      <point x="144.272" y="296.919" type="line"/>
      <point x="182.238" y="345.963" type="line" smooth="yes"/>
      <point x="212.812" y="385.459"/>
      <point x="248.691" y="405"/>
      <point x="290.634" y="405" type="curve" smooth="yes"/>
      <point x="344" y="405"/>
      <point x="368" y="374"/>
      <point x="368" y="308" type="curve" smooth="yes"/>
    </contour>
  </outline>
  <guideline angle="90" name="gh" x="263" y="0"/>
  <guideline angle="90" x="21" y="0"/>
  <guideline angle="90" x="245" y="0"/>
</glyph>
<glyph name="o" format="2">
  <advance width="492"/>
  <unicode hex="006F"/>
  <anchor x="246" y="523" name="top"/>
  <anchor x="276" y="0" name="b.ogonek"/>
  <anchor x="246" y="-50" name="bottom"/>
  <outline>
    <contour>
      <point x="30" y="225" type="curve" smooth="yes"/>
      <point x="30" y="85"/>
      <point x="116" y="-10"/>
      <point x="246" y="-10" type="curve" smooth="yes"/>
      <point x="376" y="-10"/>
      <point x="462" y="85"/>
      <point x="462" y="225" type="curve" smooth="yes"/>
      <point x="462" y="365"/>
      <point x="376" y="460"/>
      <point x="246" y="460" type="curve" smooth="yes"/>
      <point x="116" y="460"/>
      <point x="30" y="365"/>
    </contour>
    <contour>
      <point x="119.752" y="237.582" type="curve" smooth="yes"/>
      <point x="119.926" y="313.131"/>
      <point x="144.442" y="429.934"/>
      <point x="242.367" y="429.934" type="curve" smooth="yes"/>
      <point x="346.521" y="429.934"/>
      <point x="372.431" y="289.609"/>
      <point x="372.248" y="210.418" type="curve" smooth="yes"/>
      <point x="372.074" y="134.869"/>
      <point x="347.558" y="18.0662"/>
      <point x="249.633" y="18.0662" type="curve" smooth="yes"/>
      <point x="145.479" y="18.0662"/>
      <point x="119.569" y="158.391"/>
    </contour>
  </outline>
  <guideline angle="90" name="gh" x="246" y="0"/>
</glyph>
<glyph name="p" format="2">
  <advance width="500"/>
  <unicode hex="0070"/>
  <anchor x="263" y="523" name="top"/>
  <outline>
    <contour>
      <point x="75" y="-120.013" type="line" smooth="yes" name=".sk1"/>
      <point x="75" y="-183.483"/>
      <point x="56.9956" y="-190.488"/>
      <point x="5" y="-195.013" type="curve"/>
      <point x="5" y="-210.013" type="line"/>
      <point x="229" y="-210.013" type="line"/>
      <point x="229" y="-195.013" type="line"/>
      <point x="176.756" y="-190.477"/>
      <point x="159" y="-183.282"/>
      <point x="159" y="-120.013" type="curve" smooth="yes"/>
      <point x="159" y="450" type="line"/>
      <point x="5" y="450.06" type="line"/>
      <point x="5" y="435.06" type="line"/>
      <point x="56.9956" y="430.534"/>
      <point x="75" y="423.53"/>
      <point x="75" y="360.06" type="curve" smooth="yes"/>
    </contour>
    <contour>
      <point x="140" y="32.6246" type="line"/>
      <point x="159" y="33" type="line"/>
      <point x="194.311" y="0"/>
      <point x="218.524" y="-10"/>
      <point x="255.662" y="-10" type="curve" smooth="yes"/>
      <point x="379.947" y="-10"/>
      <point x="470" y="102"/>
      <point x="470" y="245.747" type="curve" smooth="yes"/>
      <point x="470" y="371"/>
      <point x="401.628" y="460"/>
      <point x="301.075" y="460" type="curve" smooth="yes"/>
      <point x="247.782" y="460"/>
      <point x="203.391" y="435"/>
      <point x="159" y="381" type="curve"/>
      <point x="140" y="381" type="line"/>
      <point x="140" y="333.904" type="line"/>
      <point x="159" y="334" type="line"/>
      <point x="159" y="364"/>
      <point x="215.498" y="400"/>
      <point x="264.853" y="400" type="curve" smooth="yes"/>
      <point x="336.564" y="400"/>
      <point x="386" y="324"/>
      <point x="386" y="210.5" type="curve" smooth="yes"/>
      <point x="386" y="97"/>
      <point x="336.564" y="22"/>
      <point x="265.643" y="22" type="curve" smooth="yes"/>
      <point x="216.507" y="22"/>
      <point x="159" y="58"/>
      <point x="159" y="88" type="curve"/>
      <point x="140" y="88.0428" type="line"/>
    </contour>
  </outline>
</glyph>
<glyph name="q" format="2">
  <advance width="513"/>
  <unicode hex="0071"/>
  <outline>
    <contour>
      <point x="347" y="-120.142" type="line" smooth="yes" name=".sk1"/>
      <point x="347" y="-183.613"/>
      <point x="328.996" y="-190.617"/>
      <point x="277" y="-195.142" type="curve"/>
      <point x="277" y="-210.142" type="line"/>
      <point x="501" y="-210.142" type="line"/>
      <point x="501" y="-195.142" type="line"/>
      <point x="448.756" y="-190.606"/>
      <point x="431" y="-183.411"/>
      <point x="431" y="-120.142" type="curve" smooth="yes"/>
      <point x="431" y="460" type="line"/>
      <point x="427" y="460" type="line"/>
      <point x="347" y="436.628" type="line"/>
    </contour>
    <contour>
      <point x="30" y="202.067" type="curve" smooth="yes"/>
      <point x="30" y="75.7394"/>
      <point x="103.675" y="-10"/>
      <point x="212.226" y="-10" type="curve" smooth="yes"/>
      <point x="268.027" y="-10"/>
      <point x="323.801" y="23.0483"/>
      <point x="351.817" y="72.714" type="curve"/>
      <point x="383.196" y="72.8649" type="line"/>
      <point x="383.196" y="128.293" type="line"/>
      <point x="354.255" y="128.146" type="line"/>
      <point x="334.316" y="76.4089"/>
      <point x="299.894" y="51"/>
      <point x="249.744" y="51" type="curve" smooth="yes"/>
      <point x="168.718" y="51"/>
      <point x="114" y="127.589"/>
      <point x="114" y="241" type="curve" smooth="yes"/>
      <point x="114" y="354.773"/>
      <point x="168.839" y="432"/>
      <point x="249.63" y="432" type="curve" smooth="yes"/>
      <point x="311.51" y="432"/>
      <point x="347" y="395.915"/>
      <point x="347" y="333" type="curve" smooth="yes"/>
      <point x="347" y="315.735" type="line"/>
      <point x="403.08" y="315.735" type="line"/>
      <point x="403.08" y="438.221" type="line"/>
      <point x="382.338" y="437.792" type="line"/>
      <point x="335.895" y="454.731"/>
      <point x="307.582" y="460"/>
      <point x="263" y="460" type="curve" smooth="yes"/>
      <point x="128.165" y="460"/>
      <point x="30" y="351.331"/>
    </contour>
  </outline>
</glyph>
<glyph name="r" format="2">
  <advance width="344"/>
  <unicode hex="0072"/>
  <anchor x="169" y="523" name="top"/>
  <anchor x="136" y="-50" name="bottom"/>
  <outline>
    <contour>
      <point x="87" y="90" type="line" smooth="yes" name=".sk1"/>
      <point x="87" y="26.5295"/>
      <point x="68.9956" y="19.5251"/>
      <point x="17" y="15" type="curve"/>
      <point x="17" y="0" type="line"/>
      <point x="241" y="0" type="line"/>
      <point x="241" y="15" type="line"/>
      <point x="188.756" y="19.5358"/>
      <point x="171" y="26.7313"/>
      <point x="171" y="90" type="curve" smooth="yes"/>
      <point x="171" y="315" type="line" smooth="yes"/>
      <point x="171" y="347"/>
      <point x="214" y="397"/>
      <point x="239.072" y="397" type="curve" smooth="yes"/>
      <point x="247" y="397"/>
      <point x="256" y="392"/>
      <point x="268.723" y="380.691" type="curve" smooth="yes"/>
      <point x="283" y="368"/>
      <point x="294" y="362"/>
      <point x="307" y="362" type="curve" smooth="yes"/>
      <point x="331" y="362"/>
      <point x="346" y="379"/>
      <point x="346" y="407" type="curve" smooth="yes"/>
      <point x="346" y="440"/>
      <point x="325" y="460"/>
      <point x="288.327" y="460" type="curve" smooth="yes"/>
      <point x="249" y="460"/>
      <point x="220" y="437"/>
      <point x="171" y="366" type="curve"/>
      <point x="171" y="450" type="line"/>
      <point x="129" y="450.05" type="line" name=".sk2"/>
      <point x="17" y="450.05" type="line"/>
      <point x="17" y="435.05" type="line"/>
      <point x="68.9956" y="430.525"/>
      <point x="87" y="423.52"/>
      <point x="87" y="360.05" type="curve" smooth="yes"/>
    </contour>
  </outline>
</glyph>
<glyph name="s" format="2">
  <advance width="359"/>
  <unicode hex="0073"/>
  <anchor x="166" y="523" name="top"/>
  <anchor x="189" y="0" name="b.cedilla"/>
  <anchor x="181" y="-50" name="bottom"/>
  <outline>
    <contour>
      <point x="31" y="334.827" type="curve" smooth="yes"/>
      <point x="31" y="280"/>
      <point x="63" y="240"/>
      <point x="148" y="192" type="curve" smooth="yes"/>
      <point x="206" y="159" type="line" smooth="yes"/>
      <point x="241" y="139"/>
      <point x="258" y="115"/>
      <point x="258" y="84" type="curve" smooth="yes"/>
      <point x="258" y="40"/>
      <point x="226" y="12"/>
      <point x="171.363" y="12" type="curve" smooth="yes"/>
      <point x="73" y="12"/>
      <point x="55.6397" y="102.753"/>
      <point x="48" y="152" type="curve"/>
      <point x="32" y="152" type="line"/>
      <point x="32" y="-4" type="line"/>
      <point x="45" y="-4" type="line"/>
      <point x="52" y="6"/>
      <point x="56" y="8"/>
      <point x="66.6159" y="8" type="curve" smooth="yes"/>
      <point x="78.6763" y="8"/>
      <point x="93.8975" y="5.4187"/>
      <point x="110.979" y="0.955606" type="curve" smooth="yes"/>
      <point x="134.122" y="-5.09117"/>
      <point x="161.217" y="-10"/>
      <point x="184.38" y="-10" type="curve" smooth="yes"/>
      <point x="264" y="-10"/>
      <point x="328" y="48"/>
      <point x="328" y="122.424" type="curve" smooth="yes"/>
      <point x="328" y="168"/>
      <point x="304" y="201"/>
      <point x="244" y="237" type="curve" smooth="yes"/>
      <point x="136" y="301" type="line" smooth="yes"/>
      <point x="108" y="317"/>
      <point x="93" y="342"/>
      <point x="93" y="369" type="curve" smooth="yes"/>
      <point x="93" y="409"/>
      <point x="124" y="437"/>
      <point x="173.002" y="437" type="curve" smooth="yes"/>
      <point x="227" y="437"/>
      <point x="257" y="403"/>
      <point x="280" y="314" type="curve"/>
      <point x="295" y="314" type="line"/>
      <point x="295" y="450" type="line"/>
      <point x="284" y="450" type="line"/>
      <point x="279.963" y="445"/>
      <point x="274" y="440"/>
      <point x="264.965" y="440" type="curve" smooth="yes"/>
      <point x="259.615" y="440"/>
      <point x="247.953" y="441.753"/>
      <point x="238.477" y="446.176" type="curve" smooth="yes"/>
      <point x="226" y="452"/>
      <point x="200.894" y="459"/>
      <point x="170.375" y="459" type="curve" smooth="yes"/>
      <point x="88" y="459"/>
      <point x="31" y="408"/>
    </contour>
  </outline>
</glyph>
<glyph name="t" format="2">
  <advance width="278"/>
  <unicode hex="0074"/>
  <anchor x="159" y="0" name="b.cedilla"/>
  <anchor x="111" y="662" name="top"/>
  <anchor x="143" y="-50" name="bottom"/>
  <outline>
    <contour>
      <point x="13" y="418" type="line"/>
      <point x="70" y="418" type="line"/>
      <point x="70" y="117" type="line" smooth="yes"/>
      <point x="70" y="33"/>
      <point x="100" y="-10"/>
      <point x="159" y="-10" type="curve" smooth="yes"/>
      <point x="208" y="-10"/>
      <point x="246" y="14"/>
      <point x="279" y="66" type="curve"/>
      <point x="266" y="77" type="line"/>
      <point x="245" y="52"/>
      <point x="228" y="42"/>
      <point x="206" y="42" type="curve" smooth="yes"/>
      <point x="169" y="42"/>
      <point x="154" y="69"/>
      <point x="154" y="132" type="curve" smooth="yes"/>
      <point x="154" y="418" type="line"/>
      <point x="255" y="418" type="line"/>
      <point x="255" y="450" type="line"/>
      <point x="154" y="450" type="line"/>
      <point x="154" y="579" type="line"/>
      <point x="147" y="579" type="line"/>
      <point x="105.827" y="524.825"/>
      <point x="64.1416" y="470"/>
      <point x="13" y="425" type="curve"/>
    </contour>
  </outline>
</glyph>
<glyph name="v" format="2">
  <advance width="478"/>
  <unicode hex="0076"/>
  <anchor x="241" y="523" name="top"/>
  <anchor x="242" y="-50" name="bottom"/>
  <outline>
    <contour>
      <point x="10" y="435" type="line"/>
      <point x="45.6805" y="429.229"/>
      <point x="65.5468" y="403.145"/>
      <point x="78.5513" y="371.251" type="curve" smooth="yes"/>
      <point x="234" y="-10" type="line"/>
      <point x="256.272" y="-9.8611" type="line"/>
      <point x="403" y="357" type="line" smooth="yes"/>
      <point x="416.518" y="390.798"/>
      <point x="433.676" y="432.548"/>
      <point x="468" y="435" type="curve"/>
      <point x="468" y="450" type="line"/>
      <point x="329" y="450" type="line"/>
      <point x="329" y="435" type="line"/>
      <point x="349" y="434"/>
      <point x="376" y="427"/>
      <point x="376" y="402" type="curve" smooth="yes"/>
      <point x="376" y="394.479"/>
      <point x="373.46" y="379.852"/>
      <point x="366.526" y="361.854" type="curve" smooth="yes"/>
      <point x="267.08" y="103.7" type="line"/>
      <point x="275.743" y="103.7" type="line"/>
      <point x="172.835" y="358.869" type="line" smooth="yes"/>
      <point x="163.954" y="380.89"/>
      <point x="160" y="398.136"/>
      <point x="160" y="405" type="curve" smooth="yes"/>
      <point x="160" y="431"/>
      <point x="186" y="434"/>
      <point x="206" y="435" type="curve"/>
      <point x="206" y="450" type="line"/>
      <point x="10" y="450" type="line"/>
    </contour>
  </outline>
</glyph>
<glyph name="w" format="2">
  <advance width="693"/>
  <unicode hex="0077"/>
  <anchor x="341" y="523" name="top"/>
  <anchor x="350" y="-50" name="bottom"/>
  <anchor x="350" y="523" name="t.ring"/>
  <outline>
    <contour>
      <point x="10" y="435" type="line"/>
      <point x="33" y="433"/>
      <point x="42.6366" y="423.859"/>
      <point x="63" y="372" type="curve" smooth="yes"/>
      <point x="213" y="-10" type="line"/>
      <point x="233.414" y="-10.4696" type="line"/>
      <point x="361" y="265" type="line"/>
      <point x="466" y="-10" type="line"/>
      <point x="485.838" y="-10.2848" type="line"/>
      <point x="642" y="381" type="line" smooth="yes"/>
      <point x="658.938" y="423.44"/>
      <point x="663" y="428"/>
      <point x="683" y="435" type="curve"/>
      <point x="683" y="450" type="line"/>
      <point x="560" y="450" type="line"/>
      <point x="560" y="435" type="line"/>
      <point x="594" y="428"/>
      <point x="604" y="421"/>
      <point x="604" y="402.968" type="curve" smooth="yes"/>
      <point x="604" y="389"/>
      <point x="598" y="365"/>
      <point x="587" y="338" type="curve" smooth="yes"/>
      <point x="497" y="116" type="line"/>
      <point x="415" y="340" type="line" smooth="yes"/>
      <point x="412.493" y="346.848"/>
      <point x="396" y="389"/>
      <point x="396" y="406.615" type="curve" smooth="yes"/>
      <point x="396" y="421"/>
      <point x="407" y="428"/>
      <point x="454" y="435" type="curve"/>
      <point x="454" y="450" type="line"/>
      <point x="251" y="450" type="line"/>
      <point x="251" y="435" type="line"/>
      <point x="288" y="431"/>
      <point x="300" y="420"/>
      <point x="320" y="366" type="curve" smooth="yes"/>
      <point x="340" y="310" type="line"/>
      <point x="249" y="111" type="line"/>
      <point x="150" y="372" type="line" smooth="yes"/>
      <point x="146" y="382"/>
      <point x="144" y="392"/>
      <point x="144" y="400.987" type="curve" smooth="yes"/>
      <point x="144" y="423"/>
      <point x="156" y="431"/>
      <point x="190" y="435" type="curve"/>
      <point x="190" y="450" type="line"/>
      <point x="10" y="450" type="line"/>
    </contour>
  </outline>
  <guideline angle="90" x="361" y="0"/>
</glyph>
<glyph name="x" format="2">
  <advance width="482"/>
  <unicode hex="0078"/>
  <anchor x="234" y="523" name="top"/>
  <anchor x="235" y="-50" name="bottom"/>
  <outline>
    <contour>
      <point x="103" y="375" type="curve" smooth="yes"/>
      <point x="293.691" y="77.2079" type="line" smooth="yes"/>
      <point x="304.484" y="60.3542"/>
      <point x="311" y="46.3683"/>
      <point x="311" y="41" type="curve" smooth="yes"/>
      <point x="311" y="17"/>
      <point x="292" y="16"/>
      <point x="271" y="15" type="curve"/>
      <point x="271" y="0" type="line"/>
      <point x="472" y="0" type="line"/>
      <point x="472" y="15" type="line"/>
      <point x="433" y="17"/>
      <point x="408.668" y="42.7844"/>
      <point x="388" y="75" type="curve" smooth="yes"/>
      <point x="191.045" y="382" type="line" smooth="yes"/>
      <point x="183.351" y="393.994"/>
      <point x="181" y="403.54"/>
      <point x="181" y="412" type="curve" smooth="yes"/>
      <point x="181" y="434"/>
      <point x="208" y="435"/>
      <point x="224" y="435" type="curve"/>
      <point x="224" y="450" type="line"/>
      <point x="17" y="450" type="line"/>
      <point x="17" y="435" type="line"/>
      <point x="56.0899" y="431.296"/>
      <point x="77.7292" y="414.464"/>
    </contour>
    <contour>
      <point x="10" y="0" type="line"/>
      <point x="155" y="0" type="line"/>
      <point x="155" y="15" type="line"/>
      <point x="129" y="15"/>
      <point x="115" y="22.4139"/>
      <point x="115" y="36.1825" type="curve" smooth="yes"/>
      <point x="115" y="45.0355"/>
      <point x="118.213" y="52.426"/>
      <point x="127.528" y="65" type="curve" smooth="yes"/>
      <point x="229.95" y="203.25" type="line"/>
      <point x="213.293" y="237.02" type="line"/>
      <point x="83" y="66" type="line" smooth="yes"/>
      <point x="59.4665" y="35.1103"/>
      <point x="38" y="19"/>
      <point x="10" y="15" type="curve"/>
    </contour>
    <contour>
      <point x="254.443" y="235.427" type="line"/>
      <point x="365" y="391" type="line" smooth="yes"/>
      <point x="382.845" y="416.111"/>
      <point x="415" y="432.24"/>
      <point x="446" y="435" type="curve"/>
      <point x="446" y="450" type="line"/>
      <point x="288" y="450" type="line"/>
      <point x="288" y="435" type="line"/>
      <point x="304" y="434"/>
      <point x="328" y="431.296"/>
      <point x="328" y="412" type="curve" smooth="yes"/>
      <point x="328" y="405.746"/>
      <point x="321.306" y="390.686"/>
      <point x="310.035" y="375" type="curve" smooth="yes"/>
      <point x="233.451" y="268.421" type="line"/>
    </contour>
  </outline>
  <guideline angle="0" x="0" y="382"/>
  <guideline angle="53.2047" x="138" y="80"/>
</glyph>
<glyph name="y" format="2">
  <advance width="481"/>
  <unicode hex="0079"/>
  <anchor x="260" y="523" name="top"/>
  <anchor x="380" y="-50" name="bottom"/>
  <anchor x="260" y="523" name="t.ring"/>
  <outline>
    <contour>
      <point x="26" y="-140.774" type="curve" smooth="yes"/>
      <point x="26" y="-187"/>
      <point x="65.7444" y="-220"/>
      <point x="112.611" y="-220" type="curve" smooth="yes"/>
      <point x="174.744" y="-220"/>
      <point x="215" y="-162"/>
      <point x="269" y="-18" type="curve" smooth="yes"/>
      <point x="423" y="390" type="line"/>
      <point x="436" y="422"/>
      <point x="447" y="432"/>
      <point x="471" y="435" type="curve"/>
      <point x="471" y="450" type="line"/>
      <point x="336" y="450" type="line"/>
      <point x="336" y="435" type="line"/>
      <point x="368" y="435"/>
      <point x="384" y="426"/>
      <point x="384" y="410" type="curve" smooth="yes"/>
      <point x="384" y="406"/>
      <point x="382.525" y="400.185"/>
      <point x="380" y="393" type="curve" smooth="yes"/>
      <point x="283" y="117" type="line"/>
      <point x="168" y="370" type="line" smooth="yes"/>
      <point x="162" y="384"/>
      <point x="158" y="397"/>
      <point x="158" y="406.876" type="curve" smooth="yes"/>
      <point x="158" y="426"/>
      <point x="173" y="433"/>
      <point x="216" y="435" type="curve"/>
      <point x="216" y="450" type="line"/>
      <point x="10" y="450" type="line"/>
      <point x="10" y="436" type="line"/>
      <point x="36" y="431.934"/>
      <point x="54.2211" y="418.876"/>
      <point x="62.2482" y="401.61" type="curve" smooth="yes"/>
      <point x="244.752" y="9.03781" type="line"/>
      <point x="200.561" y="-101.208" type="line" smooth="yes"/>
      <point x="174.18" y="-167.025"/>
      <point x="150.521" y="-181.758"/>
      <point x="130.295" y="-181.758" type="curve" smooth="yes"/>
      <point x="118.319" y="-181.758"/>
      <point x="113.074" y="-175.871"/>
      <point x="113.113" y="-166.775" type="curve" smooth="yes"/>
      <point x="113.142" y="-159.895"/>
      <point x="116.183" y="-154.147"/>
      <point x="119.353" y="-148.173" type="curve" smooth="yes"/>
      <point x="122.827" y="-141.628"/>
      <point x="126.457" y="-134.811"/>
      <point x="126.465" y="-124.759" type="curve" smooth="yes"/>
      <point x="126.484" y="-100.038"/>
      <point x="104.77" y="-80.1262"/>
      <point x="77.7943" y="-80.1262" type="curve" smooth="yes"/>
      <point x="47.3386" y="-80.1262"/>
      <point x="26" y="-105.112"/>
    </contour>
  </outline>
</glyph>
<glyph name="z" format="2">
  <advance width="413"/>
  <unicode hex="007A"/>
  <anchor x="206" y="523" name="top"/>
  <outline>
    <contour>
      <point x="9" y="0" type="line"/>
      <point x="386" y="0" type="line"/>
      <point x="400" y="135" type="line"/>
      <point x="382" y="139" type="line"/>
      <point x="364.387" y="50.9335"/>
      <point x="350.873" y="30"/>
      <point x="254" y="30" type="curve" smooth="yes"/>
      <point x="116" y="30" type="line"/>
      <point x="385" y="435" type="line"/>
      <point x="385" y="450" type="line"/>
      <point x="38" y="450" type="line"/>
      <point x="33" y="332" type="line"/>
      <point x="51" y="332" type="line"/>
      <point x="60" y="405"/>
      <point x="77" y="420"/>
      <point x="137" y="420" type="curve" smooth="yes"/>
      <point x="275" y="420" type="line"/>
      <point x="9" y="15" type="line"/>
    </contour>
  </outline>
</glyph>
<glyph name="bar" format="2">
  <advance width="200"/>
  <unicode hex="007C"/>
  <outline>
    <contour>
      <point x="67" y="-14" type="line"/>
      <point x="133" y="-14" type="line"/>
      <point x="133" y="676" type="line"/>
      <point x="67" y="676" type="line"/>
    </contour>
  </outline>
</glyph>
<glyph name="cent" format="2">
  <advance width="500"/>
  <unicode hex="00A2"/>
  <outline>
    <contour>
      <point x="53" y="219" type="curve" smooth="yes"/>
      <point x="53" y="128.187"/>
      <point x="91.0311" y="56.2526"/>
      <point x="169" y="12" type="curve"/>
      <point x="118" y="-138" type="line"/>
      <point x="152" y="-138" type="line"/>
      <point x="201" y="0" type="line"/>
      <point x="225" y="-7"/>
      <point x="240" y="-9"/>
      <point x="257" y="-9" type="curve" smooth="yes"/>
      <point x="357.829" y="-9"/>
      <point x="409.013" y="75.7325"/>
      <point x="448" y="156" type="curve"/>
      <point x="435" y="164" type="line"/>
      <point x="383" y="89"/>
      <point x="347" y="64"/>
      <point x="288" y="64" type="curve" smooth="yes"/>
      <point x="268" y="64"/>
      <point x="253" y="67"/>
      <point x="229" y="76" type="curve"/>
      <point x="330" y="367" type="line"/>
      <point x="348" y="328"/>
      <point x="363" y="315"/>
      <point x="388" y="315" type="curve" smooth="yes"/>
      <point x="413" y="315"/>
      <point x="431" y="334"/>
      <point x="431" y="360" type="curve" smooth="yes"/>
      <point x="431" y="395"/>
      <point x="404" y="425"/>
      <point x="356" y="444" type="curve"/>
      <point x="403" y="579" type="line"/>
      <point x="368" y="579" type="line"/>
      <point x="324" y="455" type="line"/>
      <point x="300" y="459"/>
      <point x="287" y="460"/>
      <point x="273" y="460" type="curve" smooth="yes"/>
      <point x="149" y="460"/>
      <point x="53" y="354"/>
    </contour>
    <contour>
      <point x="130" y="260" type="curve" smooth="yes"/>
      <point x="130" y="362"/>
      <point x="184" y="430"/>
      <point x="266" y="430" type="curve" smooth="yes"/>
      <point x="283" y="430"/>
      <point x="295" y="428"/>
      <point x="313" y="421" type="curve"/>
      <point x="198" y="98" type="line"/>
      <point x="149" y="143"/>
      <point x="130" y="188"/>
    </contour>
  </outline>
</glyph>
<glyph name="sterling" format="2">
  <advance width="500"/>
  <unicode hex="00A3"/>
  <outline>
    <contour>
      <point x="12" y="54" type="curve" smooth="yes"/>
      <point x="12" y="16"/>
      <point x="39" y="-8"/>
      <point x="80" y="-8" type="curve" smooth="yes"/>
      <point x="115" y="-8"/>
      <point x="154" y="-4"/>
      <point x="194" y="43" type="curve"/>
      <point x="262" y="-4"/>
      <point x="279" y="-7"/>
      <point x="322" y="-7" type="curve" smooth="yes"/>
      <point x="392.564" y="-7"/>
      <point x="473.954" y="67.6648"/>
      <point x="490" y="140" type="curve"/>
      <point x="471" y="140" type="line"/>
      <point x="450.993" y="98.4476"/>
      <point x="391.131" y="70.1887"/>
      <point x="348" y="70.1887" type="curve" smooth="yes"/>
      <point x="299" y="70.1887"/>
      <point x="249.451" y="83.5893"/>
      <point x="215" y="100" type="curve"/>
      <point x="226.954" y="132.399"/>
      <point x="232.204" y="173.175"/>
      <point x="232.284" y="217.099" type="curve" smooth="yes"/>
      <point x="232.35" y="252.918"/>
      <point x="228.978" y="290.831"/>
      <point x="223" y="328" type="curve"/>
      <point x="344" y="328" type="line"/>
      <point x="344" y="373" type="line"/>
      <point x="219" y="373" type="line"/>
      <point x="206.413" y="443.184"/>
      <point x="202.501" y="474"/>
      <point x="202.501" y="503.264" type="curve" smooth="yes"/>
      <point x="202.501" y="597.429"/>
      <point x="243" y="648"/>
      <point x="308.171" y="648" type="curve" smooth="yes"/>
      <point x="337.283" y="648"/>
      <point x="356.64" y="637.909"/>
      <point x="356.736" y="613.4" type="curve" smooth="yes"/>
      <point x="356.786" y="600.535"/>
      <point x="351.5" y="591.121"/>
      <point x="351.477" y="574.367" type="curve" smooth="yes"/>
      <point x="351.447" y="552.502"/>
      <point x="360.396" y="530"/>
      <point x="393.956" y="530" type="curve" smooth="yes"/>
      <point x="427" y="530"/>
      <point x="448" y="551.815"/>
      <point x="448" y="582.555" type="curve" smooth="yes"/>
      <point x="448" y="635.109"/>
      <point x="392" y="676"/>
      <point x="308.333" y="676" type="curve" smooth="yes"/>
      <point x="199" y="676"/>
      <point x="117.649" y="606.174"/>
      <point x="117.649" y="465.636" type="curve" smooth="yes"/>
      <point x="117.649" y="441.636"/>
      <point x="125" y="399"/>
      <point x="130" y="373" type="curve"/>
      <point x="23" y="373" type="line"/>
      <point x="23" y="328" type="line"/>
      <point x="138" y="328" type="line"/>
      <point x="146" y="280.366"/>
      <point x="162.67" y="151.057"/>
      <point x="165" y="114" type="curve"/>
      <point x="146.543" y="123.953"/>
      <point x="118" y="130"/>
      <point x="96.6198" y="130" type="curve" smooth="yes"/>
      <point x="49" y="130"/>
      <point x="12" y="100"/>
    </contour>
    <contour>
      <point x="38" y="57" type="curve" smooth="yes"/>
      <point x="38" y="81"/>
      <point x="56" y="94"/>
      <point x="89" y="94" type="curve" smooth="yes"/>
      <point x="113" y="94"/>
      <point x="142" y="78.5041"/>
      <point x="158" y="65" type="curve"/>
      <point x="146" y="35"/>
      <point x="105.11" y="20"/>
      <point x="80.055" y="20" type="curve" smooth="yes"/>
      <point x="55" y="20"/>
      <point x="38" y="35"/>
    </contour>
  </outline>
</glyph>
<glyph name="yen" format="2">
  <advance width="606"/>
  <unicode hex="00A5"/>
  <outline>
    <contour>
      <point x="186" y="0" type="line"/>
      <point x="430" y="0" type="line"/>
      <point x="430" y="19" type="line"/>
      <point x="366" y="19"/>
      <point x="350" y="39"/>
      <point x="350" y="109" type="curve" smooth="yes"/>
      <point x="350" y="182" type="line"/>
      <point x="523" y="182" type="line"/>
      <point x="523" y="222" type="line"/>
      <point x="350" y="222" type="line"/>
      <point x="350" y="298" type="line"/>
      <point x="357" y="312" type="line"/>
      <point x="523" y="312" type="line"/>
      <point x="523" y="352" type="line"/>
      <point x="377" y="352" type="line"/>
      <point x="469" y="536" type="line" smooth="yes"/>
      <point x="504.014" y="606.029"/>
      <point x="536" y="632"/>
      <point x="587" y="643" type="curve"/>
      <point x="587" y="662" type="line"/>
      <point x="392" y="662" type="line"/>
      <point x="392" y="643" type="line"/>
      <point x="436.299" y="643"/>
      <point x="457" y="635.07"/>
      <point x="457" y="612" type="curve" smooth="yes"/>
      <point x="457" y="602"/>
      <point x="452" y="585"/>
      <point x="443" y="568" type="curve" smooth="yes"/>
      <point x="331" y="348" type="line"/>
      <point x="213" y="569" type="line" smooth="yes"/>
      <point x="204.574" y="584.78"/>
      <point x="200" y="601"/>
      <point x="200" y="614" type="curve" smooth="yes"/>
      <point x="200" y="634"/>
      <point x="218" y="643"/>
      <point x="265" y="643" type="curve"/>
      <point x="265" y="662" type="line"/>
      <point x="22" y="662" type="line"/>
      <point x="22" y="643" type="line"/>
      <point x="68" y="640"/>
      <point x="85" y="624"/>
      <point x="140" y="525" type="curve" smooth="yes"/>
      <point x="235" y="352" type="line"/>
      <point x="91" y="352" type="line"/>
      <point x="91" y="312" type="line"/>
      <point x="258" y="312" type="line"/>
      <point x="265" y="298" type="line"/>
      <point x="265" y="222" type="line"/>
      <point x="91" y="222" type="line"/>
      <point x="91" y="182" type="line"/>
      <point x="265" y="182" type="line"/>
      <point x="265" y="120" type="line" smooth="yes"/>
      <point x="265" y="37"/>
      <point x="253" y="22"/>
      <point x="186" y="19" type="curve"/>
    </contour>
  </outline>
</glyph>
<glyph name="section" format="2">
  <advance width="500"/>
  <unicode hex="00A7"/>
  <outline>
    <contour>
      <point x="70" y="282.375" type="curve" smooth="yes"/>
      <point x="70" y="232.981"/>
      <point x="92.7432" y="180.04"/>
      <point x="158" y="128.944" type="curve" smooth="yes"/>
      <point x="275.473" y="37.2204" type="line" smooth="yes"/>
      <point x="313.821" y="7.27838"/>
      <point x="330" y="-19.9385"/>
      <point x="330" y="-51.3966" type="curve" smooth="yes"/>
      <point x="330" y="-97"/>
      <point x="296" y="-127"/>
      <point x="244.653" y="-127" type="curve" smooth="yes"/>
      <point x="206" y="-127"/>
      <point x="172" y="-110"/>
      <point x="172" y="-92" type="curve"/>
      <point x="193.781" y="-78.8507"/>
      <point x="206" y="-58.7252"/>
      <point x="206" y="-38.5063" type="curve" smooth="yes"/>
      <point x="206" y="-12"/>
      <point x="185" y="6"/>
      <point x="158" y="6" type="curve" smooth="yes"/>
      <point x="127" y="6"/>
      <point x="104" y="-17"/>
      <point x="104" y="-50.2677" type="curve" smooth="yes"/>
      <point x="104" y="-104"/>
      <point x="164" y="-148"/>
      <point x="243.456" y="-148" type="curve" smooth="yes"/>
      <point x="329" y="-148"/>
      <point x="386" y="-97"/>
      <point x="386" y="-17.5004" type="curve" smooth="yes"/>
      <point x="386" y="25.7925"/>
      <point x="369.096" y="54.9071"/>
      <point x="309.44" y="109.596" type="curve" smooth="yes"/>
      <point x="292" y="125" type="line"/>
      <point x="310" y="125" type="line" smooth="yes"/>
      <point x="378" y="125"/>
      <point x="426" y="175.122"/>
      <point x="426" y="243.606" type="curve" smooth="yes"/>
      <point x="426" y="298.641"/>
      <point x="395" y="352.869"/>
      <point x="336.841" y="400.227" type="curve" smooth="yes"/>
      <point x="200" y="513" type="line" smooth="yes"/>
      <point x="180" y="530"/>
      <point x="166" y="559"/>
      <point x="166" y="585.188" type="curve" smooth="yes"/>
      <point x="166" y="626"/>
      <point x="200" y="655"/>
      <point x="251" y="655" type="curve" smooth="yes"/>
      <point x="285" y="655"/>
      <point x="313" y="641"/>
      <point x="313" y="623" type="curve"/>
      <point x="293.99" y="610.866"/>
      <point x="279" y="586.617"/>
      <point x="279" y="566.378" type="curve" smooth="yes"/>
      <point x="279" y="543"/>
      <point x="299" y="525"/>
      <point x="327.413" y="525" type="curve" smooth="yes"/>
      <point x="357.364" y="525"/>
      <point x="377" y="545"/>
      <point x="377" y="578" type="curve" smooth="yes"/>
      <point x="377" y="634"/>
      <point x="322" y="676"/>
      <point x="247.398" y="676" type="curve" smooth="yes"/>
      <point x="166" y="676"/>
      <point x="110" y="626"/>
      <point x="110" y="546.75" type="curve" smooth="yes"/>
      <point x="110" y="504.581"/>
      <point x="125.856" y="474.205"/>
      <point x="190.91" y="420.057" type="curve" smooth="yes"/>
      <point x="209" y="405" type="line"/>
      <point x="185" y="405" type="line" smooth="yes"/>
      <point x="119" y="405"/>
      <point x="70" y="354.878"/>
    </contour>
    <contour>
      <point x="123" y="313.085" type="curve" smooth="yes"/>
      <point x="123" y="355.882"/>
      <point x="152" y="384"/>
      <point x="187.226" y="384" type="curve" smooth="yes"/>
      <point x="215.195" y="384"/>
      <point x="254.376" y="366.274"/>
      <point x="290" y="333.869" type="curve" smooth="yes"/>
      <point x="321" y="305.671" type="line" smooth="yes"/>
      <point x="356.032" y="273.255"/>
      <point x="373" y="238.388"/>
      <point x="373" y="212.278" type="curve" smooth="yes"/>
      <point x="373" y="177.131"/>
      <point x="341.727" y="146"/>
      <point x="301.182" y="146" type="curve" smooth="yes"/>
      <point x="274.085" y="146"/>
      <point x="241.906" y="159.904"/>
      <point x="200.409" y="199.432" type="curve" smooth="yes"/>
      <point x="169" y="229.35" type="line" smooth="yes"/>
      <point x="134.114" y="262.58"/>
      <point x="123" y="286.591"/>
    </contour>
  </outline>
</glyph>
<glyph name="dieresis" format="2">
  <advance width="358"/>
  <unicode hex="00A8"/>
  <outline>
    <contour>
      <point x="30" y="573" type="curve" smooth="yes"/>
      <point x="30" y="545"/>
      <point x="51" y="523"/>
      <point x="78" y="523" type="curve" smooth="yes"/>
      <point x="106" y="523"/>
      <point x="129" y="545"/>
      <point x="129" y="572" type="curve" smooth="yes"/>
      <point x="129" y="599"/>
      <point x="106" y="622"/>
      <point x="78" y="622" type="curve" smooth="yes"/>
      <point x="53" y="622"/>
      <point x="30" y="599"/>
    </contour>
    <contour>
      <point x="229" y="573" type="curve" smooth="yes"/>
      <point x="229" y="545"/>
      <point x="250" y="523"/>
      <point x="277" y="523" type="curve" smooth="yes"/>
      <point x="305" y="523"/>
      <point x="328" y="545"/>
      <point x="328" y="572" type="curve" smooth="yes"/>
      <point x="328" y="599"/>
      <point x="305" y="622"/>
      <point x="277" y="622" type="curve" smooth="yes"/>
      <point x="252" y="622"/>
      <point x="229" y="599"/>
    </contour>
  </outline>
  <guideline angle="0" x="0" y="573"/>
</glyph>
<glyph name="copyright" format="2">
  <advance width="760"/>
  <unicode hex="00A9"/>
  <outline>
    <contour>
      <point x="38" y="331.5" type="curve" smooth="yes"/>
      <point x="38" y="138"/>
      <point x="190" y="-14"/>
      <point x="381" y="-14" type="curve" smooth="yes"/>
      <point x="572" y="-14"/>
      <point x="722" y="138"/>
      <point x="722" y="330" type="curve" smooth="yes"/>
      <point x="722" y="521"/>
      <point x="571" y="676"/>
      <point x="379.255" y="676" type="curve" smooth="yes"/>
      <point x="190" y="676"/>
      <point x="38" y="525"/>
    </contour>
    <contour>
      <point x="93" y="332" type="curve" smooth="yes"/>
      <point x="93" y="498"/>
      <point x="224" y="634"/>
      <point x="379.366" y="634" type="curve" smooth="yes"/>
      <point x="537" y="634"/>
      <point x="667" y="494"/>
      <point x="667" y="331" type="curve" smooth="yes"/>
      <point x="667" y="166"/>
      <point x="537" y="28"/>
      <point x="381" y="28" type="curve" smooth="yes"/>
      <point x="224" y="28"/>
      <point x="93" y="166"/>
    </contour>
    <contour>
      <point x="190" y="334.39" type="curve" smooth="yes"/>
      <point x="190" y="217"/>
      <point x="280.193" y="141"/>
      <point x="401.193" y="141" type="curve" smooth="yes"/>
      <point x="468.554" y="141"/>
      <point x="508.087" y="150.207"/>
      <point x="530" y="171" type="curve"/>
      <point x="547" y="247" type="line"/>
      <point x="531" y="247" type="line"/>
      <point x="501" y="185"/>
      <point x="467" y="161"/>
      <point x="411.06" y="161" type="curve" smooth="yes"/>
      <point x="319" y="161"/>
      <point x="267" y="226"/>
      <point x="267" y="338.593" type="curve" smooth="yes"/>
      <point x="267" y="449"/>
      <point x="317" y="512"/>
      <point x="406" y="512" type="curve" smooth="yes"/>
      <point x="469" y="512"/>
      <point x="505" y="482"/>
      <point x="514" y="423" type="curve"/>
      <point x="531" y="423" type="line"/>
      <point x="531" y="493" type="line"/>
      <point x="508.613" y="516.248"/>
      <point x="458.716" y="532"/>
      <point x="404.545" y="532" type="curve" smooth="yes"/>
      <point x="279" y="532"/>
      <point x="190" y="451"/>
    </contour>
  </outline>
</glyph>
<glyph name="ordfeminine" format="2">
  <advance width="276"/>
  <unicode hex="00AA"/>
  <outline>
    <contour>
      <point x="4" y="460.849" type="curve" smooth="yes"/>
      <point x="4" y="422"/>
      <point x="34" y="394"/>
      <point x="75" y="394" type="curve" smooth="yes"/>
      <point x="105" y="394"/>
      <point x="133" y="408"/>
      <point x="166" y="438" type="curve"/>
      <point x="172" y="406"/>
      <point x="184" y="394"/>
      <point x="211" y="394" type="curve" smooth="yes"/>
      <point x="233" y="394"/>
      <point x="247" y="401"/>
      <point x="270" y="424" type="curve"/>
      <point x="270" y="442" type="line"/>
      <point x="260" y="434"/>
      <point x="252" y="430"/>
      <point x="242" y="430" type="curve" smooth="yes"/>
      <point x="231" y="430"/>
      <point x="229" y="436"/>
      <point x="229" y="465" type="curve" smooth="yes"/>
      <point x="229" y="580" type="line" smooth="yes"/>
      <point x="229" y="644"/>
      <point x="194" y="676"/>
      <point x="125.798" y="676" type="curve" smooth="yes"/>
      <point x="62" y="676"/>
      <point x="16" y="648"/>
      <point x="16" y="611.91" type="curve" smooth="yes"/>
      <point x="16" y="592"/>
      <point x="30" y="578"/>
      <point x="48" y="578" type="curve" smooth="yes"/>
      <point x="64" y="578"/>
      <point x="79" y="590"/>
      <point x="79" y="605.7" type="curve" smooth="yes"/>
      <point x="79" y="610.462"/>
      <point x="77.6198" y="618"/>
      <point x="76" y="625" type="curve"/>
      <point x="76" y="636"/>
      <point x="99" y="648"/>
      <point x="121" y="648" type="curve" smooth="yes"/>
      <point x="144" y="648"/>
      <point x="157" y="633"/>
      <point x="157" y="606" type="curve" smooth="yes"/>
      <point x="157" y="576" type="line"/>
      <point x="130.027" y="567.875" type="line" smooth="yes"/>
      <point x="76.1874" y="550.84"/>
      <point x="4" y="521.111"/>
    </contour>
    <contour>
      <point x="67" y="485" type="curve" smooth="yes"/>
      <point x="67" y="508.649"/>
      <point x="84.3747" y="523.198"/>
      <point x="140.196" y="544.449" type="curve" smooth="yes"/>
      <point x="158" y="551" type="line"/>
      <point x="157.757" y="457.837" type="line"/>
      <point x="140.757" y="449.837"/>
      <point x="118" y="441"/>
      <point x="105" y="441" type="curve" smooth="yes"/>
      <point x="84" y="441"/>
      <point x="67" y="461"/>
    </contour>
  </outline>
</glyph>
<glyph name="guillemotleft" format="2">
  <advance width="333"/>
  <unicode hex="00AB"/>
  <outline>
    <contour>
      <point x="233" y="225" type="line"/>
      <point x="310.147" y="157.956" type="line" smooth="yes"/>
      <point x="341.644" y="130.583"/>
      <point x="413.941" y="60.9537"/>
      <point x="425.785" y="49.2548" type="curve" smooth="yes"/>
      <point x="433.075" y="42.0531"/>
      <point x="442.925" y="33"/>
      <point x="448.592" y="33" type="curve" smooth="yes"/>
      <point x="451.854" y="33"/>
      <point x="455" y="36"/>
      <point x="455" y="43" type="curve" smooth="yes"/>
      <point x="455" y="82.2945"/>
      <point x="349.9" y="207.817"/>
      <point x="326" y="227" type="curve"/>
      <point x="349.9" y="247.298"/>
      <point x="454" y="390.907"/>
      <point x="454" y="409.432" type="curve" smooth="yes"/>
      <point x="454" y="412"/>
      <point x="452" y="416"/>
      <point x="447.21" y="416" type="curve" smooth="yes"/>
      <point x="440.694" y="416"/>
      <point x="432.526" y="408.596"/>
      <point x="428" y="404" type="curve" smooth="yes"/>
      <point x="384" y="359.322"/>
      <point x="343.249" y="320.685"/>
      <point x="310.013" y="292.966" type="curve" smooth="yes"/>
      <point x="232.833" y="228.596" type="line"/>
    </contour>
    <contour>
      <point x="42" y="225" type="line"/>
      <point x="119.147" y="157.956" type="line" smooth="yes"/>
      <point x="150.644" y="130.583"/>
      <point x="222.941" y="60.9537"/>
      <point x="234.785" y="49.2548" type="curve" smooth="yes"/>
      <point x="242.075" y="42.0531"/>
      <point x="251.925" y="33"/>
      <point x="257.592" y="33" type="curve" smooth="yes"/>
      <point x="260.854" y="33"/>
      <point x="264" y="36"/>
      <point x="264" y="43" type="curve" smooth="yes"/>
      <point x="264" y="82.2945"/>
      <point x="158.9" y="207.817"/>
      <point x="135" y="227" type="curve"/>
      <point x="158.9" y="247.298"/>
      <point x="263" y="390.907"/>
      <point x="263" y="409.432" type="curve" smooth="yes"/>
      <point x="263" y="412"/>
      <point x="261" y="416"/>
      <point x="256.21" y="416" type="curve" smooth="yes"/>
      <point x="249.694" y="416"/>
      <point x="241.526" y="408.596"/>
      <point x="237" y="404" type="curve" smooth="yes"/>
      <point x="193" y="359.322"/>
      <point x="152.249" y="320.685"/>
      <point x="119.013" y="292.966" type="curve" smooth="yes"/>
      <point x="41.8327" y="228.596" type="line"/>
    </contour>
  </outline>
</glyph>
<glyph name="uni00AD" format="2">
  <advance width="333"/>
  <unicode hex="00AD"/>
  <outline>
    <contour>
      <point x="39" y="194" type="line"/>
      <point x="285" y="194" type="line"/>
      <point x="285" y="257" type="line"/>
      <point x="39" y="257" type="line"/>
    </contour>
  </outline>
</glyph>
<glyph name="macron" format="2">
  <advance width="450"/>
  <unicode hex="00AF"/>
  <outline>
    <contour>
      <point x="70" y="546" type="line"/>
      <point x="380" y="546" type="line"/>
      <point x="380" y="600" type="line"/>
      <point x="70" y="600" type="line"/>
    </contour>
  </outline>
  <guideline angle="0" x="0" y="573"/>
  <guideline angle="0" x="0" y="510"/>
  <guideline angle="0" x="0" y="677"/>
</glyph>
<glyph name="plusminus" format="2">
  <advance width="564"/>
  <unicode hex="00B1"/>
  <outline>
    <contour>
      <point x="30" y="0" type="line"/>
      <point x="534" y="0" type="line"/>
      <point x="534" y="66" type="line"/>
      <point x="30" y="66" type="line"/>
    </contour>
    <contour>
      <point x="30" y="282" type="line"/>
      <point x="249" y="282" type="line"/>
      <point x="249" y="122" type="line"/>
      <point x="315" y="122" type="line"/>
      <point x="315" y="282" type="line"/>
      <point x="534" y="282" type="line"/>
      <point x="534" y="348" type="line"/>
      <point x="315" y="348" type="line"/>
      <point x="315" y="568" type="line"/>
      <point x="249" y="568" type="line"/>
      <point x="249" y="348" type="line"/>
      <point x="30" y="348" type="line"/>
    </contour>
  </outline>
</glyph>
<glyph name="acute" format="2">
  <advance width="364"/>
  <unicode hex="00B4"/>
  <outline>
    <contour>
      <point x="70" y="523" type="line"/>
      <point x="110" y="523" type="line"/>
      <point x="264" y="620" type="line" smooth="yes"/>
      <point x="284.898" y="633.163"/>
      <point x="294" y="646"/>
      <point x="294" y="662" type="curve" smooth="yes"/>
      <point x="294" y="682"/>
      <point x="281" y="694"/>
      <point x="259" y="694" type="curve" smooth="yes"/>
      <point x="244" y="694"/>
      <point x="234.939" y="689.061"/>
      <point x="217" y="671" type="curve" smooth="yes"/>
    </contour>
  </outline>
</glyph>
<glyph name="paragraph" format="2">
  <advance width="492"/>
  <unicode hex="00B6"/>
  <outline>
    <contour>
      <point x="10" y="465.548" type="curve" smooth="yes"/>
      <point x="10" y="338.051"/>
      <point x="68.6941" y="279.357"/>
      <point x="204" y="273" type="curve"/>
      <point x="204" y="-31" type="line" smooth="yes"/>
      <point x="204" y="-115"/>
      <point x="194" y="-127"/>
      <point x="116" y="-132" type="curve"/>
      <point x="116" y="-154" type="line"/>
      <point x="270" y="-154" type="line"/>
      <point x="270" y="640" type="line"/>
      <point x="328" y="640" type="line"/>
      <point x="328" y="-154" type="line"/>
      <point x="482" y="-154" type="line"/>
      <point x="482" y="-132" type="line"/>
      <point x="406" y="-126"/>
      <point x="394" y="-113"/>
      <point x="394" y="-42" type="curve" smooth="yes"/>
      <point x="394" y="553" type="line" smooth="yes"/>
      <point x="394" y="625"/>
      <point x="405" y="636"/>
      <point x="482" y="643" type="curve"/>
      <point x="482" y="662" type="line"/>
      <point x="219" y="662" type="line" smooth="yes"/>
      <point x="75.8333" y="662"/>
      <point x="10" y="600.577"/>
    </contour>
    <contour>
      <point x="86" y="476.591" type="curve" smooth="yes"/>
      <point x="86" y="593.474"/>
      <point x="115.609" y="633.371"/>
      <point x="204" y="640" type="curve"/>
      <point x="204" y="295" type="line"/>
      <point x="118.19" y="303.98"/>
      <point x="86" y="354.72"/>
    </contour>
  </outline>
</glyph>
<glyph name="uni00B9" format="2">
  <advance width="300"/>
  <unicode hex="00B9"/>
  <outline>
    <contour>
      <point x="57" y="270" type="line"/>
      <point x="232" y="270" type="line"/>
      <point x="232" y="294" type="line"/>
      <point x="186" y="297"/>
      <point x="175" y="306"/>
      <point x="175" y="330" type="curve" smooth="yes"/>
      <point x="175" y="676" type="line"/>
      <point x="161" y="676" type="line"/>
      <point x="59" y="631" type="line"/>
      <point x="59" y="608" type="line"/>
      <point x="88.1815" y="606.873"/>
      <point x="110" y="594.325"/>
      <point x="110" y="573.544" type="curve" smooth="yes"/>
      <point x="110" y="330" type="line" smooth="yes"/>
      <point x="110" y="306"/>
      <point x="100" y="297"/>
      <point x="57" y="294" type="curve"/>
    </contour>
  </outline>
</glyph>
<glyph name="ordmasculine" format="2">
  <advance width="310"/>
  <unicode hex="00BA"/>
  <outline>
    <contour>
      <point x="6" y="533" type="curve" smooth="yes"/>
      <point x="6" y="443"/>
      <point x="66" y="391"/>
      <point x="156" y="391" type="curve" smooth="yes"/>
      <point x="246" y="391"/>
      <point x="306" y="443"/>
      <point x="306" y="533" type="curve" smooth="yes"/>
      <point x="306" y="623"/>
      <point x="246" y="675"/>
      <point x="156" y="675" type="curve" smooth="yes"/>
      <point x="66" y="675"/>
      <point x="6" y="623"/>
    </contour>
    <contour>
      <point x="82.1738" y="532.501" type="curve" smooth="yes"/>
      <point x="81.9923" y="592.981"/>
      <point x="96.2537" y="652"/>
      <point x="156" y="652" type="curve" smooth="yes"/>
      <point x="215.841" y="652"/>
      <point x="227.184" y="592.952"/>
      <point x="227.269" y="533" type="curve" smooth="yes"/>
      <point x="227.353" y="473.307"/>
      <point x="215.845" y="414"/>
      <point x="156" y="414" type="curve" smooth="yes"/>
      <point x="95.5316" y="414"/>
      <point x="82.3534" y="472.662"/>
    </contour>
  </outline>
</glyph>
<glyph name="guillemotright" format="2">
  <advance width="500"/>
  <unicode hex="00BB"/>
  <outline>
    <contour>
      <point x="235.833" y="43" type="curve" smooth="yes"/>
      <point x="235.833" y="36"/>
      <point x="238.979" y="33"/>
      <point x="242.241" y="33" type="curve" smooth="yes"/>
      <point x="247.907" y="33"/>
      <point x="257.757" y="42.0531"/>
      <point x="265.048" y="49.2548" type="curve" smooth="yes"/>
      <point x="276.891" y="60.9537"/>
      <point x="349.189" y="130.583"/>
      <point x="380.686" y="157.956" type="curve" smooth="yes"/>
      <point x="457.833" y="225" type="line"/>
      <point x="458" y="228.596" type="line"/>
      <point x="380.82" y="292.966" type="line" smooth="yes"/>
      <point x="347.584" y="320.685"/>
      <point x="306.833" y="359.322"/>
      <point x="262.833" y="404" type="curve" smooth="yes"/>
      <point x="258.307" y="408.596"/>
      <point x="250.139" y="416"/>
      <point x="243.622" y="416" type="curve" smooth="yes"/>
      <point x="238.833" y="416"/>
      <point x="236.833" y="412"/>
      <point x="236.833" y="409.432" type="curve" smooth="yes"/>
      <point x="236.833" y="390.907"/>
      <point x="340.932" y="247.298"/>
      <point x="364.833" y="227" type="curve"/>
      <point x="340.932" y="207.817"/>
      <point x="235.833" y="82.2945"/>
    </contour>
    <contour>
      <point x="45.8327" y="43" type="curve" smooth="yes"/>
      <point x="45.8327" y="36"/>
      <point x="48.9786" y="33"/>
      <point x="52.2406" y="33" type="curve" smooth="yes"/>
      <point x="57.9072" y="33"/>
      <point x="67.7574" y="42.0531"/>
      <point x="75.0479" y="49.2548" type="curve" smooth="yes"/>
      <point x="86.8912" y="60.9537"/>
      <point x="159.189" y="130.583"/>
      <point x="190.686" y="157.956" type="curve" smooth="yes"/>
      <point x="267.833" y="225" type="line"/>
      <point x="268" y="228.596" type="line"/>
      <point x="190.82" y="292.966" type="line" smooth="yes"/>
      <point x="157.584" y="320.685"/>
      <point x="116.833" y="359.322"/>
      <point x="72.8327" y="404" type="curve" smooth="yes"/>
      <point x="68.3069" y="408.596"/>
      <point x="60.1388" y="416"/>
      <point x="53.6223" y="416" type="curve" smooth="yes"/>
      <point x="48.8327" y="416"/>
      <point x="46.8327" y="412"/>
      <point x="46.8327" y="409.432" type="curve" smooth="yes"/>
      <point x="46.8327" y="390.907"/>
      <point x="150.932" y="247.298"/>
      <point x="174.833" y="227" type="curve"/>
      <point x="150.932" y="207.817"/>
      <point x="45.8327" y="82.2945"/>
    </contour>
  </outline>
</glyph>
<glyph name="onequarter" format="2">
  <advance width="750"/>
  <unicode hex="00BC"/>
  <outline>
    <contour>
      <point x="138" y="-14" type="line"/>
      <point x="187" y="-14" type="line"/>
      <point x="637" y="676" type="line"/>
      <point x="591" y="676" type="line"/>
    </contour>
    <contour>
      <point x="413" y="90" type="line"/>
      <point x="593" y="90" type="line"/>
      <point x="593" y="0" type="line"/>
      <point x="663" y="0" type="line"/>
      <point x="663" y="90" type="line"/>
      <point x="718" y="90" type="line"/>
      <point x="718" y="147" type="line"/>
      <point x="663" y="147" type="line"/>
      <point x="663" y="405" type="line"/>
      <point x="616" y="405" type="line"/>
      <point x="413" y="139" type="line"/>
    </contour>
    <contour>
      <point x="458" y="147" type="line"/>
      <point x="593" y="326" type="line"/>
      <point x="593" y="147" type="line"/>
    </contour>
    <contour>
      <point x="47" y="270" type="line"/>
      <point x="222" y="270" type="line"/>
      <point x="222" y="294" type="line"/>
      <point x="176" y="296.934"/>
      <point x="165" y="305.736"/>
      <point x="165" y="329.209" type="curve" smooth="yes"/>
      <point x="165" y="676" type="line"/>
      <point x="151" y="676" type="line"/>
      <point x="49" y="631" type="line"/>
      <point x="49" y="608" type="line"/>
      <point x="78.1815" y="606.873"/>
      <point x="100" y="594.325"/>
      <point x="100" y="573.544" type="curve" smooth="yes"/>
      <point x="100" y="329.209" type="line" smooth="yes"/>
      <point x="100" y="305.736"/>
      <point x="90" y="296.934"/>
      <point x="47" y="294" type="curve"/>
    </contour>
  </outline>
</glyph>
<glyph name="onehalf" format="2">
  <advance width="750"/>
  <unicode hex="00BD"/>
  <outline>
    <contour>
      <point x="101" y="-14" type="line"/>
      <point x="150" y="-14" type="line"/>
      <point x="600" y="676" type="line"/>
      <point x="554" y="676" type="line"/>
    </contour>
    <contour>
      <point x="451" y="287" type="curve"/>
      <point x="476" y="273" type="line"/>
      <point x="498" y="321"/>
      <point x="525" y="343"/>
      <point x="559.327" y="343" type="curve" smooth="yes"/>
      <point x="602" y="343"/>
      <point x="635" y="309"/>
      <point x="635" y="272.437" type="curve" smooth="yes"/>
      <point x="635" y="237"/>
      <point x="604" y="184"/>
      <point x="554" y="130" type="curve" smooth="yes"/>
      <point x="456" y="23" type="line"/>
      <point x="456" y="0" type="line"/>
      <point x="709" y="0" type="line"/>
      <point x="746" y="85" type="line"/>
      <point x="729" y="92" type="line"/>
      <point x="714" y="70"/>
      <point x="705" y="65"/>
      <point x="678" y="65" type="curve" smooth="yes"/>
      <point x="557" y="65" type="line"/>
      <point x="643" y="150" type="line" smooth="yes"/>
      <point x="704" y="210"/>
      <point x="727" y="251"/>
      <point x="727" y="295.48" type="curve" smooth="yes"/>
      <point x="727" y="363"/>
      <point x="674" y="406"/>
      <point x="593.218" y="406" type="curve" smooth="yes"/>
      <point x="510.425" y="406"/>
      <point x="476.681" y="360.833"/>
    </contour>
    <contour>
      <point x="47" y="270" type="line"/>
      <point x="222" y="270" type="line"/>
      <point x="222" y="294" type="line"/>
      <point x="176" y="296.934"/>
      <point x="165" y="305.736"/>
      <point x="165" y="329.209" type="curve" smooth="yes"/>
      <point x="165" y="676" type="line"/>
      <point x="151" y="676" type="line"/>
      <point x="49" y="631" type="line"/>
      <point x="49" y="608" type="line"/>
      <point x="78.1815" y="606.873"/>
      <point x="100" y="594.325"/>
      <point x="100" y="573.544" type="curve" smooth="yes"/>
      <point x="100" y="329.209" type="line" smooth="yes"/>
      <point x="100" y="305.736"/>
      <point x="90" y="296.934"/>
      <point x="47" y="294" type="curve"/>
    </contour>
  </outline>
</glyph>
<glyph name="threequarters" format="2">
  <advance width="750"/>
  <unicode hex="00BE"/>
  <outline>
    <component base="uni2083" yOffset="470"/>
    <contour>
      <point x="138" y="-14" type="line"/>
      <point x="187" y="-14" type="line"/>
      <point x="636.629" y="676" type="line"/>
      <point x="590.007" y="676" type="line"/>
    </contour>
    <contour>
      <point x="412.596" y="90" type="line"/>
      <point x="592" y="90" type="line"/>
      <point x="592" y="0" type="line"/>
      <point x="663" y="0" type="line"/>
      <point x="663" y="90" type="line"/>
      <point x="718" y="90" type="line"/>
      <point x="718" y="147" type="line"/>
      <point x="663" y="147" type="line"/>
      <point x="663" y="405" type="line"/>
      <point x="615.329" y="405" type="line"/>
      <point x="412.596" y="139" type="line"/>
    </contour>
    <contour>
      <point x="457.447" y="147" type="line"/>
      <point x="592" y="326" type="line"/>
      <point x="592" y="147" type="line"/>
    </contour>
  </outline>
</glyph>
<glyph name="questiondown" format="2">
  <advance width="444"/>
  <unicode hex="00BF"/>
  <outline>
    <contour>
      <point x="30" y="-63" type="curve" smooth="yes"/>
      <point x="30" y="-163.525"/>
      <point x="120.899" y="-218"/>
      <point x="214" y="-218" type="curve" smooth="yes"/>
      <point x="306" y="-218"/>
      <point x="376" y="-156"/>
      <point x="376" y="-73" type="curve" smooth="yes"/>
      <point x="376" y="-33"/>
      <point x="359" y="-11"/>
      <point x="328" y="-11" type="curve" smooth="yes"/>
      <point x="303" y="-11"/>
      <point x="287" y="-28"/>
      <point x="287" y="-52" type="curve" smooth="yes"/>
      <point x="287" y="-66"/>
      <point x="293" y="-78"/>
      <point x="308" y="-95" type="curve" smooth="yes"/>
      <point x="320" y="-109"/>
      <point x="325" y="-118"/>
      <point x="325" y="-126" type="curve" smooth="yes"/>
      <point x="325" y="-158"/>
      <point x="278" y="-188"/>
      <point x="230" y="-188" type="curve" smooth="yes"/>
      <point x="170" y="-188"/>
      <point x="122" y="-135"/>
      <point x="122" y="-68" type="curve" smooth="yes"/>
      <point x="122" y="-22"/>
      <point x="135" y="33"/>
      <point x="159" y="88" type="curve" smooth="yes"/>
      <point x="187" y="152" type="line"/>
      <point x="206" y="200"/>
      <point x="216" y="250"/>
      <point x="217" y="294" type="curve"/>
      <point x="200" y="294" type="line"/>
      <point x="186" y="213"/>
      <point x="168" y="178"/>
      <point x="105" y="104" type="curve" smooth="yes"/>
      <point x="54" y="42"/>
      <point x="30" y="-12"/>
    </contour>
    <contour>
      <point x="154" y="417" type="curve" smooth="yes"/>
      <point x="154" y="385"/>
      <point x="177" y="361"/>
      <point x="207" y="361" type="curve" smooth="yes"/>
      <point x="236" y="361"/>
      <point x="261" y="386"/>
      <point x="261" y="416" type="curve" smooth="yes"/>
      <point x="261" y="445"/>
      <point x="237" y="468"/>
      <point x="208" y="468" type="curve" smooth="yes"/>
      <point x="176" y="468"/>
      <point x="154" y="447"/>
    </contour>
  </outline>
</glyph>
<glyph name="AE" format="2">
  <advance width="889"/>
  <unicode hex="00C6"/>
  <anchor x="505" y="735" name="top"/>
  <outline>
    <contour>
      <point x="-1" y="0" type="line"/>
      <point x="198" y="0" type="line"/>
      <point x="198" y="19" type="line"/>
      <point x="159" y="19"/>
      <point x="129" y="27"/>
      <point x="129" y="51" type="curve" smooth="yes"/>
      <point x="129" y="64.8922"/>
      <point x="136.632" y="91.288"/>
      <point x="150.803" y="119.625" type="curve" smooth="yes"/>
      <point x="221" y="260" type="line"/>
      <point x="397" y="260" type="line"/>
      <point x="397" y="108" type="line" smooth="yes"/>
      <point x="397" y="30"/>
      <point x="378" y="27"/>
      <point x="308" y="19" type="curve"/>
      <point x="308" y="0" type="line"/>
      <point x="818" y="0" type="line"/>
      <point x="863" y="168" type="line"/>
      <point x="839" y="168" type="line"/>
      <point x="787" y="68"/>
      <point x="756" y="38"/>
      <point x="642" y="38" type="curve" smooth="yes"/>
      <point x="547" y="38" type="line" smooth="yes"/>
      <point x="508" y="38"/>
      <point x="496" y="41"/>
      <point x="496" y="91" type="curve" smooth="yes"/>
      <point x="496" y="330" type="line"/>
      <point x="641" y="330" type="line" smooth="yes"/>
      <point x="718" y="330"/>
      <point x="732" y="296.051"/>
      <point x="739" y="229" type="curve"/>
      <point x="760" y="229" type="line"/>
      <point x="760" y="463" type="line"/>
      <point x="739" y="463" type="line"/>
      <point x="732" y="373"/>
      <point x="692" y="366"/>
      <point x="607" y="366" type="curve" smooth="yes"/>
      <point x="496" y="366" type="line"/>
      <point x="496" y="596" type="line" smooth="yes"/>
      <point x="496" y="616"/>
      <point x="503" y="626"/>
      <point x="523" y="626" type="curve" smooth="yes"/>
      <point x="648" y="626" type="line" smooth="yes"/>
      <point x="725" y="626"/>
      <point x="781" y="619"/>
      <point x="792" y="521" type="curve"/>
      <point x="815" y="521" type="line"/>
      <point x="815" y="662" type="line"/>
      <point x="251" y="662" type="line"/>
      <point x="251" y="642" type="line"/>
      <point x="274" y="642"/>
      <point x="341" y="642"/>
      <point x="341" y="607" type="curve" smooth="yes"/>
      <point x="341" y="603.524"/>
      <point x="334.787" y="587.022"/>
      <point x="322.526" y="562.773" type="curve" smooth="yes"/>
      <point x="87" y="97" type="line" smooth="yes"/>
      <point x="63.7922" y="51.1045"/>
      <point x="51" y="28"/>
      <point x="-1" y="19" type="curve"/>
    </contour>
    <contour>
      <point x="238" y="298" type="line"/>
      <point x="401" y="622" type="line"/>
      <point x="397" y="621.578" type="line"/>
      <point x="397" y="298" type="line"/>
    </contour>
  </outline>
</glyph>
<glyph name="multiply" format="2">
  <advance width="564"/>
  <unicode hex="00D7"/>
  <outline>
    <contour>
      <point x="38" y="56" type="line"/>
      <point x="86" y="8" type="line"/>
      <point x="282" y="205" type="line"/>
      <point x="479" y="8" type="line"/>
      <point x="527" y="56" type="line"/>
      <point x="330" y="253" type="line"/>
      <point x="527" y="449" type="line"/>
      <point x="479" y="497" type="line"/>
      <point x="282" y="300" type="line"/>
      <point x="86" y="497" type="line"/>
      <point x="38" y="449" type="line"/>
      <point x="234" y="253" type="line"/>
    </contour>
  </outline>
</glyph>
<glyph name="Thorn" format="2">
  <advance width="579"/>
  <unicode hex="00DE"/>
  <outline>
    <component base="I"/>
    <contour>
      <point x="192" y="164" type="line"/>
      <point x="219" y="160"/>
      <point x="257" y="158"/>
      <point x="286.269" y="158" type="curve" smooth="yes"/>
      <point x="515" y="158"/>
      <point x="552" y="280.139"/>
      <point x="552" y="349.061" type="curve" smooth="yes"/>
      <point x="552" y="461.566"/>
      <point x="452" y="532.233"/>
      <point x="292" y="532" type="curve" smooth="yes" name=".sk2"/>
      <point x="192" y="531.854" type="line"/>
      <point x="192" y="459.701" type="line"/>
      <point x="212" y="459.539" type="line"/>
      <point x="212" y="485.892"/>
      <point x="219" y="494"/>
      <point x="244" y="494" type="curve" smooth="yes"/>
      <point x="382" y="494"/>
      <point x="443" y="447.376"/>
      <point x="443" y="345.176" type="curve" smooth="yes"/>
      <point x="443" y="244.664"/>
      <point x="384" y="198"/>
      <point x="276.355" y="198" type="curve" smooth="yes"/>
      <point x="249" y="198"/>
      <point x="215" y="201.014"/>
      <point x="192" y="205.047" type="curve"/>
    </contour>
  </outline>
</glyph>
<glyph name="oslash" format="2">
  <advance width="492"/>
  <unicode hex="00F8"/>
  <anchor x="246" y="523" name="top"/>
  <anchor x="276" y="0" name="b.ogonek"/>
  <outline>
    <component base="o"/>
    <contour>
      <point x="103.994" y="-10" type="line"/>
      <point x="140.994" y="-10" type="line"/>
      <point x="159.854" y="22.9332" type="line"/>
      <point x="167.961" y="42.1798" type="line"/>
      <point x="344.974" y="379.28" type="line"/>
      <point x="365.08" y="412.692" type="line"/>
      <point x="390.995" y="459.986" type="line"/>
      <point x="351.995" y="459.986" type="line"/>
      <point x="334.89" y="427.197" type="line"/>
      <point x="325.938" y="409.299" type="line"/>
      <point x="146.638" y="65.5857" type="line"/>
      <point x="135.358" y="47.7953" type="line"/>
    </contour>
  </outline>
</glyph>
<glyph name="thorn" format="2">
  <advance width="500"/>
  <unicode hex="00FE"/>
  <outline>
    <contour>
      <point x="139" y="33" type="line"/>
      <point x="161.537" y="7"/>
      <point x="205.619" y="-10"/>
      <point x="254.495" y="-10" type="curve" smooth="yes"/>
      <point x="379.947" y="-10"/>
      <point x="470" y="102"/>
      <point x="470" y="245.747" type="curve" smooth="yes"/>
      <point x="470" y="371"/>
      <point x="401.628" y="460"/>
      <point x="301.03" y="460" type="curve" smooth="yes"/>
      <point x="248.791" y="460"/>
      <point x="194.4" y="436"/>
      <point x="149" y="382" type="curve"/>
      <point x="149" y="334" type="line"/>
      <point x="168.74" y="374.219"/>
      <point x="218.937" y="400"/>
      <point x="261.907" y="400" type="curve" smooth="yes"/>
      <point x="336.564" y="400"/>
      <point x="386" y="324"/>
      <point x="386" y="210.5" type="curve" smooth="yes"/>
      <point x="386" y="97"/>
      <point x="336.564" y="22"/>
      <point x="263.924" y="22" type="curve" smooth="yes"/>
      <point x="222.723" y="22"/>
      <point x="161.537" y="44.3743"/>
      <point x="139" y="79" type="curve"/>
    </contour>
    <contour>
      <point x="5" y="-217" type="line"/>
      <point x="247.782" y="-217" type="line"/>
      <point x="247.782" y="-199" type="line"/>
      <point x="172.116" y="-194"/>
      <point x="159" y="-180"/>
      <point x="159" y="-130" type="curve" smooth="yes"/>
      <point x="159" y="683" type="line"/>
      <point x="9" y="683" type="line"/>
      <point x="9" y="667" type="line"/>
      <point x="51.9442" y="661.763"/>
      <point x="75" y="637.31"/>
      <point x="75" y="597" type="curve" smooth="yes"/>
      <point x="75" y="-130" type="line" smooth="yes"/>
      <point x="75" y="-180"/>
      <point x="64" y="-194"/>
      <point x="5" y="-199" type="curve"/>
    </contour>
  </outline>
</glyph>
<glyph name="Hbar" format="2">
  <advance width="715"/>
  <unicode hex="0126"/>
  <outline>
    <component base="H"/>
    <contour>
      <point x="54" y="446" type="line"/>
      <point x="652" y="446" type="line"/>
      <point x="652" y="490" type="line"/>
      <point x="54" y="490" type="line"/>
    </contour>
  </outline>
</glyph>
<glyph name="dotlessi" format="2">
  <advance width="250"/>
  <unicode hex="0131"/>
  <anchor x="118" y="523" name="top"/>
  <anchor x="133" y="0" name="b.ogonek"/>
  <anchor x="135" y="-50" name="bottom"/>
  <outline>
    <contour>
      <point x="86" y="89.9794" type="line" smooth="yes" name=".sk5"/>
      <point x="86" y="26.5089"/>
      <point x="67.9956" y="19.5045"/>
      <point x="16" y="14.9794" type="curve"/>
      <point x="16" y="-0.0205994" type="line"/>
      <point x="240" y="-0.0205994" type="line"/>
      <point x="240" y="14.9794" type="line"/>
      <point x="187.756" y="19.5152"/>
      <point x="170" y="26.7107"/>
      <point x="170" y="89.9794" type="curve" smooth="yes"/>
      <point x="170" y="450" type="line"/>
      <point x="128" y="450.079" type="line" name=".sk1"/>
      <point x="16" y="450.079" type="line"/>
      <point x="16" y="435.079" type="line"/>
      <point x="67.9956" y="430.553"/>
      <point x="86" y="423.549"/>
      <point x="86" y="360.079" type="curve" smooth="yes"/>
    </contour>
  </outline>
  <guideline angle="90" x="118" y="0"/>
</glyph>
<glyph name="kgreenlandic" format="2">
  <advance width="508"/>
  <unicode hex="0138"/>
  <outline>
    <contour>
      <point x="15" y="0" type="line"/>
      <point x="249" y="0" type="line"/>
      <point x="249" y="15" type="line"/>
      <point x="199.469" y="19.6074"/>
      <point x="174" y="29.7759"/>
      <point x="174" y="70" type="curve" smooth="yes"/>
      <point x="174" y="230" type="line"/>
      <point x="178.723" y="234.354" type="line"/>
      <point x="314" y="64" type="line" smooth="yes"/>
      <point x="322.969" y="52.7057"/>
      <point x="335" y="35"/>
      <point x="335" y="28.8985" type="curve" smooth="yes"/>
      <point x="335" y="19.4243"/>
      <point x="305.207" y="16"/>
      <point x="295" y="16" type="curve"/>
      <point x="295" y="1" type="line"/>
      <point x="513" y="1" type="line"/>
      <point x="513" y="16" type="line"/>
      <point x="469" y="19"/>
      <point x="438" y="38"/>
      <point x="396" y="89" type="curve"/>
      <point x="243" y="283" type="line"/>
      <point x="314" y="349.111" type="line" smooth="yes"/>
      <point x="368.962" y="400.29"/>
      <point x="420.721" y="436"/>
      <point x="480" y="436" type="curve" smooth="yes"/>
      <point x="488" y="436" type="line"/>
      <point x="488" y="451" type="line"/>
      <point x="284" y="451" type="line"/>
      <point x="284" y="437" type="line"/>
      <point x="317.552" y="434.114"/>
      <point x="334" y="429.885"/>
      <point x="334" y="418" type="curve" smooth="yes"/>
      <point x="334" y="410"/>
      <point x="325" y="396"/>
      <point x="311" y="384" type="curve" smooth="yes"/>
      <point x="174" y="262" type="line"/>
      <point x="174" y="380" type="line" smooth="yes"/>
      <point x="174" y="419.777"/>
      <point x="195.696" y="429.214"/>
      <point x="249" y="436" type="curve"/>
      <point x="249" y="451" type="line"/>
      <point x="15" y="451" type="line"/>
      <point x="15" y="436" type="line"/>
      <point x="82" y="425"/>
      <point x="90" y="420"/>
      <point x="90" y="380" type="curve" smooth="yes"/>
      <point x="90" y="70" type="line" smooth="yes"/>
      <point x="90" y="30"/>
      <point x="72" y="19.5"/>
      <point x="15" y="15" type="curve"/>
    </contour>
  </outline>
</glyph>
<glyph name="Lslash" format="2">
  <advance width="611"/>
  <unicode hex="0141"/>
  <outline>
    <component base="L"/>
    <contour>
      <point x="179.278" y="322.282" type="line"/>
      <point x="356" y="424" type="line"/>
      <point x="356" y="473" type="line"/>
      <point x="179.278" y="371.282" type="line"/>
    </contour>
    <contour>
      <point x="12" y="226" type="line"/>
      <point x="117" y="286.436" type="line"/>
      <point x="117" y="335.436" type="line"/>
      <point x="12" y="275" type="line"/>
    </contour>
  </outline>
</glyph>
<glyph name="lslash" format="2">
  <advance width="278"/>
  <unicode hex="0142"/>
  <outline>
    <component base="l"/>
    <contour>
      <point x="160.694" y="360.543" type="line"/>
      <point x="259" y="428" type="line"/>
      <point x="259" y="472" type="line"/>
      <point x="160.694" y="404.543" type="line"/>
    </contour>
    <contour>
      <point x="20" y="264" type="line"/>
      <point x="120.602" y="333.032" type="line"/>
      <point x="120.602" y="377.032" type="line"/>
      <point x="20" y="308" type="line"/>
    </contour>
  </outline>
</glyph>
<glyph name="Eng" format="2">
  <advance width="722"/>
  <unicode hex="014A"/>
  <outline>
    <contour>
      <point x="12" y="0" type="line"/>
      <point x="247.227" y="0" type="line"/>
      <point x="247.227" y="19" type="line"/>
      <point x="170.041" y="23"/>
      <point x="153" y="46"/>
      <point x="153" y="147" type="curve" smooth="yes"/>
      <point x="153" y="539" type="line"/>
      <point x="568" y="22" type="line"/>
      <point x="568" y="-45" type="line" smooth="yes"/>
      <point x="568" y="-79.4482"/>
      <point x="560.005" y="-194.529"/>
      <point x="519.884" y="-194.529" type="curve" smooth="yes"/>
      <point x="513.901" y="-194.529"/>
      <point x="509.46" y="-191.514"/>
      <point x="508.755" y="-185.819" type="curve"/>
      <point x="509.485" y="-171.703"/>
      <point x="519.282" y="-167.039"/>
      <point x="519.282" y="-151.321" type="curve" smooth="yes"/>
      <point x="519.282" y="-134.785"/>
      <point x="510.14" y="-118.854"/>
      <point x="482.641" y="-118.854" type="curve" smooth="yes"/>
      <point x="459.585" y="-118.854"/>
      <point x="449.061" y="-136.882"/>
      <point x="449.061" y="-158.882" type="curve" smooth="yes"/>
      <point x="449.061" y="-194.069"/>
      <point x="475.987" y="-218"/>
      <point x="515.576" y="-218" type="curve" smooth="yes"/>
      <point x="587.932" y="-218"/>
      <point x="612" y="-142"/>
      <point x="612" y="0" type="curve" smooth="yes"/>
      <point x="612" y="515" type="line" smooth="yes"/>
      <point x="612" y="604.29"/>
      <point x="620.121" y="633.855"/>
      <point x="707" y="643" type="curve"/>
      <point x="707" y="662" type="line"/>
      <point x="472.771" y="662" type="line"/>
      <point x="472.771" y="643" type="line"/>
      <point x="562.536" y="635.93"/>
      <point x="568" y="606.096"/>
      <point x="568" y="515" type="curve" smooth="yes"/>
      <point x="568" y="178" type="line"/>
      <point x="183.072" y="662" type="line"/>
      <point x="12" y="662" type="line"/>
      <point x="12" y="643" type="line"/>
      <point x="55" y="643"/>
      <point x="69" y="635"/>
      <point x="109" y="588" type="curve"/>
      <point x="109" y="147" type="line" smooth="yes"/>
      <point x="109" y="44"/>
      <point x="95" y="25"/>
      <point x="12" y="19" type="curve"/>
    </contour>
  </outline>
</glyph>
<glyph name="eng" format="2">
  <advance width="500"/>
  <unicode hex="014B"/>
  <outline>
    <contour>
      <point x="18" y="0" type="line"/>
      <point x="230" y="0" type="line"/>
      <point x="230" y="15" type="line"/>
      <point x="179" y="19"/>
      <point x="164" y="30"/>
      <point x="164" y="70" type="curve" smooth="yes"/>
      <point x="164" y="348" type="line"/>
      <point x="212" y="393"/>
      <point x="234" y="405"/>
      <point x="265.45" y="405" type="curve" smooth="yes"/>
      <point x="316" y="405"/>
      <point x="340" y="374"/>
      <point x="340" y="308" type="curve" smooth="yes"/>
      <point x="340" y="-45" type="line" smooth="yes"/>
      <point x="340" y="-79.4482"/>
      <point x="331.279" y="-193.643"/>
      <point x="292" y="-193.643" type="curve" smooth="yes"/>
      <point x="288.186" y="-193.643"/>
      <point x="286.758" y="-192.824"/>
      <point x="286.749" y="-191.193" type="curve" smooth="yes"/>
      <point x="286.741" y="-189.571"/>
      <point x="288.135" y="-187.145"/>
      <point x="289.983" y="-183.92" type="curve" smooth="yes"/>
      <point x="293.585" y="-177.634"/>
      <point x="298.907" y="-168.314"/>
      <point x="298.907" y="-157.126" type="curve" smooth="yes"/>
      <point x="298.907" y="-134.824"/>
      <point x="277.758" y="-124"/>
      <point x="260.12" y="-124" type="curve" smooth="yes"/>
      <point x="238.758" y="-124"/>
      <point x="215.206" y="-139.876"/>
      <point x="215.206" y="-169.736" type="curve" smooth="yes"/>
      <point x="215.206" y="-201.736"/>
      <point x="242.982" y="-218"/>
      <point x="274.561" y="-218" type="curve" smooth="yes"/>
      <point x="384.561" y="-218"/>
      <point x="424" y="-142"/>
      <point x="424" y="0" type="curve" smooth="yes"/>
      <point x="424" y="310" type="line" smooth="yes"/>
      <point x="424" y="404"/>
      <point x="380" y="460"/>
      <point x="302.629" y="460" type="curve" smooth="yes"/>
      <point x="260" y="460"/>
      <point x="229" y="443"/>
      <point x="161" y="379" type="curve"/>
      <point x="161" y="460" type="line"/>
      <point x="16" y="460" type="line"/>
      <point x="16" y="443" type="line"/>
      <point x="55" y="438.158"/>
      <point x="80" y="418.308"/>
      <point x="80" y="383" type="curve" smooth="yes"/>
      <point x="80" y="70" type="line" smooth="yes"/>
      <point x="80" y="30"/>
      <point x="69" y="19"/>
      <point x="18" y="15" type="curve"/>
    </contour>
  </outline>
</glyph>
<glyph name="OE" format="2">
  <advance width="889"/>
  <unicode hex="0152"/>
  <outline>
    <contour>
      <point x="31" y="313" type="curve" smooth="yes"/>
      <point x="31" y="143"/>
      <point x="130" y="-7"/>
      <point x="312" y="-7" type="curve"/>
      <point x="492" y="-1" type="line"/>
      <point x="842" y="-1" type="line"/>
      <point x="886" y="167" type="line"/>
      <point x="862" y="167" type="line"/>
      <point x="829" y="104"/>
      <point x="790" y="40"/>
      <point x="712" y="39" type="curve" smooth="yes"/>
      <point x="581" y="37" type="line" smooth="yes"/>
      <point x="546" y="37"/>
      <point x="532" y="45"/>
      <point x="532" y="83" type="curve" smooth="yes"/>
      <point x="531" y="329" type="line"/>
      <point x="664" y="329" type="line" smooth="yes"/>
      <point x="741" y="329"/>
      <point x="755" y="297"/>
      <point x="762" y="229" type="curve"/>
      <point x="783" y="229" type="line"/>
      <point x="783" y="463" type="line"/>
      <point x="762" y="463" type="line"/>
      <point x="755" y="373"/>
      <point x="715" y="366"/>
      <point x="630" y="366" type="curve" smooth="yes"/>
      <point x="531" y="366" type="line"/>
      <point x="531" y="602" type="line" smooth="yes"/>
      <point x="531" y="633.022"/>
      <point x="576.676" y="625"/>
      <point x="597" y="625" type="curve" smooth="yes"/>
      <point x="663" y="625" type="line" smooth="yes"/>
      <point x="747" y="625"/>
      <point x="805" y="622"/>
      <point x="816" y="520" type="curve"/>
      <point x="839" y="520" type="line"/>
      <point x="839" y="661" type="line"/>
      <point x="513" y="661" type="line"/>
      <point x="352" y="667" type="line"/>
      <point x="132" y="667"/>
      <point x="31" y="523"/>
    </contour>
    <contour>
      <point x="142" y="325" type="curve" smooth="yes"/>
      <point x="142" y="521"/>
      <point x="211" y="632"/>
      <point x="332" y="632" type="curve" smooth="yes"/>
      <point x="401" y="632"/>
      <point x="431" y="600"/>
      <point x="431" y="527" type="curve" smooth="yes"/>
      <point x="431" y="131" type="line" smooth="yes"/>
      <point x="431" y="60"/>
      <point x="402" y="31"/>
      <point x="331" y="31" type="curve" smooth="yes"/>
      <point x="209" y="31"/>
      <point x="142" y="135"/>
    </contour>
  </outline>
</glyph>
<glyph name="tbar" format="2">
  <advance width="278"/>
  <unicode hex="0167"/>
  <outline>
    <component base="t"/>
    <contour>
      <point x="13" y="300" type="line"/>
      <point x="255" y="300" type="line"/>
      <point x="255" y="344" type="line"/>
      <point x="13" y="344" type="line"/>
    </contour>
  </outline>
</glyph>
<glyph name="uni018F" format="2">
  <advance width="722"/>
  <unicode hex="018F"/>
  <outline>
    <contour>
      <point x="37" y="276" type="line"/>
      <point x="59.2479" y="102.062"/>
      <point x="188.917" y="-14"/>
      <point x="361" y="-14" type="curve" smooth="yes"/>
      <point x="553.206" y="-14"/>
      <point x="688" y="127.801"/>
      <point x="688" y="330" type="curve" smooth="yes"/>
      <point x="688" y="532.281"/>
      <point x="552.173" y="676"/>
      <point x="361" y="676" type="curve" smooth="yes"/>
      <point x="251.367" y="676"/>
      <point x="136.34" y="623.038"/>
      <point x="83" y="548" type="curve"/>
      <point x="101" y="530" type="line"/>
      <point x="171.249" y="599.151"/>
      <point x="242.515" y="631"/>
      <point x="327" y="631" type="curve" smooth="yes"/>
      <point x="476.808" y="631"/>
      <point x="574" y="512.953"/>
      <point x="574" y="331" type="curve" smooth="yes"/>
      <point x="574" y="140.352"/>
      <point x="492.418" y="22"/>
      <point x="361" y="22" type="curve" smooth="yes"/>
      <point x="248.32" y="22"/>
      <point x="168.685" y="112.444"/>
      <point x="151.979" y="259.395" type="curve"/>
      <point x="139" y="240" type="line"/>
      <point x="607" y="240" type="line"/>
      <point x="607" y="276" type="line"/>
    </contour>
  </outline>
</glyph>
<glyph name="Ohorn" format="2">
  <advance width="722"/>
  <unicode hex="01A0"/>
  <anchor x="348" y="735" name="top"/>
  <anchor x="361" y="-50" name="bottom"/>
  <outline>
    <component base="O"/>
    <contour>
      <point x="524" y="631" type="curve" smooth="yes"/>
      <point x="509.631" y="630.62" type="line"/>
      <point x="509.622" y="616.738" type="line"/>
      <point x="542" y="617" type="line" smooth="yes"/>
      <point x="604.994" y="617.509"/>
      <point x="658" y="655"/>
      <point x="658" y="711.863" type="curve" smooth="yes"/>
      <point x="658" y="745"/>
      <point x="640" y="777"/>
      <point x="605.367" y="777" type="curve" smooth="yes"/>
      <point x="587" y="777"/>
      <point x="554" y="768"/>
      <point x="554" y="731.276" type="curve" smooth="yes"/>
      <point x="554" y="708.139"/>
      <point x="567.187" y="695.436"/>
      <point x="578.418" y="684.624" type="curve" smooth="yes"/>
      <point x="586.747" y="676.607"/>
      <point x="594" y="669.629"/>
      <point x="594" y="660.209" type="curve" smooth="yes"/>
      <point x="594" y="643"/>
      <point x="569.952" y="632.214"/>
    </contour>
  </outline>
</glyph>
<glyph name="ohorn" format="2">
  <advance width="500"/>
  <unicode hex="01A1"/>
  <anchor x="246" y="523" name="top"/>
  <anchor x="246" y="-50" name="bottom"/>
  <outline>
    <contour>
      <point x="356.127" y="395.841" type="line"/>
      <point x="399" y="406" type="line" smooth="yes"/>
      <point x="461.227" y="420.745"/>
      <point x="497" y="457.677"/>
      <point x="497" y="505.457" type="curve" smooth="yes"/>
      <point x="497" y="542.413"/>
      <point x="475.599" y="564"/>
      <point x="444.147" y="564" type="curve" smooth="yes"/>
      <point x="413.581" y="564"/>
      <point x="393" y="543.613"/>
      <point x="393" y="516.784" type="curve" smooth="yes"/>
      <point x="393" y="489.713"/>
      <point x="411.759" y="469.408"/>
      <point x="445.25" y="460.228" type="curve"/>
      <point x="440.463" y="446.455"/>
      <point x="416.756" y="429.874"/>
      <point x="388" y="421" type="curve" smooth="yes"/>
      <point x="355.595" y="411" type="line"/>
    </contour>
    <contour>
      <point x="29" y="225" type="curve" smooth="yes"/>
      <point x="29" y="85"/>
      <point x="115" y="-10"/>
      <point x="245" y="-10" type="curve" smooth="yes"/>
      <point x="375" y="-10"/>
      <point x="461" y="85"/>
      <point x="461" y="225" type="curve" smooth="yes"/>
      <point x="461" y="365"/>
      <point x="375" y="460"/>
      <point x="245" y="460" type="curve" smooth="yes"/>
      <point x="115" y="460"/>
      <point x="29" y="365"/>
    </contour>
    <contour>
      <point x="119" y="225" type="curve" smooth="yes"/>
      <point x="119" y="345"/>
      <point x="165" y="432"/>
      <point x="245" y="432" type="curve" smooth="yes"/>
      <point x="325" y="432"/>
      <point x="371" y="345"/>
      <point x="371" y="225" type="curve" smooth="yes"/>
      <point x="371" y="105"/>
      <point x="325" y="18"/>
      <point x="245" y="18" type="curve" smooth="yes"/>
      <point x="165" y="18"/>
      <point x="119" y="105"/>
    </contour>
  </outline>
</glyph>
<glyph name="uhorn" format="2">
  <advance width="520"/>
  <unicode hex="01B0"/>
  <anchor x="283" y="523" name="top"/>
  <anchor x="246" y="-50" name="bottom"/>
  <outline>
    <component base="u" xOffset="62"/>
    <contour>
      <point x="397" y="423" type="curve"/>
      <point x="397" y="400" type="line"/>
      <point x="478.904" y="400"/>
      <point x="532" y="428.849"/>
      <point x="532" y="500.119" type="curve" smooth="yes"/>
      <point x="532" y="541.195"/>
      <point x="514.279" y="562"/>
      <point x="480.735" y="562" type="curve" smooth="yes"/>
      <point x="448.714" y="562"/>
      <point x="428" y="543.042"/>
      <point x="428" y="513.8" type="curve" smooth="yes"/>
      <point x="428" y="490.949"/>
      <point x="440.649" y="480.359"/>
      <point x="451.54" y="471.262" type="curve" smooth="yes"/>
      <point x="463.397" y="461.358"/>
      <point x="467" y="455.937"/>
      <point x="467" y="448" type="curve" smooth="yes"/>
      <point x="467" y="422.825"/>
      <point x="421.289" y="423"/>
    </contour>
  </outline>
</glyph>
<glyph name="uni01E4" format="2">
  <advance width="722"/>
  <unicode hex="01E4"/>
  <outline>
    <component base="G"/>
    <contour>
      <point x="452" y="201" type="line"/>
      <point x="702" y="201" type="line"/>
      <point x="702" y="250" type="line"/>
      <point x="452" y="250" type="line"/>
    </contour>
  </outline>
</glyph>
<glyph name="uni01E5" format="2">
  <advance width="500"/>
  <unicode hex="01E5"/>
  <outline>
    <component base="g"/>
    <contour>
      <point x="0" y="-106" type="line"/>
      <point x="496" y="-106" type="line"/>
      <point x="496" y="-57" type="line"/>
      <point x="0" y="-57" type="line"/>
    </contour>
  </outline>
</glyph>
<glyph name="uni0222" format="2">
  <advance width="565"/>
  <unicode hex="0222"/>
  <outline>
    <contour>
      <point x="35" y="536" type="curve" smooth="yes"/>
      <point x="35" y="458"/>
      <point x="118" y="406"/>
      <point x="189" y="371" type="curve"/>
      <point x="128" y="353"/>
      <point x="36" y="286"/>
      <point x="36" y="177" type="curve" smooth="yes"/>
      <point x="36" y="66"/>
      <point x="140" y="-14"/>
      <point x="282" y="-14" type="curve" smooth="yes"/>
      <point x="430" y="-14"/>
      <point x="517" y="76"/>
      <point x="517" y="198" type="curve" smooth="yes"/>
      <point x="517" y="312"/>
      <point x="418" y="375"/>
      <point x="334" y="410" type="curve"/>
      <point x="427" y="454"/>
      <point x="520" y="495"/>
      <point x="520" y="588" type="curve" smooth="yes"/>
      <point x="520" y="620"/>
      <point x="505" y="651"/>
      <point x="488" y="662" type="curve"/>
      <point x="358" y="662" type="line"/>
      <point x="358" y="653" type="line"/>
      <point x="397" y="653"/>
      <point x="471" y="634"/>
      <point x="471" y="576" type="curve" smooth="yes"/>
      <point x="471" y="509"/>
      <point x="390" y="469"/>
      <point x="300" y="428" type="curve"/>
      <point x="218" y="468"/>
      <point x="142" y="510"/>
      <point x="142" y="588" type="curve" smooth="yes"/>
      <point x="142" y="658"/>
      <point x="197" y="662"/>
      <point x="237" y="662" type="curve"/>
      <point x="229" y="677" type="line"/>
      <point x="124" y="677"/>
      <point x="35" y="645"/>
    </contour>
    <contour>
      <point x="130" y="192" type="curve" smooth="yes"/>
      <point x="130" y="290"/>
      <point x="183" y="333"/>
      <point x="225" y="353" type="curve"/>
      <point x="311" y="310"/>
      <point x="418" y="270"/>
      <point x="418" y="162" type="curve" smooth="yes"/>
      <point x="418" y="88"/>
      <point x="380" y="22"/>
      <point x="290" y="22" type="curve" smooth="yes"/>
      <point x="230" y="22"/>
      <point x="130" y="62"/>
    </contour>
  </outline>
</glyph>
<glyph name="uni0223" format="2">
  <advance width="468"/>
  <unicode hex="0223"/>
  <outline>
    <contour>
      <point x="30" y="536" type="curve" smooth="yes"/>
      <point x="30" y="458"/>
      <point x="102" y="391"/>
      <point x="162" y="356" type="curve"/>
      <point x="116" y="333"/>
      <point x="31" y="280"/>
      <point x="31" y="176" type="curve" smooth="yes"/>
      <point x="31" y="59"/>
      <point x="128" y="-10"/>
      <point x="246" y="-10" type="curve" smooth="yes"/>
      <point x="356" y="-10"/>
      <point x="435" y="90"/>
      <point x="435" y="198" type="curve" smooth="yes"/>
      <point x="435" y="314"/>
      <point x="350" y="354"/>
      <point x="279" y="389" type="curve"/>
      <point x="357" y="433"/>
      <point x="438" y="517"/>
      <point x="438" y="610" type="curve" smooth="yes"/>
      <point x="438" y="681"/>
      <point x="389" y="695"/>
      <point x="365" y="702" type="curve"/>
      <point x="272" y="645" type="line"/>
      <point x="276" y="636" type="line"/>
      <point x="291" y="641"/>
      <point x="307" y="648"/>
      <point x="326" y="648" type="curve" smooth="yes"/>
      <point x="368" y="648"/>
      <point x="396" y="625"/>
      <point x="396" y="589" type="curve" smooth="yes"/>
      <point x="396" y="522"/>
      <point x="326" y="448"/>
      <point x="250" y="407" type="curve"/>
      <point x="182" y="447"/>
      <point x="95" y="494"/>
      <point x="95" y="572" type="curve" smooth="yes"/>
      <point x="95" y="612"/>
      <point x="117" y="641"/>
      <point x="139" y="662" type="curve"/>
      <point x="132" y="677" type="line"/>
      <point x="61" y="644"/>
      <point x="30" y="600"/>
    </contour>
    <contour>
      <point x="115" y="182" type="curve" smooth="yes"/>
      <point x="115" y="296"/>
      <point x="165" y="326"/>
      <point x="192" y="339" type="curve"/>
      <point x="278" y="294"/>
      <point x="361" y="256"/>
      <point x="361" y="158" type="curve" smooth="yes"/>
      <point x="361" y="54"/>
      <point x="312" y="18"/>
      <point x="264" y="18" type="curve" smooth="yes"/>
      <point x="188" y="18"/>
      <point x="115" y="70"/>
    </contour>
  </outline>
</glyph>
<glyph name="uni0224" format="2">
  <advance width="611"/>
  <unicode hex="0224"/>
  <outline>
    <contour>
      <point x="9" y="0" type="line"/>
      <point x="410" y="0" type="line" smooth="yes"/>
      <point x="483.422" y="0"/>
      <point x="523" y="-43.9676"/>
      <point x="523" y="-113.2" type="curve" smooth="yes"/>
      <point x="523" y="-148"/>
      <point x="513" y="-183"/>
      <point x="503" y="-199" type="curve"/>
      <point x="525" y="-212" type="line"/>
      <point x="551" y="-178"/>
      <point x="584" y="-99"/>
      <point x="584" y="-33" type="curve" smooth="yes"/>
      <point x="584" y="14"/>
      <point x="536" y="38"/>
      <point x="479" y="38" type="curve" smooth="yes"/>
      <point x="145" y="38" type="line"/>
      <point x="577" y="647" type="line"/>
      <point x="577" y="662" type="line"/>
      <point x="31" y="662" type="line"/>
      <point x="31" y="491" type="line"/>
      <point x="57" y="491" type="line"/>
      <point x="79.3746" y="588.328"/>
      <point x="125.218" y="624"/>
      <point x="225" y="624" type="curve" smooth="yes"/>
      <point x="446" y="624" type="line"/>
      <point x="9" y="15" type="line"/>
    </contour>
  </outline>
</glyph>
<glyph name="dotlessj" format="2">
  <advance width="278"/>
  <unicode hex="0237"/>
  <anchor x="138" y="523" name="top"/>
  <outline>
    <contour>
      <point x="-35" y="-147.787" type="curve" smooth="yes"/>
      <point x="-35" y="-182.655"/>
      <point x="-10" y="-218"/>
      <point x="44" y="-218" type="curve" smooth="yes"/>
      <point x="154" y="-218"/>
      <point x="193" y="-142"/>
      <point x="193" y="0" type="curve" smooth="yes"/>
      <point x="193" y="450" type="line"/>
      <point x="32" y="450" type="line"/>
      <point x="32" y="434" type="line"/>
      <point x="82.4822" y="427.998"/>
      <point x="109" y="407.554"/>
      <point x="109" y="378" type="curve" smooth="yes"/>
      <point x="109" y="-45" type="line" smooth="yes"/>
      <point x="109" y="-123.904"/>
      <point x="106.783" y="-184"/>
      <point x="63.1699" y="-184" type="curve" smooth="yes"/>
      <point x="53.9187" y="-184"/>
      <point x="49.9926" y="-181.296"/>
      <point x="49.9488" y="-172.333" type="curve" smooth="yes"/>
      <point x="49.9132" y="-165.051"/>
      <point x="52.4815" y="-161.977"/>
      <point x="59.4441" y="-154.508" type="curve" smooth="yes"/>
      <point x="60.6272" y="-153.239"/>
      <point x="65.7183" y="-147.788"/>
      <point x="65.7062" y="-135.371" type="curve" smooth="yes"/>
      <point x="65.692" y="-120.805"/>
      <point x="58.6519" y="-94"/>
      <point x="19.6798" y="-94" type="curve" smooth="yes"/>
      <point x="-16.2172" y="-94"/>
      <point x="-35" y="-116.742"/>
    </contour>
  </outline>
  <guideline angle="90" x="138" y="0"/>
</glyph>
<glyph name="uni0258" format="2">
  <advance width="444"/>
  <unicode hex="0258"/>
  <outline>
    <contour>
      <point x="25" y="157" type="line"/>
      <point x="67" y="49"/>
      <point x="142" y="-10"/>
      <point x="237" y="-10" type="curve" smooth="yes"/>
      <point x="352" y="-10"/>
      <point x="424" y="76"/>
      <point x="424" y="214" type="curve" smooth="yes"/>
      <point x="424" y="363"/>
      <point x="346" y="460"/>
      <point x="225" y="460" type="curve" smooth="yes"/>
      <point x="108.142" y="460"/>
      <point x="56.5245" y="378.762"/>
      <point x="44" y="277" type="curve"/>
      <point x="352" y="277" type="line"/>
      <point x="351.824" y="180.146"/>
      <point x="316.189" y="59"/>
      <point x="196" y="59" type="curve" smooth="yes"/>
      <point x="132" y="59"/>
      <point x="89" y="88"/>
      <point x="41" y="164" type="curve"/>
    </contour>
    <contour>
      <point x="145.782" y="309" type="line"/>
      <point x="145.782" y="324.576" type="line" smooth="yes"/>
      <point x="145.782" y="400.57"/>
      <point x="186.799" y="424"/>
      <point x="244" y="424" type="curve" smooth="yes"/>
      <point x="305" y="424"/>
      <point x="350" y="377"/>
      <point x="350" y="309" type="curve"/>
    </contour>
  </outline>
</glyph>
<glyph name="uni0275" format="2">
  <advance width="500"/>
  <unicode hex="0275"/>
  <outline>
    <component base="o"/>
    <contour>
      <point x="89" y="214" type="line"/>
      <point x="398.5" y="214" type="line"/>
      <point x="398.5" y="248" type="line"/>
      <point x="89" y="248" type="line"/>
    </contour>
  </outline>
</glyph>
<glyph name="uni02BC" format="2">
  <advance width="258"/>
  <unicode hex="02BC"/>
  <outline>
    <contour>
      <point x="60" y="670" type="curve" smooth="yes"/>
      <point x="60" y="638"/>
      <point x="86" y="619"/>
      <point x="119" y="619" type="curve" smooth="yes"/>
      <point x="125" y="619"/>
      <point x="129.593" y="620.027"/>
      <point x="133" y="621" type="curve" smooth="yes"/>
      <point x="140" y="623"/>
      <point x="144" y="623"/>
      <point x="145" y="623" type="curve" smooth="yes"/>
      <point x="153" y="623"/>
      <point x="159" y="617"/>
      <point x="159" y="609" type="curve" smooth="yes"/>
      <point x="159" y="577"/>
      <point x="132" y="548"/>
      <point x="77" y="526" type="curve"/>
      <point x="86" y="507" type="line"/>
      <point x="156" y="532"/>
      <point x="198" y="575"/>
      <point x="198" y="638" type="curve" smooth="yes"/>
      <point x="198" y="688"/>
      <point x="164" y="727"/>
      <point x="119" y="727" type="curve" smooth="yes"/>
      <point x="86" y="727"/>
      <point x="60" y="703"/>
    </contour>
  </outline>
</glyph>
<glyph name="uni02BF" format="2">
  <advance width="201"/>
  <unicode hex="02BF"/>
  <outline>
    <contour>
      <point x="50" y="611" type="curve" smooth="yes"/>
      <point x="50" y="556"/>
      <point x="96" y="512"/>
      <point x="151" y="512" type="curve"/>
      <point x="151" y="546" type="line"/>
      <point x="114" y="546"/>
      <point x="84" y="575"/>
      <point x="84" y="611" type="curve" smooth="yes"/>
      <point x="84" y="647"/>
      <point x="116" y="677"/>
      <point x="151" y="677" type="curve"/>
      <point x="151" y="711" type="line"/>
      <point x="96" y="711"/>
      <point x="50" y="666"/>
    </contour>
  </outline>
</glyph>
<glyph name="circumflex" format="2">
  <advance width="351"/>
  <unicode hex="02C6"/>
  <outline>
    <contour>
      <point x="20" y="507" type="line"/>
      <point x="54" y="507" type="line"/>
      <point x="175" y="610" type="line"/>
      <point x="297" y="507" type="line"/>
      <point x="331" y="507" type="line"/>
      <point x="206" y="674" type="line"/>
      <point x="144" y="674" type="line"/>
    </contour>
  </outline>
</glyph>
<glyph name="caron" format="2">
  <advance width="351"/>
  <unicode hex="02C7"/>
  <outline>
    <contour>
      <point x="20" y="674" type="line"/>
      <point x="144" y="507" type="line"/>
      <point x="206" y="507" type="line"/>
      <point x="331" y="674" type="line"/>
      <point x="297" y="674" type="line"/>
      <point x="175" y="571" type="line"/>
      <point x="54" y="674" type="line"/>
    </contour>
  </outline>
</glyph>
<glyph name="breve" format="2">
  <advance width="341"/>
  <unicode hex="02D8"/>
  <outline>
    <contour>
      <point x="30" y="667" type="line"/>
      <point x="30" y="580"/>
      <point x="74" y="510"/>
      <point x="168" y="510" type="curve" smooth="yes"/>
      <point x="264" y="510"/>
      <point x="303" y="581"/>
      <point x="311" y="667" type="curve"/>
      <point x="282" y="667" type="line"/>
      <point x="260" y="608"/>
      <point x="240" y="570"/>
      <point x="170" y="570" type="curve" smooth="yes"/>
      <point x="108" y="570"/>
      <point x="69" y="606"/>
      <point x="59" y="667" type="curve"/>
    </contour>
  </outline>
</glyph>
<glyph name="dotaccent" format="2">
  <advance width="220"/>
  <unicode hex="02D9"/>
  <outline>
    <contour>
      <point x="60" y="573" type="curve" smooth="yes"/>
      <point x="60" y="545.578"/>
      <point x="83" y="523"/>
      <point x="110" y="523" type="curve" smooth="yes"/>
      <point x="137" y="523"/>
      <point x="160" y="545.578"/>
      <point x="160" y="573.156" type="curve" smooth="yes"/>
      <point x="160" y="599.578"/>
      <point x="137" y="623"/>
      <point x="110" y="623" type="curve" smooth="yes"/>
      <point x="83" y="623"/>
      <point x="60" y="599.578"/>
    </contour>
  </outline>
  <guideline angle="90" x="60" y="0"/>
  <guideline angle="90" x="160" y="0"/>
  <guideline angle="0" x="0" y="623"/>
  <guideline angle="0" x="0" y="523"/>
  <guideline angle="90" x="110" y="0"/>
  <guideline angle="0" x="0" y="573"/>
</glyph>
<glyph name="ring" format="2">
  <advance width="259"/>
  <unicode hex="02DA"/>
  <outline>
    <contour>
      <point x="30" y="610" type="curve" smooth="yes"/>
      <point x="30" y="554"/>
      <point x="73" y="510"/>
      <point x="129" y="510" type="curve" smooth="yes"/>
      <point x="184" y="510"/>
      <point x="229" y="554"/>
      <point x="229" y="609" type="curve" smooth="yes"/>
      <point x="229" y="664"/>
      <point x="184" y="709"/>
      <point x="129" y="709" type="curve" smooth="yes"/>
      <point x="75" y="709"/>
      <point x="30" y="664"/>
    </contour>
    <contour>
      <point x="64" y="610" type="curve" smooth="yes"/>
      <point x="64" y="646"/>
      <point x="94" y="675"/>
      <point x="130" y="675" type="curve" smooth="yes"/>
      <point x="165" y="675"/>
      <point x="195" y="645"/>
      <point x="195" y="609" type="curve" smooth="yes"/>
      <point x="195" y="573"/>
      <point x="165" y="544"/>
      <point x="128" y="544" type="curve" smooth="yes"/>
      <point x="93" y="544"/>
      <point x="64" y="574"/>
    </contour>
  </outline>
</glyph>
<glyph name="tilde" format="2">
  <advance width="390"/>
  <unicode hex="02DC"/>
  <outline>
    <contour>
      <point x="30" y="532" type="curve"/>
      <point x="59" y="532" type="line"/>
      <point x="70" y="563"/>
      <point x="87" y="578"/>
      <point x="110" y="578" type="curve" smooth="yes"/>
      <point x="122" y="578"/>
      <point x="136" y="574"/>
      <point x="151" y="567" type="curve" smooth="yes"/>
      <point x="174" y="556" type="line" smooth="yes"/>
      <point x="215" y="536"/>
      <point x="230" y="532"/>
      <point x="255" y="532" type="curve" smooth="yes"/>
      <point x="310" y="532"/>
      <point x="339" y="562"/>
      <point x="360" y="638" type="curve"/>
      <point x="331" y="638" type="line"/>
      <point x="314" y="600"/>
      <point x="301" y="588"/>
      <point x="278" y="588" type="curve" smooth="yes"/>
      <point x="263" y="588"/>
      <point x="244" y="594"/>
      <point x="225" y="603" type="curve" smooth="yes"/>
      <point x="201" y="615" type="line" smooth="yes"/>
      <point x="178" y="627"/>
      <point x="153" y="633"/>
      <point x="131" y="633" type="curve" smooth="yes"/>
      <point x="81" y="633"/>
      <point x="45" y="597"/>
    </contour>
  </outline>
</glyph>
<glyph name="hungarumlaut" format="2">
  <advance width="460"/>
  <unicode hex="02DD"/>
  <outline>
    <contour>
      <point x="40" y="523" type="line"/>
      <point x="80" y="523" type="line"/>
      <point x="234" y="620" type="line" smooth="yes"/>
      <point x="254.898" y="633.163"/>
      <point x="264" y="646"/>
      <point x="264" y="662" type="curve" smooth="yes"/>
      <point x="264" y="682"/>
      <point x="251" y="694"/>
      <point x="229" y="694" type="curve" smooth="yes"/>
      <point x="214" y="694"/>
      <point x="204.939" y="689.061"/>
      <point x="187" y="671" type="curve" smooth="yes"/>
    </contour>
    <contour>
      <point x="196" y="523" type="line"/>
      <point x="236" y="523" type="line"/>
      <point x="390" y="620" type="line" smooth="yes"/>
      <point x="410.898" y="633.163"/>
      <point x="420" y="646"/>
      <point x="420" y="662" type="curve" smooth="yes"/>
      <point x="420" y="682"/>
      <point x="407" y="694"/>
      <point x="385" y="694" type="curve" smooth="yes"/>
      <point x="370" y="694"/>
      <point x="360.939" y="689.061"/>
      <point x="343" y="671" type="curve" smooth="yes"/>
    </contour>
  </outline>
</glyph>
<glyph name="uni0305" format="2">
  <unicode hex="0305"/>
  <outline>
    <contour>
      <point x="-487" y="711" type="line"/>
      <point x="-9" y="711" type="line"/>
      <point x="-9" y="765" type="line"/>
      <point x="-487" y="765" type="line"/>
    </contour>
  </outline>
</glyph>
<glyph name="uni0313" format="2">
  <unicode hex="0313"/>
  <anchor x="-289" y="523" name="_top"/>
  <outline>
    <contour>
      <point x="-292" y="517" type="line"/>
      <point x="-222" y="537"/>
      <point x="-180" y="575"/>
      <point x="-180" y="631" type="curve" smooth="yes"/>
      <point x="-180" y="688"/>
      <point x="-222.793" y="722"/>
      <point x="-270.793" y="722" type="curve" smooth="yes"/>
      <point x="-308.362" y="722"/>
      <point x="-338" y="703"/>
      <point x="-338" y="670" type="curve" smooth="yes"/>
      <point x="-338" y="638"/>
      <point x="-312" y="619"/>
      <point x="-279" y="619" type="curve" smooth="yes"/>
      <point x="-266.272" y="619"/>
      <point x="-253.972" y="623"/>
      <point x="-241.235" y="623" type="curve" smooth="yes"/>
      <point x="-228.529" y="623"/>
      <point x="-219" y="617"/>
      <point x="-219" y="609" type="curve" smooth="yes"/>
      <point x="-219" y="577"/>
      <point x="-246" y="553"/>
      <point x="-301" y="536" type="curve"/>
    </contour>
  </outline>
</glyph>
<glyph name="uni0314" format="2">
  <unicode hex="0314"/>
  <anchor x="-289" y="523" name="_top.gr"/>
  <outline>
    <contour>
      <point x="-226" y="517" type="curve"/>
      <point x="-217" y="536" type="line"/>
      <point x="-272" y="553"/>
      <point x="-299" y="577"/>
      <point x="-299" y="609" type="curve" smooth="yes"/>
      <point x="-299" y="617"/>
      <point x="-289.471" y="623"/>
      <point x="-276.765" y="623" type="curve" smooth="yes"/>
      <point x="-264.028" y="623"/>
      <point x="-251.728" y="619"/>
      <point x="-239" y="619" type="curve" smooth="yes"/>
      <point x="-206" y="619"/>
      <point x="-180" y="638"/>
      <point x="-180" y="670" type="curve" smooth="yes"/>
      <point x="-180" y="703"/>
      <point x="-209.638" y="722"/>
      <point x="-247.207" y="722" type="curve" smooth="yes"/>
      <point x="-295.207" y="722"/>
      <point x="-338" y="688"/>
      <point x="-338" y="631" type="curve" smooth="yes"/>
      <point x="-338" y="575"/>
      <point x="-296" y="537"/>
    </contour>
  </outline>
</glyph>
<glyph name="uni0317" format="2">
  <unicode hex="0317"/>
  <outline>
    <contour>
      <point x="-397" y="-76" type="curve" smooth="yes"/>
      <point x="-397" y="-92"/>
      <point x="-386" y="-107"/>
      <point x="-368" y="-119" type="curve" smooth="yes"/>
      <point x="-214" y="-216" type="line"/>
      <point x="-174" y="-216" type="line"/>
      <point x="-321" y="-68" type="line" smooth="yes"/>
      <point x="-339" y="-50"/>
      <point x="-348" y="-45"/>
      <point x="-363" y="-45" type="curve" smooth="yes"/>
      <point x="-384" y="-45"/>
      <point x="-397" y="-57"/>
    </contour>
  </outline>
</glyph>
<glyph name="uni0324" format="2">
  <unicode hex="0324"/>
  <outline>
    <contour>
      <point x="-398" y="-109" type="curve" smooth="yes"/>
      <point x="-398" y="-137"/>
      <point x="-377" y="-159"/>
      <point x="-350" y="-159" type="curve" smooth="yes"/>
      <point x="-322" y="-159"/>
      <point x="-299" y="-137"/>
      <point x="-299" y="-110" type="curve" smooth="yes"/>
      <point x="-299" y="-83"/>
      <point x="-322" y="-60"/>
      <point x="-350" y="-60" type="curve" smooth="yes"/>
      <point x="-375" y="-60"/>
      <point x="-398" y="-83"/>
    </contour>
    <contour>
      <point x="-199" y="-109" type="curve" smooth="yes"/>
      <point x="-199" y="-137"/>
      <point x="-178" y="-159"/>
      <point x="-151" y="-159" type="curve" smooth="yes"/>
      <point x="-123" y="-159"/>
      <point x="-100" y="-137"/>
      <point x="-100" y="-110" type="curve" smooth="yes"/>
      <point x="-100" y="-83"/>
      <point x="-123" y="-60"/>
      <point x="-151" y="-60" type="curve" smooth="yes"/>
      <point x="-176" y="-60"/>
      <point x="-199" y="-83"/>
    </contour>
  </outline>
</glyph>
<glyph name="uni0326" format="2">
  <unicode hex="0326"/>
  <anchor x="-179" y="-50" name="_bottom"/>
  <outline>
    <contour>
      <point x="-231.812" y="-94" type="curve" smooth="yes"/>
      <point x="-231.812" y="-119"/>
      <point x="-209.812" y="-135"/>
      <point x="-183.812" y="-135" type="curve" smooth="yes"/>
      <point x="-180.055" y="-135"/>
      <point x="-175.908" y="-133.921"/>
      <point x="-171.937" y="-132.885" type="curve" smooth="yes"/>
      <point x="-168.261" y="-131.924"/>
      <point x="-163.736" y="-131"/>
      <point x="-161.812" y="-131" type="curve" smooth="yes"/>
      <point x="-155.812" y="-131"/>
      <point x="-151.812" y="-133"/>
      <point x="-151.812" y="-140" type="curve" smooth="yes"/>
      <point x="-151.812" y="-171"/>
      <point x="-191.812" y="-199"/>
      <point x="-215.812" y="-208" type="curve"/>
      <point x="-207.812" y="-223" type="line"/>
      <point x="-151.812" y="-199"/>
      <point x="-119.812" y="-165"/>
      <point x="-119.812" y="-119" type="curve" smooth="yes"/>
      <point x="-119.812" y="-81"/>
      <point x="-146.812" y="-50"/>
      <point x="-183.812" y="-50" type="curve" smooth="yes"/>
      <point x="-209.812" y="-50"/>
      <point x="-231.812" y="-67"/>
    </contour>
  </outline>
</glyph>
<glyph name="uni032C" format="2">
  <unicode hex="032C"/>
  <outline>
    <contour>
      <point x="-405" y="-45" type="line"/>
      <point x="-281" y="-212" type="line"/>
      <point x="-219" y="-212" type="line"/>
      <point x="-94" y="-45" type="line"/>
      <point x="-128" y="-45" type="line"/>
      <point x="-250" y="-148" type="line"/>
      <point x="-371" y="-45" type="line"/>
    </contour>
  </outline>
</glyph>
<glyph name="uni032F" format="2">
  <unicode hex="032F"/>
  <outline>
    <contour>
      <point x="-384" y="-196" type="curve"/>
      <point x="-356" y="-196" type="line"/>
      <point x="-346" y="-137"/>
      <point x="-309" y="-103"/>
      <point x="-249" y="-103" type="curve" smooth="yes"/>
      <point x="-189" y="-103"/>
      <point x="-153" y="-137"/>
      <point x="-143" y="-196" type="curve"/>
      <point x="-115" y="-196" type="line"/>
      <point x="-115" y="-76"/>
      <point x="-195" y="-45"/>
      <point x="-249" y="-45" type="curve" smooth="yes"/>
      <point x="-303" y="-45"/>
      <point x="-384" y="-76"/>
    </contour>
  </outline>
</glyph>
<glyph name="uni033E" format="2">
  <unicode hex="033E"/>
  <outline>
    <contour>
      <point x="-300" y="523" type="curve"/>
      <point x="-299" y="507" type="line"/>
      <point x="-242" y="526"/>
      <point x="-193" y="554"/>
      <point x="-193" y="586.217" type="curve" smooth="yes"/>
      <point x="-193" y="605.154"/>
      <point x="-209.928" y="628.181"/>
      <point x="-222" y="644.167" type="curve" smooth="yes"/>
      <point x="-232.216" y="657.695" type="line" smooth="yes"/>
      <point x="-239.649" y="667.538"/>
      <point x="-245" y="680"/>
      <point x="-245" y="693.528" type="curve" smooth="yes"/>
      <point x="-245" y="709"/>
      <point x="-238.132" y="729.362"/>
      <point x="-201" y="746" type="curve"/>
      <point x="-201" y="762" type="line"/>
      <point x="-276" y="743"/>
      <point x="-307" y="715"/>
      <point x="-307" y="677.403" type="curve" smooth="yes"/>
      <point x="-307" y="659.738"/>
      <point x="-300.156" y="651.121"/>
      <point x="-282.977" y="630.412" type="curve" smooth="yes"/>
      <point x="-273.73" y="619.263" type="line" smooth="yes"/>
      <point x="-265.656" y="609.53"/>
      <point x="-255" y="593"/>
      <point x="-255" y="578.036" type="curve" smooth="yes"/>
      <point x="-255" y="560"/>
      <point x="-270.481" y="536"/>
    </contour>
  </outline>
</glyph>
<glyph name="uni0342" format="2">
  <unicode hex="0342"/>
  <anchor x="-278" y="523" name="_top.gr"/>
  <outline>
    <contour>
      <point x="-436" y="523" type="curve"/>
      <point x="-409" y="523" type="line"/>
      <point x="-399" y="548"/>
      <point x="-383" y="566"/>
      <point x="-355" y="566" type="curve" smooth="yes"/>
      <point x="-311" y="566"/>
      <point x="-276" y="523"/>
      <point x="-220" y="523" type="curve" smooth="yes"/>
      <point x="-165" y="523"/>
      <point x="-129" y="569"/>
      <point x="-120" y="620" type="curve"/>
      <point x="-147" y="620" type="line"/>
      <point x="-155" y="599"/>
      <point x="-174" y="577"/>
      <point x="-198" y="577" type="curve" smooth="yes"/>
      <point x="-247" y="577"/>
      <point x="-283" y="620"/>
      <point x="-332" y="620" type="curve" smooth="yes"/>
      <point x="-390" y="620"/>
      <point x="-426" y="577"/>
    </contour>
  </outline>
  <guideline angle="90" x="-436" y="0"/>
  <guideline angle="90" x="-278" y="0"/>
</glyph>
<glyph name="uni0345" format="2">
  <unicode hex="0345"/>
  <anchor x="-279" y="-50" name="_b.ypogegrammeni"/>
  <outline>
    <contour>
      <point x="-279" y="-50" type="line"/>
      <point x="-279" y="-146" type="line" smooth="yes"/>
      <point x="-279" y="-186"/>
      <point x="-250" y="-218"/>
      <point x="-197" y="-218" type="curve" smooth="yes"/>
      <point x="-146" y="-218"/>
      <point x="-120" y="-196"/>
      <point x="-120" y="-137" type="curve"/>
      <point x="-145" y="-137" type="line"/>
      <point x="-145" y="-163"/>
      <point x="-150.979" y="-187"/>
      <point x="-170.66" y="-187" type="curve" smooth="yes"/>
      <point x="-191.552" y="-187"/>
      <point x="-195" y="-171.962"/>
      <point x="-195" y="-153.733" type="curve" smooth="yes"/>
      <point x="-195" y="-50" type="line"/>
    </contour>
  </outline>
</glyph>
<glyph name="uni0375" format="2">
  <advance width="199"/>
  <unicode hex="0375"/>
  <outline>
    <contour>
      <point x="17" y="-174.256" type="curve" smooth="yes"/>
      <point x="17" y="-195"/>
      <point x="29" y="-212"/>
      <point x="52.3029" y="-212" type="curve" smooth="yes"/>
      <point x="72" y="-212"/>
      <point x="93.8357" y="-199.854"/>
      <point x="103" y="-176" type="curve" smooth="yes"/>
      <point x="171" y="1" type="line"/>
      <point x="152" y="11" type="line"/>
      <point x="34" y="-135" type="line" smooth="yes"/>
      <point x="22.668" y="-149.021"/>
      <point x="17" y="-160"/>
    </contour>
  </outline>
</glyph>
<glyph name="tonos" format="2">
  <advance width="208"/>
  <unicode hex="0384"/>
  <anchor x="50" y="735" name="_tonos"/>
  <anchor x="54" y="523" name="_tonos.top"/>
  <outline>
    <contour>
      <point x="40" y="523" type="line"/>
      <point x="64" y="523" type="line"/>
      <point x="153.026" y="660.973" type="line" smooth="yes"/>
      <point x="163.334" y="676.948"/>
      <point x="168" y="691.503"/>
      <point x="168" y="704.59" type="curve" smooth="yes"/>
      <point x="168" y="731"/>
      <point x="149" y="738"/>
      <point x="133" y="738" type="curve" smooth="yes"/>
      <point x="105" y="738"/>
      <point x="90.9515" y="720.013"/>
      <point x="85" y="697" type="curve" smooth="yes"/>
    </contour>
  </outline>
  <guideline angle="90" x="40" y="0"/>
</glyph>
<glyph name="dieresistonos" format="2">
  <advance width="291"/>
  <unicode hex="0385"/>
  <anchor x="118" y="462" name="_tonos_top"/>
  <outline>
    <contour>
      <point x="0" y="515" type="curve" smooth="yes"/>
      <point x="0" y="488"/>
      <point x="21" y="467"/>
      <point x="48" y="467" type="curve" smooth="yes"/>
      <point x="75" y="467"/>
      <point x="96" y="488"/>
      <point x="96" y="515" type="curve" smooth="yes"/>
      <point x="96" y="542"/>
      <point x="75" y="563"/>
      <point x="48" y="563" type="curve" smooth="yes"/>
      <point x="21" y="563"/>
      <point x="0" y="542"/>
    </contour>
    <contour>
      <point x="106" y="462" type="line"/>
      <point x="130" y="462" type="line"/>
      <point x="214.924" y="592.555" type="line" smooth="yes"/>
      <point x="227.463" y="611.832"/>
      <point x="234" y="629.42"/>
      <point x="234" y="644.423" type="curve" smooth="yes"/>
      <point x="234" y="670"/>
      <point x="215" y="677"/>
      <point x="199" y="677" type="curve" smooth="yes"/>
      <point x="171" y="677"/>
      <point x="157" y="659"/>
      <point x="151" y="636" type="curve" smooth="yes"/>
    </contour>
    <contour>
      <point x="195" y="515" type="curve" smooth="yes"/>
      <point x="195" y="488"/>
      <point x="216" y="467"/>
      <point x="243" y="467" type="curve" smooth="yes"/>
      <point x="270" y="467"/>
      <point x="291" y="488"/>
      <point x="291" y="515" type="curve" smooth="yes"/>
      <point x="291" y="542"/>
      <point x="270" y="563"/>
      <point x="243" y="563" type="curve" smooth="yes"/>
      <point x="216" y="563"/>
      <point x="195" y="542"/>
    </contour>
  </outline>
</glyph>
<glyph name="anoteleia" format="2">
  <advance width="250"/>
  <unicode hex="0387"/>
  <outline>
    <contour>
      <point x="66" y="411" type="curve" smooth="yes"/>
      <point x="66" y="378"/>
      <point x="92" y="352"/>
      <point x="125" y="352" type="curve" smooth="yes"/>
      <point x="158" y="352"/>
      <point x="184" y="378"/>
      <point x="184" y="411" type="curve" smooth="yes"/>
      <point x="184" y="444"/>
      <point x="158" y="470"/>
      <point x="125" y="470" type="curve" smooth="yes"/>
      <point x="92" y="470"/>
      <point x="66" y="444"/>
    </contour>
  </outline>
</glyph>
<glyph name="uni0394" format="2">
  <advance width="660"/>
  <unicode hex="0394"/>
  <outline>
    <contour>
      <point x="0" y="0" type="line"/>
      <point x="630" y="0" type="line"/>
      <point x="319" y="674" type="line"/>
      <point x="310" y="674" type="line"/>
    </contour>
    <contour>
      <point x="59" y="34" type="line"/>
      <point x="284" y="511" type="line"/>
      <point x="504" y="34" type="line"/>
    </contour>
  </outline>
</glyph>
